<?xml version="1.0" encoding="UTF-8"?>
<!DOCTYPE svg PUBLIC "-//W3C//DTD SVG 1.1//EN" "http://www.w3.org/Graphics/SVG/1.1/DTD/svg11.dtd">
<!-- Creator: CorelDRAW -->
<svg xmlns="http://www.w3.org/2000/svg" xml:space="preserve" width="121.901mm" height="28.5897mm" version="1.1" style="shape-rendering:geometricPrecision; text-rendering:geometricPrecision; image-rendering:optimizeQuality; fill-rule:evenodd; clip-rule:evenodd"
viewBox="0 0 108.2332 25.3841"
 xmlns:xlink="http://www.w3.org/1999/xlink"
 xmlns:xodm="http://www.corel.com/coreldraw/odm/2003">
 <defs>
  <style type="text/css">
   <![CDATA[
    .str0 {stroke:#0ABDC4;stroke-width:0.0677;stroke-miterlimit:22.9256}
    .fil2 {fill:#024277}
    .fil3 {fill:white;fill-rule:nonzero}
    .fil0 {fill:#332D2B;fill-rule:nonzero}
    .fil1 {fill:#024277;fill-rule:nonzero}
   ]]>
  </style>
 </defs>
 <g id="Camada_x0020_1">
  <metadata id="CorelCorpID_0Corel-Layer"/>
  <g id="_105553183872224">
   <path class="fil0" d="M3.8854 0.2612l0 0.2065c-0.4713,0.0795 -0.8134,0.261 -1.0261,0.5447 -0.098,0.1384 -0.1648,0.2996 -0.1982,0.4857 -0.0354,0.1861 -0.0521,0.4494 -0.0521,0.7921l0 3.6697 0 0.2316c0.0042,0.8783 0.2065,1.5591 0.6048,2.0425 0.2169,0.261 0.4902,0.4652 0.8259,0.615 0.3338,0.1476 0.682,0.2224 1.0428,0.2224 0.5298,0 0.9886,-0.1453 1.3723,-0.4335 0.3859,-0.2882 0.6758,-0.6922 0.8718,-1.2164 0.1543,-0.4153 0.2316,-0.9918 0.2316,-1.7271l0 -3.0934c0,-0.7535 -0.1585,-1.2935 -0.4776,-1.6227 -0.2628,-0.2745 -0.5966,-0.4447 -0.9949,-0.5106l0 -0.2065 2.8406 0 0 0.2065c-0.2732,0.0795 -0.4922,0.1998 -0.657,0.3586 -0.1647,0.1588 -0.2836,0.3699 -0.3566,0.6309 -0.073,0.2633 -0.1105,0.5901 -0.1105,0.9849l0 3.2454c0,0.5402 -0.0292,0.9736 -0.0918,1.3027 -0.0605,0.3268 -0.1605,0.6264 -0.2981,0.8965 -0.1835,0.3563 -0.4193,0.6559 -0.707,0.9055 -0.2858,0.2475 -0.6173,0.4358 -0.9928,0.5651 -0.3734,0.1271 -0.7779,0.1929 -1.2096,0.1929 -0.4609,0 -0.8822,-0.0726 -1.268,-0.2157 -0.3838,-0.1452 -0.7218,-0.354 -1.0116,-0.6263 -0.2878,-0.2724 -0.5193,-0.6014 -0.6903,-0.9872 -0.2274,-0.5175 -0.3421,-1.2642 -0.3421,-2.2332l0 -3.1977c0,-0.3813 -0.0187,-0.6672 -0.0584,-0.8556 -0.0376,-0.1883 -0.1147,-0.3518 -0.2273,-0.4879 -0.2044,-0.2497 -0.5068,-0.4085 -0.9051,-0.4789l0 -0.2065 3.8854 0zm4.094 0.2519l-1.074 0c0.1584,0.0977 0.2856,0.1998 0.3816,0.3064 0.096,0.1067 0.1835,0.2474 0.2649,0.4267 0.1105,-0.2883 0.2523,-0.5333 0.4275,-0.7331zm-7.2579 0l0.3712 0.2791c0.1272,0.0885 0.2127,0.1725 0.2566,0.2497 0.0458,0.0772 0.0687,0.1839 0.0687,0.3155 0,0.1248 0.0021,0.1975 0.0063,0.2202l0 0.1135 0 3.7174c0,0.3132 0.0229,0.6967 0.073,1.1484 0.0939,0.8602 0.4046,1.5387 0.9323,2.0357 0.5255,0.497 1.1993,0.7467 2.0189,0.7512 -0.8279,-0.1906 -1.4495,-0.5901 -1.8645,-1.1961 -0.192,-0.2768 -0.3254,-0.5923 -0.4005,-0.9486 -0.075,-0.3563 -0.1126,-0.8239 -0.1126,-1.4003l0 -4.1078 0 -0.1135 0 -0.2202c0.0042,-0.1316 0.0271,-0.236 0.0709,-0.3109 0.0416,-0.0772 0.1292,-0.1611 0.2585,-0.2542l0.3734 -0.2791 -2.0522 0zm17.2292 9.0372l-0.1835 0 -6.7094 -7.773 0.0062 4.4618c0,0.497 0.0272,0.8942 0.0794,1.1961 0.0542,0.3019 0.1397,0.5606 0.2565,0.7784 0.2773,0.488 0.7278,0.7921 1.3514,0.9169l0 0.2065 -3.1951 0 0 -0.2065c0.5484,-0.2201 0.9155,-0.64 1.099,-1.2573 0.0647,-0.202 0.1105,-0.4266 0.1335,-0.674 0.025,-0.2451 0.0375,-0.5583 0.0375,-0.935l0 -4.7591c-0.317,-0.3541 -0.5631,-0.5991 -0.7341,-0.7308 -0.171,-0.1339 -0.3649,-0.236 -0.5861,-0.3064l0 -0.2065 2.3714 0c0.0979,0.1861 0.2044,0.3541 0.317,0.5061 0.025,0.0204 0.0688,0.0749 0.1314,0.1589 0.0625,0.0839 0.1043,0.1384 0.1251,0.1656 0.0689,0.084 0.1043,0.1271 0.1043,0.1271l5.164 6.0028 0 -4.573c0,-0.4652 -0.0542,-0.8488 -0.1627,-1.1484 -0.1084,-0.2973 -0.2773,-0.531 -0.5067,-0.6944 -0.2316,-0.1635 -0.536,-0.2769 -0.9135,-0.3382l0 -0.2065 2.9137 0 0 0.2065c-0.436,0.1271 -0.728,0.3404 -0.8761,0.6378 -0.1481,0.2973 -0.2231,0.8102 -0.2231,1.5432l0 6.9016zm-0.2315 -0.4199l0 -1.044 -5.7312 -6.6609c-0.2607,-0.2973 -0.4714,-0.6014 -0.6299,-0.9124l-1.2471 0c0.2982,0.1952 0.6006,0.4744 0.9114,0.8374l6.6969 7.7798zm-0.7467 -8.6173c0.1961,0.1067 0.3442,0.2157 0.4463,0.3268 0.1023,0.1113 0.2023,0.2724 0.3004,0.4857 0.0729,-0.2133 0.1334,-0.3654 0.1835,-0.4584 0.0479,-0.093 0.1293,-0.211 0.244,-0.3541l-1.1742 0zm-5.5039 8.4856c-0.1647,-0.1952 -0.2878,-0.3654 -0.3712,-0.5106 -0.0834,-0.1429 -0.1605,-0.3222 -0.2336,-0.5333 -0.0792,0.2247 -0.1626,0.4131 -0.2522,0.5606 -0.0898,0.1498 -0.219,0.3086 -0.39,0.4834l1.2471 0zm8.2236 0.3382l0 -0.2065c0.4401,-0.0795 0.7591,-0.2633 0.9594,-0.5515 0.1544,-0.2134 0.2316,-0.6355 0.2316,-1.2709l0 -5.0178c0,-0.404 -0.0188,-0.6968 -0.0606,-0.8783 -0.0395,-0.1816 -0.1168,-0.3382 -0.2252,-0.4652 -0.2044,-0.2497 -0.5048,-0.4085 -0.9052,-0.4789l0 -0.2065 3.8062 0 0 0.2065c-0.4401,0.0795 -0.7613,0.2633 -0.9657,0.5515 -0.0813,0.1157 -0.1397,0.27 -0.1773,0.4629 -0.0354,0.1929 -0.0542,0.4607 -0.0542,0.808l0 5.0178c0,0.3767 0.0209,0.6626 0.0646,0.8556 0.0417,0.1929 0.1189,0.3563 0.2294,0.488 0.2023,0.2496 0.5048,0.4085 0.9031,0.4788l0 0.2065 -3.8062 0zm0.8551 -0.3382l1.7853 0 -0.2378 -0.1928c-0.1397,-0.1113 -0.2273,-0.1998 -0.2669,-0.2678 -0.0376,-0.0659 -0.0584,-0.1657 -0.0584,-0.2973 0,-0.0726 0,-0.1203 -0.0021,-0.1429 -0.002,-0.0249 -0.0042,-0.05 -0.0042,-0.0772l0 -0.1135 0 -6.2161 0 -0.1135c0,-0.0273 0.0021,-0.0522 0.0042,-0.0795 0.0021,-0.0273 0.0021,-0.0726 0.0021,-0.1407 0,-0.1316 0.0208,-0.2315 0.0584,-0.2973 0.0396,-0.0681 0.1272,-0.1566 0.2669,-0.2679l0.3462 -0.2791 -2.0022 0 0.3483 0.2791c0.1419,0.1113 0.2316,0.1975 0.267,0.261 0.0376,0.0613 0.0563,0.1634 0.0563,0.3041 0.0042,0.0772 0.0062,0.1498 0.0062,0.2202l0 0.1135 0 6.2161 0 0.1135c0,0.0703 -0.002,0.1429 -0.0062,0.2201 0,0.1362 -0.0187,0.2383 -0.0563,0.3019 -0.0354,0.0635 -0.1251,0.152 -0.267,0.2633l-0.2398 0.1928zm8.5844 -1.4366l1.9125 -4.7954c0.1627,-0.4107 0.2439,-0.7557 0.2439,-1.0303 0,-0.3404 -0.1084,-0.615 -0.3274,-0.8193 -0.2168,-0.2065 -0.5484,-0.3563 -0.9927,-0.4494l0 -0.2065 3.1722 0 0 0.1998c-0.2649,0.1021 -0.4985,0.2451 -0.7028,0.4289 -0.2044,0.1838 -0.3941,0.4266 -0.5713,0.7307 -0.1773,0.3041 -0.3734,0.7171 -0.5903,1.2391l-2.7113 6.6973 -0.1356 0 -2.9574 -7.2351c-0.269,-0.674 -0.5005,-1.1279 -0.6965,-1.3662 -0.196,-0.236 -0.4714,-0.3995 -0.8301,-0.488l0 -0.2065 3.971 0 0 0.2065 -0.1335 0.0068c-0.3921,0.034 -0.6674,0.1112 -0.8258,0.2246 -0.1586,0.1158 -0.2378,0.2996 -0.2378,0.5515 0,0.1952 0.0521,0.4244 0.1584,0.6854l2.2547 5.626zm-0.3004 0.7444l-2.5049 -6.2774c-0.1168,-0.2927 -0.1772,-0.5469 -0.1772,-0.7648 0,-0.1316 0.0271,-0.2519 0.0792,-0.3608 0.0542,-0.1089 0.1564,-0.2338 0.3066,-0.3767l-1.8708 0c0.2545,0.2179 0.463,0.4879 0.6299,0.8125 0.0938,0.1861 0.173,0.3495 0.2378,0.4902 0.0667,0.1429 0.1251,0.2814 0.1772,0.4199l2.7863 6.8879 0.3359 -0.8307zm1.9375 -7.7934c0.244,0.1657 0.4193,0.3246 0.5235,0.4789 0.1022,0.1566 0.1627,0.3518 0.1794,0.5856 0.1105,-0.2475 0.2231,-0.4494 0.3358,-0.606 0.1147,-0.1543 0.2649,-0.3064 0.4526,-0.4585l-1.4912 0zm9.7711 -0.2519l0.2315 2.4738 -0.194 0c-0.2127,-0.7626 -0.5277,-1.3254 -0.9448,-1.6863 -0.417,-0.3608 -0.9594,-0.5424 -1.6288,-0.5424l-0.3421 0c-0.5338,0 -0.9114,0.1135 -1.1324,0.3359 -0.2231,0.2246 -0.3338,0.5991 -0.3338,1.1211l0 2.2604 0.8135 0c0.6152,0 1.0636,-0.1043 1.3431,-0.3155 0.2815,-0.211 0.4755,-0.59 0.5818,-1.1415l0.1836 0 0 3.3657 -0.1836 0c-0.0813,-0.4425 -0.1918,-0.7807 -0.3274,-1.0145 -0.1376,-0.2315 -0.3274,-0.3971 -0.5756,-0.4924 -0.2461,-0.0954 -0.5797,-0.143 -1.0031,-0.143l-0.8322 0 0 2.88c0,0.438 0.0376,0.7739 0.1127,1.0077 0.075,0.2315 0.2085,0.3949 0.3983,0.488 0.1898,0.093 0.4547,0.1406 0.7968,0.1406l0.5631 0c0.5527,0 1.0782,-0.1861 1.5746,-0.5605 0.5506,-0.4153 1.0908,-0.9963 1.6206,-1.7407l0.0479 -0.0726 0.2149 0 -0.7216 2.712 -7.2163 0 0 -0.2065c0.4401,-0.0795 0.7591,-0.2633 0.9594,-0.5515 0.1544,-0.2134 0.2316,-0.6355 0.2316,-1.2709l0 -5.0178c0,-0.404 -0.0189,-0.6968 -0.0606,-0.8783 -0.0396,-0.1816 -0.1168,-0.3382 -0.2253,-0.4652 -0.2044,-0.2497 -0.5048,-0.4085 -0.9052,-0.4789l0 -0.2065 6.9535 0zm-0.4589 0.2451l-0.878 0c0.2273,0.1021 0.4108,0.2134 0.5484,0.3336 0.1398,0.1203 0.2941,0.3041 0.4652,0.5515l-0.1356 -0.8851zm-1.4036 3.4315c-0.1147,0.1157 -0.2044,0.1952 -0.2669,0.236 -0.0626,0.0432 -0.194,0.1044 -0.3942,0.1906 0.2294,0.0704 0.4484,0.2134 0.6611,0.4312l0 -0.8579zm1.6914 5.0609l0.3421 -1.2368c-0.146,0.177 -0.2919,0.3381 -0.4359,0.4811 -0.1461,0.1453 -0.3087,0.2814 -0.4902,0.4085 -0.1815,0.1294 -0.3649,0.2451 -0.5527,0.3472l1.1367 0zm-5.9273 0l1.7853 0 -0.2378 -0.1928c-0.1397,-0.1113 -0.2273,-0.1998 -0.2669,-0.2678 -0.0376,-0.0659 -0.0584,-0.1657 -0.0584,-0.2973 0,-0.0726 0,-0.1203 -0.002,-0.1429 -0.002,-0.0249 -0.0042,-0.05 -0.0042,-0.0772l0 -0.1135 0 -6.2161 0 -0.1135c0,-0.0273 0.0021,-0.0522 0.0042,-0.0795 0.002,-0.0273 0.002,-0.0726 0.002,-0.1407 0,-0.1316 0.0209,-0.236 0.0646,-0.3086 0.0417,-0.0726 0.1294,-0.1588 0.2607,-0.2565l0.3463 -0.2791 -2.0022 0 0.3483 0.2791c0.1376,0.1113 0.2252,0.1998 0.2649,0.2679 0.0396,0.0658 0.0584,0.1657 0.0584,0.2973 0.0042,0.0772 0.0062,0.1498 0.0062,0.2202l0 0.1135 0 6.2161 0 0.1135c0,0.0703 -0.002,0.1429 -0.0062,0.2201 0,0.1362 -0.0188,0.2383 -0.0563,0.3019 -0.0355,0.0635 -0.1252,0.152 -0.267,0.2633l-0.2399 0.1928zm10.0089 -4.4232l0 2.7325c0,0.3813 0.021,0.6649 0.0646,0.851 0.0418,0.1861 0.1252,0.354 0.2483,0.4993 0.2149,0.2451 0.536,0.4018 0.9635,0.4721l0 0.2065 -3.8855 0 0 -0.2065c0.4401,-0.0795 0.7591,-0.2633 0.9594,-0.5515 0.1543,-0.2134 0.2316,-0.6355 0.2316,-1.2709l0 -5.0178c0,-0.404 -0.0189,-0.6968 -0.0606,-0.8783 -0.0396,-0.1816 -0.1168,-0.3382 -0.2253,-0.4652 -0.196,-0.2361 -0.4985,-0.3949 -0.9052,-0.4789l0 -0.2065c0.0563,0.0045 0.1085,0.0068 0.1523,0.0068l0.5381 0.034c0.2168,0.0114 0.4672,0.0182 0.7528,0.0182 0.4506,0 0.8614,-0.0182 1.2263,-0.059l0.8572 -0.0794c0.2669,-0.0273 0.5318,-0.0408 0.7925,-0.0408 0.4818,0 0.9114,0.0544 1.291,0.1611 0.3775,0.1044 0.6988,0.2587 0.9594,0.4585 0.2607,0.1997 0.4609,0.4448 0.6048,0.733 0.1418,0.2905 0.2127,0.615 0.2127,0.9759 0,0.5968 -0.1878,1.0644 -0.5652,1.398 -0.3775,0.3359 -0.9343,0.5311 -1.6705,0.5901 0.4566,0.1952 0.8425,0.4607 1.1575,0.8011 0.3149,0.3382 0.6924,0.892 1.1282,1.659 0.4922,0.8579 0.8802,1.457 1.166,1.7952 0.2857,0.3359 0.6006,0.5764 0.9467,0.7171l0 0.1861c-0.4442,-0.0091 -0.8217,-0.0522 -1.1324,-0.1339 -0.3128,-0.0795 -0.6236,-0.2202 -0.9323,-0.4244 -0.3879,-0.2609 -0.7509,-0.615 -1.0929,-1.0575 -0.3421,-0.4426 -0.6423,-0.9509 -0.8989,-1.5229l-0.3233 -0.7376c-0.1564,-0.3449 -0.292,-0.5968 -0.4109,-0.7535 -0.1168,-0.1588 -0.2585,-0.2656 -0.4212,-0.3245 -0.1627,-0.0567 -0.3837,-0.0863 -0.6654,-0.0863l-1.0637 0zm0 -0.2655l1.0949 0c0.6299,0 1.0845,-0.0772 1.362,-0.2315 0.2481,-0.1385 0.4421,-0.3518 0.584,-0.6423 0.1397,-0.2905 0.2106,-0.6241 0.2106,-1.0008 0,-0.3904 -0.0834,-0.7399 -0.2483,-1.0508 -0.1647,-0.3109 -0.394,-0.5515 -0.6902,-0.7218 -0.2962,-0.1702 -0.632,-0.2564 -1.0116,-0.2564 -0.561,0 -0.9406,0.1906 -1.1367,0.5719 -0.1105,0.2179 -0.1648,0.5583 -0.1648,1.0259l0 2.3058zm2.3839 0.0272c0.2732,-0.0658 0.5214,-0.1611 0.7487,-0.2859 0.2253,-0.1248 0.4109,-0.2656 0.559,-0.4267 0.146,-0.1588 0.2585,-0.3404 0.3377,-0.5446 0.0794,-0.2043 0.1189,-0.4153 0.1189,-0.6378 0,-0.4834 -0.1584,-0.9055 -0.4755,-1.2641 -0.3171,-0.3586 -0.7383,-0.5878 -1.2597,-0.69 0.2336,0.1362 0.4276,0.2996 0.5881,0.4902 0.1586,0.1907 0.2775,0.4085 0.3587,0.6491 0.0835,0.2405 0.1231,0.5016 0.1231,0.7807 0,0.4834 -0.0875,0.8783 -0.2627,1.1869 -0.1752,0.3086 -0.4547,0.556 -0.8364,0.7421zm3.8542 5.0066c-0.2147,-0.1294 -0.39,-0.2451 -0.5255,-0.3518 -0.1334,-0.1067 -0.2899,-0.2565 -0.4692,-0.4471 -0.2127,-0.2474 -0.3775,-0.4629 -0.4985,-0.6445 -0.121,-0.1816 -0.3191,-0.5197 -0.5966,-1.0167 -0.2607,-0.4743 -0.4943,-0.8579 -0.7049,-1.1507 -0.2106,-0.2927 -0.4212,-0.5265 -0.6319,-0.7035 -0.2127,-0.1794 -0.4463,-0.3246 -0.7028,-0.4403 0.1627,0.1816 0.2962,0.3608 0.4025,0.5401 0.0584,0.0954 0.1586,0.3019 0.3067,0.6173 0.0437,0.093 0.0875,0.1838 0.1313,0.2723 0.0417,0.0885 0.0834,0.1816 0.1252,0.2791 0.4359,0.926 0.903,1.6295 1.4057,2.1107 0.5005,0.4811 1.0866,0.792 1.7581,0.935zm-7.992 -0.345l1.7853 0 -0.2377 -0.1928c-0.1398,-0.1113 -0.2274,-0.1998 -0.2669,-0.2678 -0.0376,-0.0659 -0.0584,-0.1657 -0.0584,-0.2973 0,-0.0726 0,-0.1203 -0.0021,-0.1429 -0.002,-0.0249 -0.0042,-0.05 -0.0042,-0.0772l0 -0.1135 0 -6.2161 0 -0.1135c0,-0.0273 0.0021,-0.0522 0.0042,-0.0795 0.0021,-0.0273 0.0021,-0.0726 0.0021,-0.1407 0,-0.1225 0.0187,-0.2179 0.0521,-0.286 0.0354,-0.0658 0.1105,-0.1475 0.2294,-0.2451l0.0438 -0.0341 0.342 -0.2859 -0.2211 0.0136c-0.3712,0.0273 -0.705,0.0408 -1.0011,0.0408 -0.1835,0 -0.4338,-0.0067 -0.7529,-0.0204l0.3254 0.2519c0.1334,0.0977 0.221,0.1839 0.2627,0.2565 0.0397,0.0726 0.0606,0.177 0.0606,0.3086 0.0042,0.0772 0.0062,0.1498 0.0062,0.2202l0 0.1135 0 6.2161 0 0.1135c0,0.0703 -0.002,0.1429 -0.0062,0.2201 0,0.1362 -0.0187,0.2383 -0.0563,0.3019 -0.0355,0.0635 -0.1252,0.152 -0.267,0.2633l-0.2399 0.1928zm13.8777 -8.531l0.3546 2.2128 -0.2086 0c-0.1105,-0.3971 -0.217,-0.7126 -0.3233,-0.9441 -0.1064,-0.2292 -0.2253,-0.4222 -0.3546,-0.5787 -0.2086,-0.2519 -0.4567,-0.4494 -0.7487,-0.5901 -0.292,-0.1429 -0.5965,-0.2134 -0.9135,-0.2134 -0.4484,0 -0.8155,0.1317 -1.0991,0.3949 -0.2857,0.2655 -0.4275,0.6037 -0.4275,1.0212 0,0.4562 0.1834,0.8352 0.5547,1.137 0.1919,0.1498 0.3962,0.2837 0.6152,0.4017 0.2169,0.1181 0.559,0.2838 1.0219,0.4948 0.3191,0.1384 0.5881,0.2633 0.8072,0.3744 0.2211,0.1089 0.3963,0.2088 0.5317,0.2973 0.1335,0.0885 0.2691,0.1906 0.4026,0.3063 0.5673,0.497 0.8509,1.1462 0.8509,1.9495 0,0.5265 -0.1335,1.0031 -0.3984,1.4275 -0.2649,0.4266 -0.6319,0.7603 -1.099,1.0008 -0.4693,0.2428 -0.9887,0.3631 -1.558,0.3631 -0.3963,0 -0.8531,-0.0636 -1.3703,-0.1929 -0.3045,-0.0794 -0.7049,-0.2224 -1.2033,-0.4244l-0.171 -0.068 -0.1836 -2.5192 0.1836 0c0.1794,0.6786 0.4692,1.2823 0.8676,1.8156 0.5255,0.6944 1.1512,1.044 1.8771,1.044 0.3691,0 0.6987,-0.0772 0.9864,-0.2292 0.2878,-0.1543 0.511,-0.3654 0.6758,-0.6331 0.1627,-0.2679 0.244,-0.5742 0.244,-0.9192 0,-0.3063 -0.0646,-0.5832 -0.1898,-0.8283 -0.1271,-0.2474 -0.3315,-0.4789 -0.6173,-0.699 -0.2857,-0.2201 -0.6757,-0.4448 -1.1721,-0.6741 -0.7216,-0.3426 -1.1596,-0.5582 -1.3139,-0.6513 -0.2982,-0.1816 -0.5444,-0.379 -0.7404,-0.5924 -0.196,-0.2134 -0.34,-0.4425 -0.4338,-0.6922 -0.0938,-0.2474 -0.1398,-0.5129 -0.1398,-0.7966 0,-0.4403 0.1064,-0.8397 0.3212,-1.2051 0.2126,-0.3631 0.5067,-0.649 0.878,-0.8579 0.3733,-0.2065 0.7862,-0.3108 1.2389,-0.3108 0.2836,0 0.6027,0.0499 0.953,0.152l0.3671 0.1067c0.2712,0.0794 0.5631,0.1202 0.8717,0.1202l0.0626 0zm-0.4651 8.3109c0.6716,-0.5288 1.0074,-1.162 1.0074,-1.9018 0,-0.2927 -0.0543,-0.5764 -0.1669,-0.8533 -0.1126,-0.2791 -0.2711,-0.5151 -0.4796,-0.7081 -0.3024,-0.2973 -0.8322,-0.6196 -1.5955,-0.9645 -0.6299,-0.2927 -1.0408,-0.4902 -1.2305,-0.5924 -0.1898,-0.1021 -0.3816,-0.2382 -0.5777,-0.413 -0.4066,-0.354 -0.611,-0.8011 -0.611,-1.3412 0,-0.1611 0.0167,-0.3064 0.05,-0.4358 0.0313,-0.1316 0.0814,-0.2587 0.1461,-0.3789 0.0646,-0.1226 0.1731,-0.286 0.3233,-0.4903 -0.5819,0.4585 -0.8739,1.0259 -0.8739,1.709 0,0.6559 0.2357,1.1755 0.7091,1.5569 0.2483,0.2042 0.534,0.3858 0.8551,0.5446 0.0417,0.0227 0.3545,0.1725 0.9406,0.4517 0.7091,0.3336 1.1992,0.6355 1.4683,0.9055 0.4275,0.4289 0.6402,0.9373 0.6402,1.5229 0,0.2837 -0.0479,0.5333 -0.1439,0.7535 -0.096,0.2201 -0.2482,0.4312 -0.4609,0.6355zm-4.0753 -0.2587c0.269,0.168 0.6111,0.329 1.0261,0.4857 -0.2732,-0.2678 -0.4797,-0.4857 -0.6194,-0.6604 -0.1419,-0.1725 -0.3004,-0.4153 -0.4797,-0.7308l0.073 0.9055zm6.1901 0.817l0 -0.2065c0.4401,-0.0795 0.7591,-0.2633 0.9594,-0.5515 0.1544,-0.2134 0.2316,-0.6355 0.2316,-1.2709l0 -5.0178c0,-0.404 -0.0188,-0.6968 -0.0606,-0.8783 -0.0395,-0.1816 -0.1168,-0.3382 -0.2252,-0.4652 -0.2044,-0.2497 -0.5048,-0.4085 -0.9052,-0.4789l0 -0.2065 3.8062 0 0 0.2065c-0.4401,0.0795 -0.7613,0.2633 -0.9657,0.5515 -0.0813,0.1157 -0.1397,0.27 -0.1773,0.4629 -0.0354,0.1929 -0.0542,0.4607 -0.0542,0.808l0 5.0178c0,0.3767 0.0209,0.6626 0.0646,0.8556 0.0417,0.1929 0.1189,0.3563 0.2294,0.488 0.2023,0.2496 0.5048,0.4085 0.9031,0.4788l0 0.2065 -3.8062 0zm0.8551 -0.3382l1.7853 0 -0.2378 -0.1928c-0.1397,-0.1113 -0.2273,-0.1998 -0.2669,-0.2678 -0.0376,-0.0659 -0.0584,-0.1657 -0.0584,-0.2973 0,-0.0726 0,-0.1203 -0.0021,-0.1429 -0.002,-0.0249 -0.0042,-0.05 -0.0042,-0.0772l0 -0.1135 0 -6.2161 0 -0.1135c0,-0.0273 0.0021,-0.0522 0.0042,-0.0795 0.0021,-0.0273 0.0021,-0.0726 0.0021,-0.1407 0,-0.1316 0.0209,-0.2315 0.0584,-0.2973 0.0396,-0.0681 0.1272,-0.1566 0.2669,-0.2679l0.3462 -0.2791 -2.0022 0 0.3484 0.2791c0.1418,0.1113 0.2315,0.1975 0.2669,0.261 0.0376,0.0613 0.0564,0.1634 0.0564,0.3041 0.0041,0.0772 0.0061,0.1498 0.0061,0.2202l0 0.1135 0 6.2161 0 0.1135c0,0.0703 -0.002,0.1429 -0.0061,0.2201 0,0.1362 -0.0188,0.2383 -0.0564,0.3019 -0.0354,0.0635 -0.1251,0.152 -0.2669,0.2633l-0.2399 0.1928zm3.6227 0.3382l0.0187 -0.2065c0.4401,-0.0795 0.7591,-0.2633 0.9594,-0.5515 0.1544,-0.2134 0.2316,-0.6355 0.2316,-1.2709l0 -5.0178c0,-0.3813 -0.0187,-0.6672 -0.0584,-0.8556 -0.0375,-0.1883 -0.1147,-0.3518 -0.2273,-0.4879 -0.2044,-0.2497 -0.5069,-0.4085 -0.9052,-0.4789l0 -0.2065c0.1544,0.0091 0.2336,0.0137 0.2378,0.0137l0.7154 0.0385c0.2316,0.0136 0.4797,0.0204 0.7446,0.0204 0.4776,0 0.9948,-0.0273 1.5538,-0.0794 0.5173,-0.0432 0.8989,-0.0659 1.147,-0.0659 0.6529,0 1.243,0.1089 1.7728,0.3291 0.5297,0.2178 0.9886,0.5333 1.3786,0.9396 0.3879,0.4085 0.6883,0.8942 0.9009,1.457 0.2106,0.5628 0.3171,1.1801 0.3171,1.8542 0,0.6786 -0.1085,1.305 -0.3274,1.8791 -0.2169,0.5742 -0.5297,1.0644 -0.9343,1.4684 -0.4047,0.4063 -0.8885,0.7171 -1.4474,0.935 -0.561,0.2179 -1.1847,0.3268 -1.8729,0.3268 -0.2524,0 -0.657,-0.0273 -1.2096,-0.0817 -0.3922,-0.0386 -0.7717,-0.059 -1.143,-0.059 -0.2608,0 -0.5507,0.0091 -0.8676,0.0273l-0.8322 0.0658c-0.0438,0 -0.0959,0.0023 -0.1522,0.0068zm2.6404 -7.4462l-0.0125 5.1381c0,0.5719 0.0459,0.9872 0.1398,1.2436 0.0897,0.2405 0.2419,0.4244 0.4567,0.556 0.2128,0.1294 0.4714,0.1952 0.7717,0.1952 0.4692,0 0.9009,-0.1044 1.2951,-0.3155 0.3963,-0.2111 0.7403,-0.5107 1.0365,-0.9033 0.2941,-0.3926 0.5194,-0.8579 0.6758,-1.3934 0.1543,-0.5356 0.2315,-1.1121 0.2315,-1.7293 0,-0.8102 -0.1376,-1.5388 -0.413,-2.181 -0.2752,-0.6423 -0.6569,-1.1461 -1.1491,-1.5115 -0.4902,-0.3654 -1.0366,-0.5492 -1.6394,-0.5492 -0.4775,0 -0.8279,0.1157 -1.0553,0.3495 -0.2252,0.2315 -0.3378,0.5991 -0.3378,1.1007zm-1.7665 7.108c0.3546,-0.0408 0.6736,-0.0613 0.9594,-0.0613 0.2857,0 0.561,0.0159 0.8259,0.0477l-0.2398 -0.1793c-0.121,-0.0885 -0.2065,-0.1747 -0.2523,-0.2542 -0.048,-0.0795 -0.0709,-0.1838 -0.0709,-0.3109 -0.0042,-0.0772 -0.0063,-0.1498 -0.0063,-0.2201l0 -0.1135 0 -6.2161 0 -0.1135c0,-0.0704 0.0021,-0.143 0.0063,-0.2202 0,-0.1316 0.0188,-0.2315 0.0584,-0.2973 0.0376,-0.0681 0.1272,-0.1566 0.2649,-0.2679l0.3253 -0.2586c-0.3587,0.0362 -0.6695,0.0544 -0.9301,0.0544 -0.244,0 -0.5485,-0.0159 -0.9156,-0.0477l-0.1105 -0.0067 0.3233 0.2586c0.1314,0.0977 0.2169,0.1839 0.2607,0.2565 0.0417,0.0726 0.0647,0.177 0.0647,0.3086 0,0.0454 0,0.084 0.002,0.1203 0.0021,0.0363 0.0041,0.0681 0.0041,0.0999l0 0.1135 0 6.2161 0 0.1135c0,0.0272 -0.002,0.0567 -0.0041,0.093 -0.002,0.0363 -0.002,0.0772 -0.002,0.1271 0,0.1362 -0.0188,0.2383 -0.0563,0.3019 -0.0355,0.0635 -0.1252,0.152 -0.2691,0.2633l-0.2378 0.1928zm4.1128 0.0318c0.4672,-0.1202 0.8718,-0.2859 1.2097,-0.497 0.3377,-0.2133 0.6548,-0.4969 0.953,-0.851 0.6716,-0.8261 1.0074,-1.8019 1.0074,-2.9321 0,-0.6786 -0.1168,-1.3095 -0.3546,-1.8906 -0.2356,-0.5787 -0.5755,-1.0734 -1.0156,-1.4774 -0.4422,-0.4062 -0.9531,-0.6967 -1.5308,-0.8692 0.2189,0.1158 0.4254,0.2451 0.6194,0.3904 0.1939,0.1429 0.3649,0.3019 0.513,0.4743 0.1481,0.1725 0.2775,0.3496 0.3879,0.5333 0.4693,0.7739 0.7028,1.6975 0.7028,2.7642 0,0.5674 -0.0646,1.1121 -0.196,1.6295 -0.1294,0.5197 -0.3171,0.9713 -0.561,1.3571 -0.2086,0.3314 -0.4485,0.6037 -0.7175,0.8147 -0.2711,0.2088 -0.611,0.3949 -1.0178,0.5538zm9.8962 -3.0501l-3.1451 0 -0.342 0.851c-0.1647,0.4153 -0.2461,0.758 -0.2461,1.0303 0,0.2292 0.048,0.4289 0.1439,0.5946 0.096,0.1657 0.2398,0.3042 0.4276,0.4108 0.1897,0.1089 0.44,0.1975 0.7487,0.2633l0 0.2065 -3.1701 0 0 -0.1997c0.3816,-0.1407 0.7112,-0.3904 0.9865,-0.7444 0.2752,-0.3541 0.5651,-0.9055 0.8697,-1.6568l2.7008 -6.6473 0.1586 0 2.9407 7.1875c0.0083,0.0045 0.0145,0.0159 0.0208,0.0363 0.0063,0.0204 0.0146,0.0408 0.025,0.0635 0.0083,0.0227 0.0209,0.0455 0.0334,0.0726l0.269 0.606c0.146,0.3223 0.3128,0.5674 0.5006,0.7308 0.1877,0.1634 0.4213,0.2791 0.7028,0.3449l0 0.2065 -3.898 0 0 -0.2065c0.3294,-0.0273 0.5651,-0.0681 0.7069,-0.1248 0.2941,-0.1203 0.4401,-0.329 0.4401,-0.6264 0,-0.1453 -0.0646,-0.3858 -0.194,-0.7171l-0.6799 -1.6816zm-0.1147 -0.2815l-1.4725 -3.6085 -1.4494 3.6085 2.9218 0zm-1.3452 -3.8944l2.3526 5.7645 0.0626 0.1453c0.1251,0.2973 0.1876,0.5151 0.1876,0.6513 0,0.1906 -0.1001,0.4017 -0.2981,0.6331l1.6122 0c-0.1836,-0.1861 -0.3421,-0.4017 -0.4755,-0.6422 -0.1356,-0.2428 -0.292,-0.5787 -0.4714,-1.0077l-2.6216 -6.4159 -0.3483 0.8715zm-2.1377 7.1942c-0.1398,-0.1815 -0.2357,-0.3449 -0.2941,-0.4902 -0.0564,-0.1429 -0.0855,-0.2996 -0.0855,-0.4675 0,-0.0749 0.002,-0.1362 0.0061,-0.1794 -0.125,0.2656 -0.2502,0.4789 -0.3733,0.6401 -0.121,0.1634 -0.2857,0.3267 -0.4943,0.4969l1.241 0zm7.6688 0.3382l0.0187 -0.2065c0.4401,-0.0795 0.7591,-0.2633 0.9594,-0.5515 0.1544,-0.2134 0.2316,-0.6355 0.2316,-1.2709l0 -5.0178c0,-0.3813 -0.0188,-0.6672 -0.0584,-0.8556 -0.0376,-0.1883 -0.1148,-0.3518 -0.2274,-0.4879 -0.2044,-0.2497 -0.5068,-0.4085 -0.9052,-0.4789l0 -0.2065c0.1544,0.0091 0.2336,0.0137 0.2378,0.0137l0.7155 0.0385c0.2315,0.0136 0.4796,0.0204 0.7445,0.0204 0.4776,0 0.9949,-0.0273 1.5538,-0.0794 0.5173,-0.0432 0.8989,-0.0659 1.147,-0.0659 0.6529,0 1.243,0.1089 1.7728,0.3291 0.5297,0.2178 0.9886,0.5333 1.3786,0.9396 0.3879,0.4085 0.6883,0.8942 0.901,1.457 0.2105,0.5628 0.317,1.1801 0.317,1.8542 0,0.6786 -0.1084,1.305 -0.3274,1.8791 -0.2169,0.5742 -0.5297,1.0644 -0.9343,1.4684 -0.4046,0.4063 -0.8885,0.7171 -1.4474,0.935 -0.561,0.2179 -1.1847,0.3268 -1.8729,0.3268 -0.2524,0 -0.657,-0.0273 -1.2096,-0.0817 -0.3922,-0.0386 -0.7717,-0.059 -1.143,-0.059 -0.2607,0 -0.5507,0.0091 -0.8676,0.0273l-0.8321 0.0658c-0.0439,0 -0.096,0.0023 -0.1523,0.0068zm2.6404 -7.4462l-0.0125 5.1381c0,0.5719 0.0459,0.9872 0.1398,1.2436 0.0897,0.2405 0.2419,0.4244 0.4566,0.556 0.2128,0.1294 0.4714,0.1952 0.7717,0.1952 0.4692,0 0.9009,-0.1044 1.2951,-0.3155 0.3963,-0.2111 0.7404,-0.5107 1.0365,-0.9033 0.2941,-0.3926 0.5194,-0.8579 0.6758,-1.3934 0.1543,-0.5356 0.2316,-1.1121 0.2316,-1.7293 0,-0.8102 -0.1377,-1.5388 -0.413,-2.181 -0.2753,-0.6423 -0.657,-1.1461 -1.1492,-1.5115 -0.4902,-0.3654 -1.0366,-0.5492 -1.6393,-0.5492 -0.4776,0 -0.828,0.1157 -1.0554,0.3495 -0.2252,0.2315 -0.3378,0.5991 -0.3378,1.1007zm-1.7665 7.108c0.3546,-0.0408 0.6736,-0.0613 0.9594,-0.0613 0.2858,0 0.561,0.0159 0.8259,0.0477l-0.2398 -0.1793c-0.1209,-0.0885 -0.2065,-0.1747 -0.2523,-0.2542 -0.0479,-0.0795 -0.0709,-0.1838 -0.0709,-0.3109 -0.0041,-0.0772 -0.0062,-0.1498 -0.0062,-0.2201l0 -0.1135 0 -6.2161 0 -0.1135c0,-0.0704 0.0021,-0.143 0.0062,-0.2202 0,-0.1316 0.0188,-0.2315 0.0584,-0.2973 0.0376,-0.0681 0.1272,-0.1566 0.2649,-0.2679l0.3253 -0.2586c-0.3586,0.0362 -0.6695,0.0544 -0.9301,0.0544 -0.244,0 -0.5484,-0.0159 -0.9156,-0.0477l-0.1105 -0.0067 0.3233 0.2586c0.1314,0.0977 0.217,0.1839 0.2607,0.2565 0.0418,0.0726 0.0647,0.177 0.0647,0.3086 0,0.0454 0,0.084 0.002,0.1203 0.0021,0.0363 0.0042,0.0681 0.0042,0.0999l0 0.1135 0 6.2161 0 0.1135c0,0.0272 -0.002,0.0567 -0.0042,0.093 -0.002,0.0363 -0.002,0.0772 -0.002,0.1271 0,0.1362 -0.0188,0.2383 -0.0563,0.3019 -0.0355,0.0635 -0.1252,0.152 -0.2691,0.2633l-0.2378 0.1928zm4.1128 0.0318c0.4672,-0.1202 0.8718,-0.2859 1.2097,-0.497 0.3377,-0.2133 0.6549,-0.4969 0.9531,-0.851 0.6715,-0.8261 1.0073,-1.8019 1.0073,-2.9321 0,-0.6786 -0.1168,-1.3095 -0.3546,-1.8906 -0.2356,-0.5787 -0.5755,-1.0734 -1.0156,-1.4774 -0.4422,-0.4062 -0.9531,-0.6967 -1.5308,-0.8692 0.219,0.1158 0.4254,0.2451 0.6194,0.3904 0.1939,0.1429 0.3649,0.3019 0.513,0.4743 0.1481,0.1725 0.2775,0.3496 0.3879,0.5333 0.4693,0.7739 0.7028,1.6975 0.7028,2.7642 0,0.5674 -0.0645,1.1121 -0.196,1.6295 -0.1294,0.5197 -0.3171,0.9713 -0.561,1.3571 -0.2086,0.3314 -0.4485,0.6037 -0.7175,0.8147 -0.2711,0.2088 -0.611,0.3949 -1.0178,0.5538z"/>
   <path class="fil0" d="M98.1343 0.2612l0.2315 2.4738 -0.1939 0c-0.2127,-0.7626 -0.5277,-1.3254 -0.9448,-1.6863 -0.4171,-0.3608 -0.9594,-0.5424 -1.6289,-0.5424l-0.342 0c-0.5339,0 -0.9114,0.1135 -1.1324,0.3359 -0.2232,0.2246 -0.3338,0.5991 -0.3338,1.1211l0 2.2604 0.8134 0c0.6152,0 1.0637,-0.1043 1.3432,-0.3155 0.2815,-0.211 0.4755,-0.59 0.5818,-1.1415l0.1836 0 0 3.3657 -0.1836 0c-0.0813,-0.4425 -0.1919,-0.7807 -0.3274,-1.0145 -0.1376,-0.2315 -0.3274,-0.3971 -0.5756,-0.4924 -0.2461,-0.0954 -0.5798,-0.143 -1.0031,-0.143l-0.8322 0 0 2.88c0,0.438 0.0376,0.7739 0.1126,1.0077 0.0751,0.2315 0.2086,0.3949 0.3984,0.488 0.1897,0.093 0.4547,0.1406 0.7967,0.1406l0.5631 0c0.5527,0 1.0783,-0.1861 1.5746,-0.5605 0.5506,-0.4153 1.0908,-0.9963 1.6206,-1.7407l0.0479 -0.0726 0.2149 0 -0.7217 2.712 -7.2162 0 0 -0.2065c0.4401,-0.0795 0.7591,-0.2633 0.9594,-0.5515 0.1544,-0.2134 0.2316,-0.6355 0.2316,-1.2709l0 -5.0178c0,-0.404 -0.0188,-0.6968 -0.0606,-0.8783 -0.0395,-0.1816 -0.1168,-0.3382 -0.2252,-0.4652 -0.2044,-0.2497 -0.5048,-0.4085 -0.9052,-0.4789l0 -0.2065 6.9534 0zm-0.4588 0.2451l-0.878 0c0.2273,0.1021 0.4108,0.2134 0.5484,0.3336 0.1398,0.1203 0.2941,0.3041 0.4651,0.5515l-0.1355 -0.8851zm-1.4036 3.4315c-0.1148,0.1157 -0.2044,0.1952 -0.2669,0.236 -0.0626,0.0432 -0.1941,0.1044 -0.3942,0.1906 0.2293,0.0704 0.4484,0.2134 0.6611,0.4312l0 -0.8579zm1.6914 5.0609l0.342 -1.2368c-0.146,0.177 -0.2919,0.3381 -0.4359,0.4811 -0.146,0.1453 -0.3086,0.2814 -0.4901,0.4085 -0.1815,0.1294 -0.365,0.2451 -0.5527,0.3472l1.1367 0zm-5.9273 0l1.7853 0 -0.2378 -0.1928c-0.1397,-0.1113 -0.2273,-0.1998 -0.2669,-0.2678 -0.0376,-0.0659 -0.0584,-0.1657 -0.0584,-0.2973 0,-0.0726 0,-0.1203 -0.0021,-0.1429 -0.002,-0.0249 -0.0042,-0.05 -0.0042,-0.0772l0 -0.1135 0 -6.2161 0 -0.1135c0,-0.0273 0.0021,-0.0522 0.0042,-0.0795 0.0021,-0.0273 0.0021,-0.0726 0.0021,-0.1407 0,-0.1316 0.0208,-0.236 0.0646,-0.3086 0.0416,-0.0726 0.1293,-0.1588 0.2607,-0.2565l0.3462 -0.2791 -2.0022 0 0.3483 0.2791c0.1377,0.1113 0.2253,0.1998 0.2649,0.2679 0.0397,0.0658 0.0584,0.1657 0.0584,0.2973 0.0042,0.0772 0.0062,0.1498 0.0062,0.2202l0 0.1135 0 6.2161 0 0.1135c0,0.0703 -0.002,0.1429 -0.0062,0.2201 0,0.1362 -0.0187,0.2383 -0.0563,0.3019 -0.0354,0.0635 -0.1251,0.152 -0.267,0.2633l-0.2398 0.1928z"/>
  </g>
  <path class="fil1" d="M12.2825 15.0052l0.1414 0.8115 -0.0832 0c-0.0441,-0.1457 -0.0866,-0.2613 -0.129,-0.3462 -0.0424,-0.0842 -0.0899,-0.1548 -0.1415,-0.2123 -0.0832,-0.0924 -0.1823,-0.1648 -0.2988,-0.2165 -0.1166,-0.0524 -0.238,-0.0782 -0.3646,-0.0782 -0.179,0 -0.3254,0.0483 -0.4386,0.1448 -0.1141,0.0974 -0.1706,0.2214 -0.1706,0.3746 0,0.1674 0.0732,0.3063 0.2213,0.417 0.0766,0.0549 0.1582,0.1041 0.2456,0.1473 0.0866,0.0433 0.223,0.1041 0.4079,0.1815 0.1273,0.0508 0.2347,0.0965 0.322,0.1373 0.0883,0.04 0.1582,0.0766 0.2123,0.1091 0.0533,0.0324 0.1073,0.0699 0.1606,0.1123 0.2264,0.1823 0.3396,0.4203 0.3396,0.715 0,0.1931 -0.0533,0.3679 -0.1589,0.5235 -0.1058,0.1565 -0.2522,0.2789 -0.4387,0.367 -0.1873,0.0891 -0.3946,0.1332 -0.6218,0.1332 -0.1581,0 -0.3404,-0.0233 -0.5468,-0.0707 -0.1215,-0.0291 -0.2814,-0.0816 -0.4803,-0.1556l-0.0682 -0.0249 -0.0733 -0.9239 0.0733 0c0.0715,0.2488 0.1873,0.4702 0.3462,0.6658 0.2098,0.2547 0.4595,0.3829 0.7491,0.3829 0.1474,0 0.2788,-0.0283 0.3938,-0.084 0.1148,-0.0566 0.2039,-0.1341 0.2696,-0.2323 0.0649,-0.0982 0.0974,-0.2105 0.0974,-0.337 0,-0.1124 -0.0258,-0.214 -0.0758,-0.3038 -0.0507,-0.0907 -0.1323,-0.1756 -0.2463,-0.2564 -0.1141,-0.0807 -0.2696,-0.1631 -0.4678,-0.2472 -0.2879,-0.1257 -0.4628,-0.2047 -0.5244,-0.2388 -0.1191,-0.0666 -0.2173,-0.139 -0.2955,-0.2173 -0.0782,-0.0782 -0.1357,-0.1623 -0.1731,-0.2538 -0.0375,-0.0907 -0.0558,-0.1881 -0.0558,-0.2922 0,-0.1614 0.0425,-0.3079 0.1282,-0.442 0.0849,-0.1332 0.2023,-0.238 0.3504,-0.3146 0.149,-0.0757 0.3138,-0.114 0.4944,-0.114 0.1132,0 0.2405,0.0183 0.3804,0.0557l0.1465 0.0392c0.1082,0.0291 0.2247,0.044 0.348,0.044l0.0249 0zm-5.1306 1.5748c0,0.2388 0.0266,0.4611 0.0799,0.665 0.0542,0.2039 0.1307,0.3779 0.2306,0.5218 0.0999,0.1441 0.2205,0.2539 0.3612,0.3306 0.1407,0.0757 0.2964,0.114 0.467,0.114 0.278,0 0.521,-0.1099 0.7291,-0.3313 0.1265,-0.1366 0.2247,-0.3155 0.2938,-0.5377 0.0691,-0.2222 0.1032,-0.477 0.1032,-0.7649 0,-0.2498 -0.0257,-0.4762 -0.079,-0.6775 -0.0525,-0.2015 -0.1282,-0.3729 -0.2264,-0.5144 -0.0991,-0.1415 -0.2173,-0.2505 -0.3562,-0.3271 -0.139,-0.0766 -0.2956,-0.114 -0.4695,-0.114 -0.1722,0 -0.3279,0.0383 -0.4669,0.1157 -0.139,0.0765 -0.258,0.1873 -0.357,0.3313 -0.0991,0.1439 -0.1756,0.3179 -0.2298,0.5219 -0.0533,0.2039 -0.0799,0.4262 -0.0799,0.6667zm-0.6151 0.0174c0,-0.2355 0.0458,-0.4611 0.1366,-0.6758 0.0915,-0.214 0.2181,-0.4029 0.3795,-0.5643 0.1615,-0.1615 0.3488,-0.2872 0.561,-0.3755 0.2123,-0.0882 0.4362,-0.1331 0.6717,-0.1331 0.3155,0 0.6068,0.079 0.874,0.2356 0.268,0.1564 0.4794,0.3695 0.6367,0.6375 0.1565,0.268 0.2356,0.5603 0.2356,0.8756 0,0.234 -0.0449,0.457 -0.1332,0.6693 -0.0891,0.2122 -0.2139,0.3995 -0.3771,0.5618 -0.1623,0.1631 -0.3487,0.2896 -0.5585,0.3795 -0.2098,0.0899 -0.4328,0.1357 -0.67,0.1357 -0.3205,0 -0.6151,-0.0782 -0.884,-0.2347 -0.2696,-0.1557 -0.4819,-0.3679 -0.6376,-0.6351 -0.1564,-0.2672 -0.2348,-0.5593 -0.2348,-0.8765zm-2.7742 -1.0703l-0.005 1.8844c0,0.2097 0.0183,0.3621 0.0558,0.4561 0.0358,0.0883 0.0965,0.1556 0.1823,0.2039 0.0849,0.0474 0.1881,0.0716 0.308,0.0716 0.1873,0 0.3595,-0.0383 0.5168,-0.1157 0.1581,-0.0774 0.2955,-0.1873 0.4137,-0.3313 0.1174,-0.144 0.2073,-0.3147 0.2696,-0.5111 0.0616,-0.1965 0.0924,-0.4079 0.0924,-0.6342 0,-0.2972 -0.055,-0.5643 -0.1648,-0.7999 -0.1098,-0.2356 -0.2622,-0.4203 -0.4587,-0.5544 -0.1956,-0.134 -0.4137,-0.2014 -0.6542,-0.2014 -0.1906,0 -0.3304,0.0424 -0.4211,0.1281 -0.0899,0.085 -0.1349,0.2197 -0.1349,0.4037zm-1.0537 2.7309l0.0075 -0.0757c0.1756,-0.0291 0.3029,-0.0966 0.3829,-0.2023 0.0615,-0.0783 0.0923,-0.2331 0.0923,-0.4661l0 -1.8403c0,-0.1398 -0.0075,-0.2447 -0.0234,-0.3138 -0.0149,-0.0691 -0.0457,-0.129 -0.0907,-0.179 -0.0816,-0.0915 -0.2023,-0.1498 -0.3613,-0.1756l0 -0.0757c0.0616,0.0034 0.0932,0.005 0.0949,0.005l0.2855 0.0142c0.0923,0.005 0.1913,0.0075 0.2971,0.0075 0.1906,0 0.3971,-0.0099 0.6201,-0.0291 0.2064,-0.0158 0.3587,-0.0242 0.4578,-0.0242 0.2605,0 0.4961,0.04 0.7075,0.1207 0.2114,0.08 0.3945,0.1956 0.5501,0.3446 0.1548,0.1499 0.2747,0.328 0.3596,0.5344 0.0841,0.2064 0.1265,0.4328 0.1265,0.68 0,0.2489 -0.0433,0.4786 -0.1307,0.6892 -0.0866,0.2105 -0.2114,0.3903 -0.3729,0.5385 -0.1615,0.149 -0.3545,0.263 -0.5777,0.343 -0.2238,0.0799 -0.4727,0.1198 -0.7474,0.1198 -0.1007,0 -0.2622,-0.0099 -0.4827,-0.0299 -0.1564,-0.0141 -0.308,-0.0217 -0.4561,-0.0217 -0.1041,0 -0.2198,0.0034 -0.3464,0.0099l-0.3321 0.0242c-0.0174,0 -0.0383,0.0008 -0.0607,0.0025z"/>
  <path class="fil2 str0" d="M17.6638 22.1298l4.6567 0 -0.4617 3.0197 -8.6508 0 1.9611 -12.8264 3.994 0 -1.4994 9.8068zm10.8626 -6.7871l-0.2727 1.7832 3.9629 0 -0.4533 2.965 -3.9629 0 -0.3117 2.0389 5.2412 0 -0.4617 3.0197 -9.1987 0 1.9611 -12.8264 9.0343 0 -0.4617 3.0197 -5.0769 0zm9.1728 0l-3.2323 0 0.4617 -3.0197 10.4587 0 -0.4617 3.0197 -3.2141 0 -1.4994 9.8068 -4.0123 0 1.4994 -9.8068zm16.0302 4.3453l1.9997 5.4615 -4.1736 0 -1.5438 -4.4742 -0.8428 0 -0.6841 4.4742 -3.994 0 1.9611 -12.8264 5.3879 0c2.8533,0 4.8257,1.0065 4.3445,4.154 -0.2451,1.6033 -1.0379,2.5821 -2.4549,3.2109zm8.1799 -4.3453l-0.2727 1.7832 3.9629 0 -0.4533 2.965 -3.9629 0 -0.3117 2.0389 5.2412 0 -0.4617 3.0197 -9.1988 0 1.9611 -12.8264 9.0344 0 -0.4617 3.0197 -5.0769 0zm5.2263 9.8068l1.9611 -12.8264 4.0123 0 -1.9611 12.8264 -4.0123 0zm15.0642 -5.4615l1.9997 5.4615 -4.1736 0 -1.5439 -4.4742 -0.8428 0 -0.6841 4.4742 -3.9939 0 1.9611 -12.8264 5.388 0c2.8533,0 4.8256,1.0065 4.3444,4.154 -0.2451,1.6033 -1.0379,2.5821 -2.4548,3.2109zm8.4022 5.6623c-4.0097,0 -5.8189,-2.5114 -5.2218,-6.4185l0.0614 -0.4018c0.2918,-1.9096 1.0964,-3.6759 2.6314,-4.898 1.2955,-1.0315 2.9148,-1.5098 4.5581,-1.5098 4.0002,0 5.8176,2.5197 5.2217,6.4185l-0.0614 0.4018c-0.2918,1.9095 -1.0964,3.6759 -2.6313,4.898 -1.2955,1.0315 -2.9148,1.5098 -4.5581,1.5098zm11.3225 0c-1.2272,0 -2.9858,-0.1315 -4.0652,-0.769l-0.1613 -0.0954 0.4631 -3.0286 0.322 0.1252c1.1467,0.4453 2.1909,0.6751 3.4277,0.6751 0.6865,0 1.6724,-0.074 1.8011,-0.9152 0.0265,-0.1735 0.0516,-0.384 -0.0949,-0.5114 -0.2068,-0.1799 -0.744,-0.29 -1.0058,-0.3441l-0.8835 -0.1822c-0.852,-0.164 -1.7506,-0.4594 -2.3042,-1.1724 -0.6397,-0.8238 -0.6257,-1.9589 -0.4757,-2.9398 0.4373,-2.8604 2.6544,-4.0703 5.4075,-4.0703 1.2493,0 2.5328,0.091 3.6628,0.6696l0.1778 0.0911 -0.458 2.9956 -0.3168 -0.1137c-1.0428,-0.3744 -2.0082,-0.5682 -3.1224,-0.5682 -0.607,0 -1.4553,0.0867 -1.5681,0.8239 -0.027,0.1763 -0.029,0.3392 0.1144,0.4621 0.209,0.179 0.6782,0.2836 0.9377,0.338l0.8864 0.1641c2.3923,0.4764 3.39,1.5695 3.0067,4.0761 -0.4697,3.0724 -2.8195,4.2894 -5.7514,4.2894zm-52.3919 -7.293l0.9739 0c1.0657,0 1.5314,-0.4654 1.6896,-1.4995 0.158,-1.0336 -0.1999,-1.3428 -1.2252,-1.3428l-1.0037 0 -0.4346 2.8424zm28.4705 0l0.9738 0c1.0657,0 1.5315,-0.4654 1.6896,-1.4995 0.158,-1.0336 -0.1999,-1.3428 -1.2252,-1.3428l-1.0037 0 -0.4345 2.8424zm13.0545 4.2368c1.7584,0 2.3137,-1.7585 2.5365,-3.2162l0.0949 -0.6208c0.1129,-0.7387 0.2351,-1.8965 -0.1176,-2.5901 -0.2802,-0.551 -0.8124,-0.6885 -1.3959,-0.6885 -1.7655,0 -2.3266,1.7254 -2.5518,3.198l-0.0949 0.621c-0.1142,0.7458 -0.2395,1.9325 0.1312,2.6286 0.2869,0.5389 0.8227,0.668 1.3976,0.668z"/>
  <path class="fil3" d="M13.5308 24.8723l8.0901 0 0.3769 -2.4654 -4.6568 0 1.4994 -9.8067 -3.4332 0 -1.8764 12.2721zm9.8615 0l8.6379 0 0.377 -2.4654 -5.2412 0 0.3964 -2.5932 3.9629 0 0.3686 -2.4106 -3.9629 0 0.3574 -2.3375 5.0769 0 0.3769 -2.4654 -8.4735 0 -1.8763 12.2721zm13.1304 0l3.4514 0 1.4994 -9.8067 3.2141 0 0.377 -2.4654 -9.898 0 -0.377 2.4654 3.2324 0 -1.4994 9.8067zm12.6873 -6.5378l0.5193 -3.3967 1.2418 0c1.2601,0 1.6751,0.5112 1.4992,1.6617 -0.176,1.1506 -0.7401,1.7349 -1.9636,1.7349l-1.2967 0zm-4.3964 6.5378l3.4332 0 0.6841 -4.4742 1.2784 0 1.5438 4.4742 3.5794 0 -1.9324 -5.2777 0.0113 -0.0731c1.362,-0.5478 2.2421,-1.4062 2.4989,-3.0863 0.4049,-2.648 -0.9659,-3.835 -4.0705,-3.835l-5.1499 0 -1.8764 12.2721zm11.9617 0l8.6379 0 0.377 -2.4654 -5.2412 0 0.3964 -2.5932 3.9629 0 0.3686 -2.4106 -3.9629 0 0.3575 -2.3375 5.0769 0 0.3769 -2.4654 -8.4735 0 -1.8763 12.2721zm10.6832 0l3.4515 0 1.8764 -12.2721 -3.4515 0 -1.8764 12.2721zm10.2219 -6.5378l0.5193 -3.3967 1.2418 0c1.2602,0 1.6751,0.5112 1.4992,1.6617 -0.1759,1.1506 -0.7401,1.7349 -1.9636,1.7349l-1.2967 0zm-4.3963 6.5378l3.4332 0 0.6842 -4.4742 1.2783 0 1.5438 4.4742 3.5794 0 -1.9324 -5.2777 0.0113 -0.0731c1.362,-0.5478 2.2421,-1.4062 2.4989,-3.0863 0.4049,-2.648 -0.9659,-3.835 -4.0704,-3.835l-5.15 0 -1.8763 12.2721zm17.7737 -2.301c-1.5705,0 -2.2077,-0.9679 -1.8028,-3.6158l0.0949 -0.621c0.3546,-2.3192 1.3102,-3.4332 2.8258,-3.4332 1.6071,0 2.1785,1.0409 1.7875,3.5976l-0.0949 0.6209c-0.3574,2.3375 -1.313,3.4515 -2.8105,3.4515zm-0.4556 2.5019c3.141,0 6.2481,-1.8079 6.9154,-6.1725l0.0614 -0.4018c0.6562,-4.2916 -1.6788,-6.0994 -4.9477,-6.0994 -3.141,0 -6.2481,1.8079 -6.9155,6.1725l-0.0614 0.4018c-0.6561,4.2916 1.6607,6.0994 4.9478,6.0994zm11.3225 0c3.1775,0 5.0754,-1.4243 5.4774,-4.0541 0.3797,-2.4836 -0.6759,-3.342 -2.7849,-3.7619l-0.8879 -0.1643c-1.044,-0.2192 -1.3702,-0.4748 -1.2724,-1.114 0.1089,-0.7123 0.7281,-1.0591 1.8421,-1.0591 1.3878,0 2.4023,0.2922 3.2161,0.5844l0.3769 -2.4654c-0.6774,-0.347 -1.5823,-0.6392 -3.5364,-0.6392 -3.1045,0 -4.7789,1.5157 -5.1336,3.8349 -0.3937,2.575 0.6621,3.4333 2.5603,3.7986l0.8852 0.1825c1.1507,0.2374 1.4276,0.4565 1.3188,1.1688 -0.1118,0.7305 -0.7056,1.1504 -2.0751,1.1504 -1.4245,0 -2.4938,-0.2921 -3.5281,-0.6939l-0.3825 2.5019c0.8039,0.4747 2.2075,0.7305 3.9242,0.7305z"/>
  <path class="fil2" d="M13.9899 24.478l7.2923 0 0.2564 -1.6768 -4.6568 0 1.4994 -9.8067 -2.6355 0 -1.7559 11.4834zm9.8615 0l7.8402 0 0.2564 -1.6768 -5.2412 0 0.517 -3.3817 3.9629 0 0.2481 -1.6222 -3.9629 0 0.478 -3.126 5.0769 0 0.2563 -1.6768 -7.6758 0 -1.7559 11.4834zm13.1304 0l2.6538 0 1.4994 -9.8067 3.2141 0 0.2564 -1.6768 -9.1003 0 -0.2563 1.6768 3.2323 0 -1.4994 9.8067zm8.291 0l2.6355 0 0.6841 -4.4741 1.8979 0 1.5439 4.4741 2.7341 0 -1.7734 -4.8431 0.0608 -0.3954 0.2084 -0.0838c1.3313,-0.5354 2.0355,-1.3346 2.2564,-2.7801 0.1363,-0.8913 0.1121,-1.9068 -0.5968,-2.5611 -0.7609,-0.7023 -2.1015,-0.82 -3.0839,-0.82l-4.8113 0 -1.7558 11.4834zm3.4782 -5.7493l0.6398 -4.1852 1.5803 0c1.4403,0 2.1107,0.6653 1.8889,2.1157 -0.2086,1.3637 -0.9523,2.0695 -2.3533,2.0695l-1.7557 0zm8.4834 5.7493l7.8402 0 0.2563 -1.6768 -5.2412 0 0.5171 -3.3817 3.9629 0 0.2481 -1.6222 -3.9629 0 0.478 -3.126 5.0768 0 0.2564 -1.6768 -7.6759 0 -1.7558 11.4834zm10.6832 0l2.6539 0 1.7558 -11.4834 -2.6538 0 -1.7559 11.4834zm5.8256 0l2.6355 0 0.6841 -4.4741 1.898 0 1.5438 4.4741 2.7341 0 -1.7733 -4.8431 0.0607 -0.3954 0.2084 -0.0838c1.3313,-0.5354 2.0355,-1.3346 2.2564,-2.7801 0.1363,-0.8913 0.112,-1.9068 -0.5968,-2.5611 -0.761,-0.7023 -2.1016,-0.82 -3.0839,-0.82l-4.8113 0 -1.7559 11.4834zm3.4782 -5.7493l0.6398 -4.1852 1.5803 0c1.4403,0 2.1107,0.6653 1.8889,2.1157 -0.2085,1.3637 -0.9523,2.0695 -2.3533,2.0695l-1.7557 0zm13.3808 5.9502c1.4906,0 2.9639,-0.4274 4.1398,-1.3637 1.4002,-1.1148 2.1201,-2.7347 2.3859,-4.4741l0.0614 -0.4018c0.5331,-3.4873 -0.9698,-5.6457 -4.5579,-5.6457 -1.4905,0 -2.964,0.4274 -4.1399,1.3637 -1.4001,1.1148 -2.12,2.7347 -2.3858,4.4741l-0.0614 0.4018c-0.5343,3.4958 0.9609,5.6457 4.558,5.6457zm0.4556 -1.7134c-2.4431,0 -2.4822,-2.1756 -2.1926,-4.0697l0.095 -0.6209c0.2812,-1.8381 1.0695,-3.7679 3.2155,-3.7679 2.429,0 2.4636,2.1777 2.1773,4.0514l-0.0949 0.6209c-0.2791,1.8256 -1.0585,3.7862 -3.2003,3.7862zm16.1385 -7.9854l0.2615 -1.7104c-0.9657,-0.416 -2.0643,-0.4761 -3.1022,-0.4761 -2.4148,0 -4.3578,0.9752 -4.7438,3.5004 -0.1183,0.7735 -0.1675,1.77 0.3423,2.4265 0.44,0.5666 1.229,0.7956 1.9053,0.9258l0.8878 0.1831c0.9713,0.2004 1.8084,0.4397 1.6288,1.6145 -0.1889,1.2352 -1.3963,1.4852 -2.4648,1.4852 -1.1536,0 -2.159,-0.1871 -3.2113,-0.5516l-0.2673 1.7476c0.9781,0.4589 2.4913,0.5539 3.4922,0.5539 2.5936,0 4.6696,-0.9847 5.0877,-3.7195 0.3276,-2.1428 -0.4365,-2.9103 -2.4696,-3.3152l-0.8945 -0.1657c-0.886,-0.1861 -1.7468,-0.4749 -1.581,-1.5595 0.1714,-1.1213 1.2492,-1.3939 2.2318,-1.3939 1.0295,0 1.9473,0.1545 2.8973,0.4549z"/>
  <g id="_105553183855392">
   <path class="fil1" d="M3.9742 0.1724l0 0.2065c-0.4713,0.0795 -0.8134,0.261 -1.0261,0.5447 -0.098,0.1384 -0.1648,0.2996 -0.1982,0.4857 -0.0354,0.1861 -0.0521,0.4494 -0.0521,0.7921l0 3.6697 0 0.2316c0.0042,0.8783 0.2065,1.5591 0.6048,2.0425 0.2169,0.261 0.4902,0.4652 0.8259,0.615 0.3338,0.1476 0.682,0.2224 1.0428,0.2224 0.5298,0 0.9886,-0.1453 1.3723,-0.4335 0.3859,-0.2882 0.6758,-0.6922 0.8718,-1.2164 0.1543,-0.4153 0.2316,-0.9918 0.2316,-1.7271l0 -3.0934c0,-0.7535 -0.1585,-1.2935 -0.4776,-1.6227 -0.2628,-0.2745 -0.5966,-0.4447 -0.9949,-0.5106l0 -0.2065 2.8406 0 0 0.2065c-0.2732,0.0795 -0.4922,0.1998 -0.657,0.3586 -0.1647,0.1588 -0.2836,0.3699 -0.3566,0.6309 -0.073,0.2633 -0.1105,0.5901 -0.1105,0.9849l0 3.2454c0,0.5402 -0.0292,0.9736 -0.0918,1.3027 -0.0605,0.3268 -0.1605,0.6264 -0.2981,0.8965 -0.1835,0.3563 -0.4193,0.6559 -0.707,0.9055 -0.2858,0.2475 -0.6173,0.4358 -0.9928,0.5651 -0.3734,0.1271 -0.7779,0.1929 -1.2096,0.1929 -0.4609,0 -0.8822,-0.0726 -1.268,-0.2157 -0.3838,-0.1452 -0.7218,-0.354 -1.0116,-0.6263 -0.2878,-0.2724 -0.5193,-0.6014 -0.6903,-0.9872 -0.2274,-0.5175 -0.3421,-1.2642 -0.3421,-2.2332l0 -3.1977c0,-0.3813 -0.0187,-0.6672 -0.0584,-0.8556 -0.0376,-0.1883 -0.1147,-0.3518 -0.2273,-0.4879 -0.2044,-0.2497 -0.5068,-0.4085 -0.9051,-0.4789l0 -0.2065 3.8854 0zm4.094 0.2519l-1.074 0c0.1584,0.0977 0.2856,0.1998 0.3816,0.3064 0.096,0.1067 0.1835,0.2474 0.2649,0.4267 0.1105,-0.2883 0.2523,-0.5333 0.4275,-0.7331zm-7.2579 0l0.3712 0.2791c0.1272,0.0885 0.2127,0.1725 0.2566,0.2497 0.0458,0.0772 0.0687,0.1839 0.0687,0.3155 0,0.1248 0.0021,0.1975 0.0063,0.2202l0 0.1135 0 3.7174c0,0.3132 0.0229,0.6967 0.073,1.1484 0.0939,0.8602 0.4046,1.5387 0.9323,2.0357 0.5255,0.497 1.1993,0.7467 2.0189,0.7512 -0.8279,-0.1906 -1.4495,-0.5901 -1.8645,-1.1961 -0.192,-0.2768 -0.3254,-0.5923 -0.4005,-0.9486 -0.075,-0.3563 -0.1126,-0.8239 -0.1126,-1.4003l0 -4.1078 0 -0.1135 0 -0.2202c0.0042,-0.1316 0.0271,-0.236 0.0709,-0.3109 0.0416,-0.0772 0.1292,-0.1611 0.2585,-0.2542l0.3734 -0.2791 -2.0522 0zm17.2292 9.0372l-0.1835 0 -6.7094 -7.773 0.0062 4.4618c0,0.497 0.0272,0.8942 0.0794,1.1961 0.0542,0.3019 0.1397,0.5606 0.2565,0.7784 0.2773,0.488 0.7278,0.7921 1.3514,0.9169l0 0.2065 -3.1951 0 0 -0.2065c0.5484,-0.2201 0.9155,-0.64 1.099,-1.2573 0.0647,-0.202 0.1105,-0.4266 0.1335,-0.674 0.025,-0.2451 0.0375,-0.5583 0.0375,-0.935l0 -4.7591c-0.317,-0.3541 -0.5631,-0.5991 -0.7341,-0.7308 -0.171,-0.1339 -0.3649,-0.236 -0.5861,-0.3064l0 -0.2065 2.3714 0c0.0979,0.1861 0.2044,0.3541 0.317,0.5061 0.025,0.0204 0.0688,0.0749 0.1314,0.1589 0.0625,0.0839 0.1043,0.1384 0.1251,0.1656 0.0689,0.084 0.1043,0.1271 0.1043,0.1271l5.164 6.0028 0 -4.573c0,-0.4652 -0.0542,-0.8488 -0.1627,-1.1484 -0.1084,-0.2973 -0.2773,-0.531 -0.5067,-0.6944 -0.2316,-0.1635 -0.536,-0.2769 -0.9135,-0.3382l0 -0.2065 2.9137 0 0 0.2065c-0.436,0.1271 -0.728,0.3404 -0.8761,0.6378 -0.1481,0.2973 -0.2231,0.8102 -0.2231,1.5432l0 6.9016zm-0.2315 -0.4199l0 -1.044 -5.7312 -6.6609c-0.2607,-0.2973 -0.4714,-0.6014 -0.6299,-0.9124l-1.2471 0c0.2982,0.1952 0.6006,0.4744 0.9114,0.8374l6.6969 7.7798zm-0.7467 -8.6173c0.1961,0.1067 0.3442,0.2157 0.4463,0.3268 0.1023,0.1113 0.2023,0.2724 0.3004,0.4857 0.0729,-0.2133 0.1334,-0.3654 0.1835,-0.4584 0.0479,-0.093 0.1293,-0.211 0.244,-0.3541l-1.1742 0zm-5.5039 8.4856c-0.1647,-0.1952 -0.2878,-0.3654 -0.3712,-0.5106 -0.0834,-0.1429 -0.1605,-0.3222 -0.2336,-0.5333 -0.0792,0.2247 -0.1626,0.4131 -0.2522,0.5606 -0.0898,0.1498 -0.219,0.3086 -0.39,0.4834l1.2471 0zm8.2236 0.3382l0 -0.2065c0.4401,-0.0795 0.7591,-0.2633 0.9594,-0.5515 0.1544,-0.2134 0.2316,-0.6355 0.2316,-1.2709l0 -5.0178c0,-0.404 -0.0188,-0.6968 -0.0606,-0.8783 -0.0395,-0.1816 -0.1168,-0.3382 -0.2252,-0.4652 -0.2044,-0.2497 -0.5048,-0.4085 -0.9052,-0.4789l0 -0.2065 3.8062 0 0 0.2065c-0.4401,0.0795 -0.7613,0.2633 -0.9657,0.5515 -0.0813,0.1157 -0.1397,0.27 -0.1773,0.4629 -0.0354,0.1929 -0.0542,0.4607 -0.0542,0.808l0 5.0178c0,0.3767 0.0209,0.6626 0.0646,0.8556 0.0417,0.1929 0.1189,0.3563 0.2294,0.488 0.2023,0.2496 0.5048,0.4085 0.9031,0.4788l0 0.2065 -3.8062 0zm0.8551 -0.3382l1.7853 0 -0.2378 -0.1928c-0.1397,-0.1113 -0.2273,-0.1998 -0.2669,-0.2678 -0.0376,-0.0659 -0.0584,-0.1657 -0.0584,-0.2973 0,-0.0726 0,-0.1203 -0.0021,-0.1429 -0.002,-0.0249 -0.0042,-0.05 -0.0042,-0.0772l0 -0.1135 0 -6.2161 0 -0.1135c0,-0.0273 0.0021,-0.0522 0.0042,-0.0795 0.0021,-0.0273 0.0021,-0.0726 0.0021,-0.1407 0,-0.1316 0.0208,-0.2315 0.0584,-0.2973 0.0396,-0.0681 0.1272,-0.1566 0.2669,-0.2679l0.3462 -0.2791 -2.0022 0 0.3483 0.2791c0.1419,0.1113 0.2316,0.1975 0.267,0.261 0.0376,0.0613 0.0563,0.1634 0.0563,0.3041 0.0042,0.0772 0.0062,0.1498 0.0062,0.2202l0 0.1135 0 6.2161 0 0.1135c0,0.0703 -0.002,0.1429 -0.0062,0.2201 0,0.1362 -0.0187,0.2383 -0.0563,0.3019 -0.0354,0.0635 -0.1251,0.152 -0.267,0.2633l-0.2398 0.1928zm8.5844 -1.4366l1.9125 -4.7954c0.1627,-0.4107 0.2439,-0.7557 0.2439,-1.0303 0,-0.3404 -0.1084,-0.615 -0.3274,-0.8193 -0.2168,-0.2065 -0.5484,-0.3563 -0.9927,-0.4494l0 -0.2065 3.1722 0 0 0.1998c-0.2649,0.1021 -0.4985,0.2451 -0.7028,0.4289 -0.2044,0.1838 -0.3941,0.4266 -0.5713,0.7307 -0.1773,0.3041 -0.3734,0.7171 -0.5903,1.2391l-2.7113 6.6973 -0.1356 0 -2.9574 -7.2351c-0.269,-0.674 -0.5005,-1.1279 -0.6965,-1.3662 -0.196,-0.236 -0.4714,-0.3995 -0.8301,-0.488l0 -0.2065 3.971 0 0 0.2065 -0.1335 0.0068c-0.3921,0.034 -0.6674,0.1112 -0.8258,0.2246 -0.1586,0.1158 -0.2378,0.2996 -0.2378,0.5515 0,0.1952 0.0521,0.4244 0.1584,0.6854l2.2547 5.626zm-0.3004 0.7444l-2.5049 -6.2774c-0.1168,-0.2927 -0.1772,-0.5469 -0.1772,-0.7648 0,-0.1316 0.0271,-0.2519 0.0792,-0.3608 0.0542,-0.1089 0.1564,-0.2338 0.3066,-0.3767l-1.8708 0c0.2545,0.2179 0.463,0.4879 0.6299,0.8125 0.0938,0.1861 0.173,0.3495 0.2378,0.4902 0.0667,0.1429 0.1251,0.2814 0.1772,0.4199l2.7863 6.8879 0.3359 -0.8307zm1.9375 -7.7934c0.244,0.1657 0.4193,0.3246 0.5235,0.4789 0.1022,0.1566 0.1627,0.3518 0.1794,0.5856 0.1105,-0.2475 0.2231,-0.4494 0.3358,-0.606 0.1147,-0.1543 0.2649,-0.3064 0.4526,-0.4585l-1.4912 0zm9.7711 -0.2519l0.2315 2.4738 -0.194 0c-0.2127,-0.7626 -0.5277,-1.3254 -0.9448,-1.6863 -0.417,-0.3608 -0.9594,-0.5424 -1.6288,-0.5424l-0.3421 0c-0.5338,0 -0.9114,0.1135 -1.1324,0.3359 -0.2231,0.2246 -0.3338,0.5991 -0.3338,1.1211l0 2.2604 0.8135 0c0.6152,0 1.0636,-0.1043 1.3431,-0.3155 0.2815,-0.211 0.4755,-0.59 0.5818,-1.1415l0.1836 0 0 3.3657 -0.1836 0c-0.0813,-0.4425 -0.1918,-0.7807 -0.3274,-1.0145 -0.1376,-0.2315 -0.3274,-0.3971 -0.5756,-0.4924 -0.2461,-0.0954 -0.5797,-0.143 -1.0031,-0.143l-0.8322 0 0 2.88c0,0.438 0.0376,0.7739 0.1127,1.0077 0.075,0.2315 0.2085,0.3949 0.3983,0.488 0.1898,0.093 0.4547,0.1406 0.7968,0.1406l0.5631 0c0.5527,0 1.0782,-0.1861 1.5746,-0.5605 0.5506,-0.4153 1.0908,-0.9963 1.6206,-1.7407l0.0479 -0.0726 0.2149 0 -0.7216 2.712 -7.2163 0 0 -0.2065c0.4401,-0.0795 0.7591,-0.2633 0.9594,-0.5515 0.1544,-0.2134 0.2316,-0.6355 0.2316,-1.2709l0 -5.0178c0,-0.404 -0.0189,-0.6968 -0.0606,-0.8783 -0.0396,-0.1816 -0.1168,-0.3382 -0.2253,-0.4652 -0.2044,-0.2497 -0.5048,-0.4085 -0.9052,-0.4789l0 -0.2065 6.9535 0zm-0.4589 0.2451l-0.878 0c0.2273,0.1021 0.4108,0.2134 0.5484,0.3336 0.1398,0.1203 0.2941,0.3041 0.4652,0.5515l-0.1356 -0.8851zm-1.4036 3.4315c-0.1147,0.1157 -0.2044,0.1952 -0.2669,0.236 -0.0626,0.0432 -0.194,0.1044 -0.3942,0.1906 0.2294,0.0704 0.4484,0.2134 0.6611,0.4312l0 -0.8579zm1.6914 5.0609l0.3421 -1.2368c-0.146,0.177 -0.2919,0.3381 -0.4359,0.4811 -0.1461,0.1453 -0.3087,0.2814 -0.4902,0.4085 -0.1815,0.1294 -0.3649,0.2451 -0.5527,0.3472l1.1367 0zm-5.9273 0l1.7853 0 -0.2378 -0.1928c-0.1397,-0.1113 -0.2273,-0.1998 -0.2669,-0.2678 -0.0376,-0.0659 -0.0584,-0.1657 -0.0584,-0.2973 0,-0.0726 0,-0.1203 -0.002,-0.1429 -0.002,-0.0249 -0.0042,-0.05 -0.0042,-0.0772l0 -0.1135 0 -6.2161 0 -0.1135c0,-0.0273 0.0021,-0.0522 0.0042,-0.0795 0.002,-0.0273 0.002,-0.0726 0.002,-0.1407 0,-0.1316 0.0209,-0.236 0.0646,-0.3086 0.0417,-0.0726 0.1294,-0.1588 0.2607,-0.2565l0.3463 -0.2791 -2.0022 0 0.3483 0.2791c0.1376,0.1113 0.2252,0.1998 0.2649,0.2679 0.0396,0.0658 0.0584,0.1657 0.0584,0.2973 0.0042,0.0772 0.0062,0.1498 0.0062,0.2202l0 0.1135 0 6.2161 0 0.1135c0,0.0703 -0.002,0.1429 -0.0062,0.2201 0,0.1362 -0.0188,0.2383 -0.0563,0.3019 -0.0355,0.0635 -0.1252,0.152 -0.267,0.2633l-0.2399 0.1928zm10.0089 -4.4232l0 2.7325c0,0.3813 0.021,0.6649 0.0646,0.851 0.0418,0.1861 0.1252,0.354 0.2483,0.4993 0.2149,0.2451 0.536,0.4018 0.9635,0.4721l0 0.2065 -3.8855 0 0 -0.2065c0.4401,-0.0795 0.7591,-0.2633 0.9594,-0.5515 0.1543,-0.2134 0.2316,-0.6355 0.2316,-1.2709l0 -5.0178c0,-0.404 -0.0189,-0.6968 -0.0606,-0.8783 -0.0396,-0.1816 -0.1168,-0.3382 -0.2253,-0.4652 -0.196,-0.2361 -0.4985,-0.3949 -0.9052,-0.4789l0 -0.2065c0.0563,0.0045 0.1085,0.0068 0.1523,0.0068l0.5381 0.034c0.2168,0.0114 0.4672,0.0182 0.7528,0.0182 0.4506,0 0.8614,-0.0182 1.2263,-0.059l0.8572 -0.0794c0.2669,-0.0273 0.5318,-0.0408 0.7925,-0.0408 0.4818,0 0.9114,0.0544 1.291,0.1611 0.3775,0.1044 0.6988,0.2587 0.9594,0.4585 0.2607,0.1997 0.4609,0.4448 0.6048,0.733 0.1418,0.2905 0.2127,0.615 0.2127,0.9759 0,0.5968 -0.1878,1.0644 -0.5652,1.398 -0.3775,0.3359 -0.9343,0.5311 -1.6705,0.5901 0.4566,0.1952 0.8425,0.4607 1.1575,0.8011 0.3149,0.3382 0.6924,0.892 1.1282,1.659 0.4922,0.8579 0.8802,1.457 1.166,1.7952 0.2857,0.3359 0.6006,0.5764 0.9467,0.7171l0 0.1861c-0.4442,-0.0091 -0.8217,-0.0522 -1.1324,-0.1339 -0.3128,-0.0795 -0.6236,-0.2202 -0.9323,-0.4244 -0.3879,-0.2609 -0.7509,-0.615 -1.0929,-1.0575 -0.3421,-0.4426 -0.6423,-0.9509 -0.8989,-1.5229l-0.3233 -0.7376c-0.1564,-0.3449 -0.292,-0.5968 -0.4109,-0.7535 -0.1168,-0.1588 -0.2585,-0.2656 -0.4212,-0.3245 -0.1627,-0.0567 -0.3837,-0.0863 -0.6654,-0.0863l-1.0637 0zm0 -0.2655l1.0949 0c0.6299,0 1.0845,-0.0772 1.362,-0.2315 0.2481,-0.1385 0.4421,-0.3518 0.584,-0.6423 0.1397,-0.2905 0.2106,-0.6241 0.2106,-1.0008 0,-0.3904 -0.0834,-0.7399 -0.2483,-1.0508 -0.1647,-0.3109 -0.394,-0.5515 -0.6902,-0.7218 -0.2962,-0.1702 -0.632,-0.2564 -1.0116,-0.2564 -0.561,0 -0.9406,0.1906 -1.1367,0.5719 -0.1105,0.2179 -0.1648,0.5583 -0.1648,1.0259l0 2.3058zm2.3839 0.0272c0.2732,-0.0658 0.5214,-0.1611 0.7487,-0.2859 0.2253,-0.1248 0.4109,-0.2656 0.559,-0.4267 0.146,-0.1588 0.2585,-0.3404 0.3377,-0.5446 0.0794,-0.2043 0.1189,-0.4153 0.1189,-0.6378 0,-0.4834 -0.1584,-0.9055 -0.4755,-1.2641 -0.3171,-0.3586 -0.7383,-0.5878 -1.2597,-0.69 0.2336,0.1362 0.4276,0.2996 0.5881,0.4902 0.1586,0.1907 0.2775,0.4085 0.3587,0.6491 0.0835,0.2405 0.1231,0.5016 0.1231,0.7807 0,0.4834 -0.0875,0.8783 -0.2627,1.1869 -0.1752,0.3086 -0.4547,0.556 -0.8364,0.7421zm3.8542 5.0066c-0.2147,-0.1294 -0.39,-0.2451 -0.5255,-0.3518 -0.1334,-0.1067 -0.2899,-0.2565 -0.4692,-0.4471 -0.2127,-0.2474 -0.3775,-0.4629 -0.4985,-0.6445 -0.121,-0.1816 -0.3191,-0.5197 -0.5966,-1.0167 -0.2607,-0.4743 -0.4943,-0.8579 -0.7049,-1.1507 -0.2106,-0.2927 -0.4212,-0.5265 -0.6319,-0.7035 -0.2127,-0.1794 -0.4463,-0.3246 -0.7028,-0.4403 0.1627,0.1816 0.2962,0.3608 0.4025,0.5401 0.0584,0.0954 0.1586,0.3019 0.3067,0.6173 0.0437,0.093 0.0875,0.1838 0.1313,0.2723 0.0417,0.0885 0.0834,0.1816 0.1252,0.2791 0.4359,0.926 0.903,1.6295 1.4057,2.1107 0.5005,0.4811 1.0866,0.792 1.7581,0.935zm-7.992 -0.345l1.7853 0 -0.2377 -0.1928c-0.1398,-0.1113 -0.2274,-0.1998 -0.2669,-0.2678 -0.0376,-0.0659 -0.0584,-0.1657 -0.0584,-0.2973 0,-0.0726 0,-0.1203 -0.0021,-0.1429 -0.002,-0.0249 -0.0042,-0.05 -0.0042,-0.0772l0 -0.1135 0 -6.2161 0 -0.1135c0,-0.0273 0.0021,-0.0522 0.0042,-0.0795 0.0021,-0.0273 0.0021,-0.0726 0.0021,-0.1407 0,-0.1225 0.0187,-0.2179 0.0521,-0.286 0.0354,-0.0658 0.1105,-0.1475 0.2294,-0.2451l0.0438 -0.0341 0.342 -0.2859 -0.2211 0.0136c-0.3712,0.0273 -0.705,0.0408 -1.0011,0.0408 -0.1835,0 -0.4338,-0.0067 -0.7529,-0.0204l0.3254 0.2519c0.1334,0.0977 0.221,0.1839 0.2627,0.2565 0.0397,0.0726 0.0606,0.177 0.0606,0.3086 0.0042,0.0772 0.0062,0.1498 0.0062,0.2202l0 0.1135 0 6.2161 0 0.1135c0,0.0703 -0.002,0.1429 -0.0062,0.2201 0,0.1362 -0.0187,0.2383 -0.0563,0.3019 -0.0355,0.0635 -0.1252,0.152 -0.267,0.2633l-0.2399 0.1928zm13.8777 -8.531l0.3546 2.2128 -0.2086 0c-0.1105,-0.3971 -0.217,-0.7126 -0.3233,-0.9441 -0.1064,-0.2292 -0.2253,-0.4222 -0.3546,-0.5787 -0.2086,-0.2519 -0.4567,-0.4494 -0.7487,-0.5901 -0.292,-0.1429 -0.5965,-0.2134 -0.9135,-0.2134 -0.4484,0 -0.8155,0.1317 -1.0991,0.3949 -0.2857,0.2655 -0.4275,0.6037 -0.4275,1.0212 0,0.4562 0.1834,0.8352 0.5547,1.137 0.1919,0.1498 0.3962,0.2837 0.6152,0.4017 0.2169,0.1181 0.559,0.2838 1.0219,0.4948 0.3191,0.1384 0.5881,0.2633 0.8072,0.3744 0.2211,0.1089 0.3963,0.2088 0.5317,0.2973 0.1335,0.0885 0.2691,0.1906 0.4026,0.3063 0.5673,0.497 0.8509,1.1462 0.8509,1.9495 0,0.5265 -0.1335,1.0031 -0.3984,1.4275 -0.2649,0.4266 -0.6319,0.7603 -1.099,1.0008 -0.4693,0.2428 -0.9887,0.3631 -1.558,0.3631 -0.3963,0 -0.8531,-0.0636 -1.3703,-0.1929 -0.3045,-0.0794 -0.7049,-0.2224 -1.2033,-0.4244l-0.171 -0.068 -0.1836 -2.5192 0.1836 0c0.1794,0.6786 0.4692,1.2823 0.8676,1.8156 0.5255,0.6944 1.1512,1.044 1.8771,1.044 0.3691,0 0.6987,-0.0772 0.9864,-0.2292 0.2878,-0.1543 0.511,-0.3654 0.6758,-0.6331 0.1627,-0.2679 0.244,-0.5742 0.244,-0.9192 0,-0.3063 -0.0646,-0.5832 -0.1898,-0.8283 -0.1271,-0.2474 -0.3315,-0.4789 -0.6173,-0.699 -0.2857,-0.2201 -0.6757,-0.4448 -1.1721,-0.6741 -0.7216,-0.3426 -1.1596,-0.5582 -1.3139,-0.6513 -0.2982,-0.1816 -0.5444,-0.379 -0.7404,-0.5924 -0.196,-0.2134 -0.34,-0.4425 -0.4338,-0.6922 -0.0938,-0.2474 -0.1398,-0.5129 -0.1398,-0.7966 0,-0.4403 0.1064,-0.8397 0.3212,-1.2051 0.2126,-0.3631 0.5067,-0.649 0.878,-0.8579 0.3733,-0.2065 0.7862,-0.3108 1.2389,-0.3108 0.2836,0 0.6027,0.0499 0.953,0.152l0.3671 0.1067c0.2712,0.0794 0.5631,0.1202 0.8717,0.1202l0.0626 0zm-0.4651 8.3109c0.6716,-0.5288 1.0074,-1.162 1.0074,-1.9018 0,-0.2927 -0.0543,-0.5764 -0.1669,-0.8533 -0.1126,-0.2791 -0.2711,-0.5151 -0.4796,-0.7081 -0.3024,-0.2973 -0.8322,-0.6196 -1.5955,-0.9645 -0.6299,-0.2927 -1.0408,-0.4902 -1.2305,-0.5924 -0.1898,-0.1021 -0.3816,-0.2382 -0.5777,-0.413 -0.4066,-0.354 -0.611,-0.8011 -0.611,-1.3412 0,-0.1611 0.0167,-0.3064 0.05,-0.4358 0.0313,-0.1316 0.0814,-0.2587 0.1461,-0.3789 0.0646,-0.1226 0.1731,-0.286 0.3233,-0.4903 -0.5819,0.4585 -0.8739,1.0259 -0.8739,1.709 0,0.6559 0.2357,1.1755 0.7091,1.5569 0.2483,0.2042 0.534,0.3858 0.8551,0.5446 0.0417,0.0227 0.3545,0.1725 0.9406,0.4517 0.7091,0.3336 1.1992,0.6355 1.4683,0.9055 0.4275,0.4289 0.6402,0.9373 0.6402,1.5229 0,0.2837 -0.0479,0.5333 -0.1439,0.7535 -0.096,0.2201 -0.2482,0.4312 -0.4609,0.6355zm-4.0753 -0.2587c0.269,0.168 0.6111,0.329 1.0261,0.4857 -0.2732,-0.2678 -0.4797,-0.4857 -0.6194,-0.6604 -0.1419,-0.1725 -0.3004,-0.4153 -0.4797,-0.7308l0.073 0.9055zm6.1901 0.817l0 -0.2065c0.4401,-0.0795 0.7591,-0.2633 0.9594,-0.5515 0.1544,-0.2134 0.2316,-0.6355 0.2316,-1.2709l0 -5.0178c0,-0.404 -0.0188,-0.6968 -0.0606,-0.8783 -0.0395,-0.1816 -0.1168,-0.3382 -0.2252,-0.4652 -0.2044,-0.2497 -0.5048,-0.4085 -0.9052,-0.4789l0 -0.2065 3.8062 0 0 0.2065c-0.4401,0.0795 -0.7613,0.2633 -0.9657,0.5515 -0.0813,0.1157 -0.1397,0.27 -0.1773,0.4629 -0.0354,0.1929 -0.0542,0.4607 -0.0542,0.808l0 5.0178c0,0.3767 0.0209,0.6626 0.0646,0.8556 0.0417,0.1929 0.1189,0.3563 0.2294,0.488 0.2023,0.2496 0.5048,0.4085 0.9031,0.4788l0 0.2065 -3.8062 0zm0.8551 -0.3382l1.7853 0 -0.2378 -0.1928c-0.1397,-0.1113 -0.2273,-0.1998 -0.2669,-0.2678 -0.0376,-0.0659 -0.0584,-0.1657 -0.0584,-0.2973 0,-0.0726 0,-0.1203 -0.0021,-0.1429 -0.002,-0.0249 -0.0042,-0.05 -0.0042,-0.0772l0 -0.1135 0 -6.2161 0 -0.1135c0,-0.0273 0.0021,-0.0522 0.0042,-0.0795 0.0021,-0.0273 0.0021,-0.0726 0.0021,-0.1407 0,-0.1316 0.0209,-0.2315 0.0584,-0.2973 0.0396,-0.0681 0.1272,-0.1566 0.2669,-0.2679l0.3462 -0.2791 -2.0022 0 0.3484 0.2791c0.1418,0.1113 0.2315,0.1975 0.2669,0.261 0.0376,0.0613 0.0564,0.1634 0.0564,0.3041 0.0041,0.0772 0.0061,0.1498 0.0061,0.2202l0 0.1135 0 6.2161 0 0.1135c0,0.0703 -0.002,0.1429 -0.0061,0.2201 0,0.1362 -0.0188,0.2383 -0.0564,0.3019 -0.0354,0.0635 -0.1251,0.152 -0.2669,0.2633l-0.2399 0.1928zm3.6227 0.3382l0.0187 -0.2065c0.4401,-0.0795 0.7591,-0.2633 0.9594,-0.5515 0.1544,-0.2134 0.2316,-0.6355 0.2316,-1.2709l0 -5.0178c0,-0.3813 -0.0187,-0.6672 -0.0584,-0.8556 -0.0375,-0.1883 -0.1147,-0.3518 -0.2273,-0.4879 -0.2044,-0.2497 -0.5069,-0.4085 -0.9052,-0.4789l0 -0.2065c0.1544,0.0091 0.2336,0.0137 0.2378,0.0137l0.7154 0.0385c0.2316,0.0136 0.4797,0.0204 0.7446,0.0204 0.4776,0 0.9948,-0.0273 1.5538,-0.0794 0.5173,-0.0432 0.8989,-0.0659 1.147,-0.0659 0.6529,0 1.243,0.1089 1.7728,0.3291 0.5297,0.2178 0.9886,0.5333 1.3786,0.9396 0.3879,0.4085 0.6883,0.8942 0.9009,1.457 0.2106,0.5628 0.3171,1.1801 0.3171,1.8542 0,0.6786 -0.1085,1.305 -0.3274,1.8791 -0.2169,0.5742 -0.5297,1.0644 -0.9343,1.4684 -0.4047,0.4063 -0.8885,0.7171 -1.4474,0.935 -0.561,0.2179 -1.1847,0.3268 -1.8729,0.3268 -0.2524,0 -0.657,-0.0273 -1.2096,-0.0817 -0.3922,-0.0386 -0.7717,-0.059 -1.143,-0.059 -0.2608,0 -0.5507,0.0091 -0.8676,0.0273l-0.8322 0.0658c-0.0438,0 -0.0959,0.0023 -0.1522,0.0068zm2.6404 -7.4462l-0.0125 5.1381c0,0.5719 0.0459,0.9872 0.1398,1.2436 0.0897,0.2405 0.2419,0.4244 0.4567,0.556 0.2128,0.1294 0.4714,0.1952 0.7717,0.1952 0.4692,0 0.9009,-0.1044 1.2951,-0.3155 0.3963,-0.2111 0.7403,-0.5107 1.0365,-0.9033 0.2941,-0.3926 0.5194,-0.8579 0.6758,-1.3934 0.1543,-0.5356 0.2315,-1.1121 0.2315,-1.7293 0,-0.8102 -0.1376,-1.5388 -0.413,-2.181 -0.2752,-0.6423 -0.6569,-1.1461 -1.1491,-1.5115 -0.4902,-0.3654 -1.0366,-0.5492 -1.6394,-0.5492 -0.4775,0 -0.8279,0.1157 -1.0553,0.3495 -0.2252,0.2315 -0.3378,0.5991 -0.3378,1.1007zm-1.7665 7.108c0.3546,-0.0408 0.6736,-0.0613 0.9594,-0.0613 0.2857,0 0.561,0.0159 0.8259,0.0477l-0.2398 -0.1793c-0.121,-0.0885 -0.2065,-0.1747 -0.2523,-0.2542 -0.048,-0.0795 -0.0709,-0.1838 -0.0709,-0.3109 -0.0042,-0.0772 -0.0063,-0.1498 -0.0063,-0.2201l0 -0.1135 0 -6.2161 0 -0.1135c0,-0.0704 0.0021,-0.143 0.0063,-0.2202 0,-0.1316 0.0188,-0.2315 0.0584,-0.2973 0.0376,-0.0681 0.1272,-0.1566 0.2649,-0.2679l0.3253 -0.2586c-0.3587,0.0362 -0.6695,0.0544 -0.9301,0.0544 -0.244,0 -0.5485,-0.0159 -0.9156,-0.0477l-0.1105 -0.0067 0.3233 0.2586c0.1314,0.0977 0.2169,0.1839 0.2607,0.2565 0.0417,0.0726 0.0647,0.177 0.0647,0.3086 0,0.0454 0,0.084 0.002,0.1203 0.0021,0.0363 0.0041,0.0681 0.0041,0.0999l0 0.1135 0 6.2161 0 0.1135c0,0.0272 -0.002,0.0567 -0.0041,0.093 -0.002,0.0363 -0.002,0.0772 -0.002,0.1271 0,0.1362 -0.0188,0.2383 -0.0563,0.3019 -0.0355,0.0635 -0.1252,0.152 -0.2691,0.2633l-0.2378 0.1928zm4.1128 0.0318c0.4672,-0.1202 0.8718,-0.2859 1.2097,-0.497 0.3377,-0.2133 0.6548,-0.4969 0.953,-0.851 0.6716,-0.8261 1.0074,-1.8019 1.0074,-2.9321 0,-0.6786 -0.1168,-1.3095 -0.3546,-1.8906 -0.2356,-0.5787 -0.5755,-1.0734 -1.0156,-1.4774 -0.4422,-0.4062 -0.9531,-0.6967 -1.5308,-0.8692 0.2189,0.1158 0.4254,0.2451 0.6194,0.3904 0.1939,0.1429 0.3649,0.3019 0.513,0.4743 0.1481,0.1725 0.2775,0.3496 0.3879,0.5333 0.4693,0.7739 0.7028,1.6975 0.7028,2.7642 0,0.5674 -0.0646,1.1121 -0.196,1.6295 -0.1294,0.5197 -0.3171,0.9713 -0.561,1.3571 -0.2086,0.3314 -0.4485,0.6037 -0.7175,0.8147 -0.2711,0.2088 -0.611,0.3949 -1.0178,0.5538zm9.8962 -3.0501l-3.1451 0 -0.342 0.851c-0.1647,0.4153 -0.2461,0.758 -0.2461,1.0303 0,0.2292 0.048,0.4289 0.1439,0.5946 0.096,0.1657 0.2398,0.3042 0.4276,0.4108 0.1897,0.1089 0.44,0.1975 0.7487,0.2633l0 0.2065 -3.1701 0 0 -0.1997c0.3816,-0.1407 0.7112,-0.3904 0.9865,-0.7444 0.2752,-0.3541 0.5651,-0.9055 0.8697,-1.6568l2.7008 -6.6473 0.1586 0 2.9407 7.1875c0.0083,0.0045 0.0145,0.0159 0.0208,0.0363 0.0063,0.0204 0.0146,0.0408 0.025,0.0635 0.0083,0.0227 0.0209,0.0455 0.0334,0.0726l0.269 0.606c0.146,0.3223 0.3128,0.5674 0.5006,0.7308 0.1877,0.1634 0.4213,0.2791 0.7028,0.3449l0 0.2065 -3.898 0 0 -0.2065c0.3294,-0.0273 0.5651,-0.0681 0.7069,-0.1248 0.2941,-0.1203 0.4401,-0.329 0.4401,-0.6264 0,-0.1453 -0.0646,-0.3858 -0.194,-0.7171l-0.6799 -1.6816zm-0.1147 -0.2815l-1.4725 -3.6085 -1.4494 3.6085 2.9218 0zm-1.3452 -3.8944l2.3526 5.7645 0.0626 0.1453c0.1251,0.2973 0.1876,0.5151 0.1876,0.6513 0,0.1906 -0.1001,0.4017 -0.2981,0.6331l1.6122 0c-0.1836,-0.1861 -0.3421,-0.4017 -0.4755,-0.6422 -0.1356,-0.2428 -0.292,-0.5787 -0.4714,-1.0077l-2.6216 -6.4159 -0.3483 0.8715zm-2.1377 7.1942c-0.1398,-0.1815 -0.2357,-0.3449 -0.2941,-0.4902 -0.0564,-0.1429 -0.0855,-0.2996 -0.0855,-0.4675 0,-0.0749 0.002,-0.1362 0.0061,-0.1794 -0.125,0.2656 -0.2502,0.4789 -0.3733,0.6401 -0.121,0.1634 -0.2857,0.3267 -0.4943,0.4969l1.241 0zm7.6688 0.3382l0.0187 -0.2065c0.4401,-0.0795 0.7591,-0.2633 0.9594,-0.5515 0.1544,-0.2134 0.2316,-0.6355 0.2316,-1.2709l0 -5.0178c0,-0.3813 -0.0188,-0.6672 -0.0584,-0.8556 -0.0376,-0.1883 -0.1148,-0.3518 -0.2274,-0.4879 -0.2044,-0.2497 -0.5068,-0.4085 -0.9052,-0.4789l0 -0.2065c0.1544,0.0091 0.2336,0.0137 0.2378,0.0137l0.7155 0.0385c0.2315,0.0136 0.4796,0.0204 0.7445,0.0204 0.4776,0 0.9949,-0.0273 1.5538,-0.0794 0.5173,-0.0432 0.8989,-0.0659 1.147,-0.0659 0.6529,0 1.243,0.1089 1.7728,0.3291 0.5297,0.2178 0.9886,0.5333 1.3786,0.9396 0.3879,0.4085 0.6883,0.8942 0.901,1.457 0.2105,0.5628 0.317,1.1801 0.317,1.8542 0,0.6786 -0.1084,1.305 -0.3274,1.8791 -0.2169,0.5742 -0.5297,1.0644 -0.9343,1.4684 -0.4046,0.4063 -0.8885,0.7171 -1.4474,0.935 -0.561,0.2179 -1.1847,0.3268 -1.8729,0.3268 -0.2524,0 -0.657,-0.0273 -1.2096,-0.0817 -0.3922,-0.0386 -0.7717,-0.059 -1.143,-0.059 -0.2607,0 -0.5507,0.0091 -0.8676,0.0273l-0.8321 0.0658c-0.0439,0 -0.096,0.0023 -0.1523,0.0068zm2.6404 -7.4462l-0.0125 5.1381c0,0.5719 0.0459,0.9872 0.1398,1.2436 0.0897,0.2405 0.2419,0.4244 0.4566,0.556 0.2128,0.1294 0.4714,0.1952 0.7717,0.1952 0.4692,0 0.9009,-0.1044 1.2951,-0.3155 0.3963,-0.2111 0.7404,-0.5107 1.0365,-0.9033 0.2941,-0.3926 0.5194,-0.8579 0.6758,-1.3934 0.1543,-0.5356 0.2316,-1.1121 0.2316,-1.7293 0,-0.8102 -0.1377,-1.5388 -0.413,-2.181 -0.2753,-0.6423 -0.657,-1.1461 -1.1492,-1.5115 -0.4902,-0.3654 -1.0366,-0.5492 -1.6393,-0.5492 -0.4776,0 -0.828,0.1157 -1.0554,0.3495 -0.2252,0.2315 -0.3378,0.5991 -0.3378,1.1007zm-1.7665 7.108c0.3546,-0.0408 0.6736,-0.0613 0.9594,-0.0613 0.2858,0 0.561,0.0159 0.8259,0.0477l-0.2398 -0.1793c-0.1209,-0.0885 -0.2065,-0.1747 -0.2523,-0.2542 -0.0479,-0.0795 -0.0709,-0.1838 -0.0709,-0.3109 -0.0041,-0.0772 -0.0062,-0.1498 -0.0062,-0.2201l0 -0.1135 0 -6.2161 0 -0.1135c0,-0.0704 0.0021,-0.143 0.0062,-0.2202 0,-0.1316 0.0188,-0.2315 0.0584,-0.2973 0.0376,-0.0681 0.1272,-0.1566 0.2649,-0.2679l0.3253 -0.2586c-0.3586,0.0362 -0.6695,0.0544 -0.9301,0.0544 -0.244,0 -0.5484,-0.0159 -0.9156,-0.0477l-0.1105 -0.0067 0.3233 0.2586c0.1314,0.0977 0.217,0.1839 0.2607,0.2565 0.0418,0.0726 0.0647,0.177 0.0647,0.3086 0,0.0454 0,0.084 0.002,0.1203 0.0021,0.0363 0.0042,0.0681 0.0042,0.0999l0 0.1135 0 6.2161 0 0.1135c0,0.0272 -0.002,0.0567 -0.0042,0.093 -0.002,0.0363 -0.002,0.0772 -0.002,0.1271 0,0.1362 -0.0188,0.2383 -0.0563,0.3019 -0.0355,0.0635 -0.1252,0.152 -0.2691,0.2633l-0.2378 0.1928zm4.1128 0.0318c0.4672,-0.1202 0.8718,-0.2859 1.2097,-0.497 0.3377,-0.2133 0.6549,-0.4969 0.9531,-0.851 0.6715,-0.8261 1.0073,-1.8019 1.0073,-2.9321 0,-0.6786 -0.1168,-1.3095 -0.3546,-1.8906 -0.2356,-0.5787 -0.5755,-1.0734 -1.0156,-1.4774 -0.4422,-0.4062 -0.9531,-0.6967 -1.5308,-0.8692 0.219,0.1158 0.4254,0.2451 0.6194,0.3904 0.1939,0.1429 0.3649,0.3019 0.513,0.4743 0.1481,0.1725 0.2775,0.3496 0.3879,0.5333 0.4693,0.7739 0.7028,1.6975 0.7028,2.7642 0,0.5674 -0.0645,1.1121 -0.196,1.6295 -0.1294,0.5197 -0.3171,0.9713 -0.561,1.3571 -0.2086,0.3314 -0.4485,0.6037 -0.7175,0.8147 -0.2711,0.2088 -0.611,0.3949 -1.0178,0.5538z"/>
   <path class="fil1" d="M98.223 0.1724l0.2315 2.4738 -0.1939 0c-0.2127,-0.7626 -0.5277,-1.3254 -0.9448,-1.6863 -0.4171,-0.3608 -0.9594,-0.5424 -1.6289,-0.5424l-0.342 0c-0.5339,0 -0.9114,0.1135 -1.1324,0.3359 -0.2232,0.2246 -0.3338,0.5991 -0.3338,1.1211l0 2.2604 0.8134 0c0.6152,0 1.0637,-0.1043 1.3432,-0.3155 0.2815,-0.211 0.4755,-0.59 0.5818,-1.1415l0.1836 0 0 3.3657 -0.1836 0c-0.0813,-0.4425 -0.1919,-0.7807 -0.3274,-1.0145 -0.1376,-0.2315 -0.3274,-0.3971 -0.5756,-0.4924 -0.2461,-0.0954 -0.5798,-0.143 -1.0031,-0.143l-0.8322 0 0 2.88c0,0.438 0.0376,0.7739 0.1126,1.0077 0.0751,0.2315 0.2086,0.3949 0.3984,0.488 0.1897,0.093 0.4547,0.1406 0.7967,0.1406l0.5631 0c0.5527,0 1.0783,-0.1861 1.5746,-0.5605 0.5506,-0.4153 1.0908,-0.9963 1.6206,-1.7407l0.0479 -0.0726 0.2149 0 -0.7217 2.712 -7.2162 0 0 -0.2065c0.4401,-0.0795 0.7591,-0.2633 0.9594,-0.5515 0.1544,-0.2134 0.2316,-0.6355 0.2316,-1.2709l0 -5.0178c0,-0.404 -0.0188,-0.6968 -0.0606,-0.8783 -0.0395,-0.1816 -0.1168,-0.3382 -0.2252,-0.4652 -0.2044,-0.2497 -0.5048,-0.4085 -0.9052,-0.4789l0 -0.2065 6.9534 0zm-0.4588 0.2451l-0.878 0c0.2273,0.1021 0.4108,0.2134 0.5484,0.3336 0.1398,0.1203 0.2941,0.3041 0.4651,0.5515l-0.1355 -0.8851zm-1.4036 3.4315c-0.1148,0.1157 -0.2044,0.1952 -0.2669,0.236 -0.0626,0.0432 -0.1941,0.1044 -0.3942,0.1906 0.2293,0.0704 0.4484,0.2134 0.6611,0.4312l0 -0.8579zm1.6914 5.0609l0.342 -1.2368c-0.146,0.177 -0.2919,0.3381 -0.4359,0.4811 -0.146,0.1453 -0.3086,0.2814 -0.4901,0.4085 -0.1815,0.1294 -0.365,0.2451 -0.5527,0.3472l1.1367 0zm-5.9273 0l1.7853 0 -0.2378 -0.1928c-0.1397,-0.1113 -0.2273,-0.1998 -0.2669,-0.2678 -0.0376,-0.0659 -0.0584,-0.1657 -0.0584,-0.2973 0,-0.0726 0,-0.1203 -0.0021,-0.1429 -0.002,-0.0249 -0.0042,-0.05 -0.0042,-0.0772l0 -0.1135 0 -6.2161 0 -0.1135c0,-0.0273 0.0021,-0.0522 0.0042,-0.0795 0.0021,-0.0273 0.0021,-0.0726 0.0021,-0.1407 0,-0.1316 0.0208,-0.236 0.0646,-0.3086 0.0416,-0.0726 0.1293,-0.1588 0.2607,-0.2565l0.3462 -0.2791 -2.0022 0 0.3483 0.2791c0.1377,0.1113 0.2253,0.1998 0.2649,0.2679 0.0397,0.0658 0.0584,0.1657 0.0584,0.2973 0.0042,0.0772 0.0062,0.1498 0.0062,0.2202l0 0.1135 0 6.2161 0 0.1135c0,0.0703 -0.002,0.1429 -0.0062,0.2201 0,0.1362 -0.0187,0.2383 -0.0563,0.3019 -0.0354,0.0635 -0.1251,0.152 -0.267,0.2633l-0.2398 0.1928z"/>
  </g>
 </g>
</svg>
