<?xml version="1.0" encoding="UTF-8"?>
<!DOCTYPE svg PUBLIC "-//W3C//DTD SVG 1.1//EN" "http://www.w3.org/Graphics/SVG/1.1/DTD/svg11.dtd">
<!-- Creator: CorelDRAW -->
<svg xmlns="http://www.w3.org/2000/svg" xml:space="preserve" width="210mm" height="297mm" version="1.1" style="shape-rendering:geometricPrecision; text-rendering:geometricPrecision; image-rendering:optimizeQuality; fill-rule:evenodd; clip-rule:evenodd"
viewBox="0 0 210 297"
 xmlns:xlink="http://www.w3.org/1999/xlink"
 xmlns:xodm="http://www.corel.com/coreldraw/odm/2003">
 <defs>
  <style type="text/css">
   <![CDATA[
    .str0 {stroke:#0ABDC4;stroke-width:0.0762;stroke-miterlimit:22.9256}
    .fil0 {fill:#024277}
    .fil1 {fill:#0ABDC4}
    .fil4 {fill:white;fill-rule:nonzero}
    .fil2 {fill:#332D2B;fill-rule:nonzero}
    .fil3 {fill:#024277;fill-rule:nonzero}
   ]]>
  </style>
 </defs>
 <g id="Camada_x0020_1">
  <metadata id="CorelCorpID_0Corel-Layer"/>
  <rect class="fil0" x="67.936" y="46.4725" width="29.4181" height="57.316"/>
  <rect class="fil1" x="97.2098" y="46.495" width="29.4181" height="57.316"/>
  <g id="_105553183393824">
   <path class="fil2" d="M98.0836 90.1151l4.8601 0 -0.6473 -0.4826c-0.3804,-0.2782 -0.6189,-0.4996 -0.7267,-0.67 -0.1022,-0.1646 -0.159,-0.4144 -0.159,-0.7438 0,-0.1816 0,-0.3008 -0.0057,-0.3576 -0.0056,-0.0625 -0.0113,-0.1249 -0.0113,-0.1931l0 -0.2838 0 -15.5512 0 -0.2839c0,-0.0681 0.0057,-0.1306 0.0113,-0.1988 0.0057,-0.068 0.0057,-0.1816 0.0057,-0.352 0,-0.3293 0.0568,-0.5904 0.176,-0.7721 0.1136,-0.1817 0.3521,-0.3975 0.7097,-0.6416l0.9425 -0.6984 -5.4392 0 0.9369 0.6984c0.386,0.2782 0.6301,0.4939 0.7267,0.6529 0.1021,0.1533 0.1533,0.4088 0.1533,0.7608 0.0113,0.1931 0.017,0.3748 0.017,0.5508l0 0.2839 0 15.5512 0 0.2838c0,0.1761 -0.0057,0.3578 -0.017,0.5507 0,0.3407 -0.0512,0.5963 -0.1533,0.7552 -0.0966,0.159 -0.3407,0.3804 -0.7267,0.6586l-0.653 0.4826zm14.8869 0l0.9027 -3.0943c-1.0901,1.2945 -2.3789,2.3279 -3.8778,3.0943l2.9751 0zm-6.518 -21.8591l0 0.5166c-1.3286,0.1988 -2.2881,0.653 -2.8786,1.3627 -0.2668,0.3236 -0.4542,0.7211 -0.5563,1.198 -0.108,0.4769 -0.1591,1.1412 -0.1591,1.9986l0 12.6896c0,0.8289 0.0454,1.4876 0.1419,1.9645 0.0966,0.4769 0.2613,0.8686 0.5054,1.181 0.4997,0.6301 1.4478,0.9481 2.8445,0.9481l0.352 0c0.7438,0 1.4706,-0.1135 2.1803,-0.3406 0.7096,-0.2328 1.4308,-0.5962 2.1688,-1.1015 0.7381,-0.5053 1.4876,-1.1413 2.2427,-1.9021 0.7608,-0.7664 1.5387,-1.6692 2.3392,-2.7139l0.5167 0 -1.9986 6.9041 -18.3956 0 0 -0.5167c1.1979,-0.1987 2.0667,-0.6585 2.6117,-1.3797 0.4201,-0.5337 0.6302,-1.5897 0.6302,-3.1794l0 -12.5534c0,-1.0107 -0.0511,-1.7431 -0.1647,-2.1973 -0.1078,-0.4542 -0.3179,-0.846 -0.6131,-1.164 -0.5565,-0.6245 -1.3741,-1.0219 -2.4641,-1.198l0 -0.5166 10.6967 0z"/>
   <path class="fil2" d="M80.378 58.7583l1.0107 0.6984c0.3464,0.2214 0.5791,0.4315 0.6984,0.6245 0.1249,0.193 0.1873,0.4599 0.1873,0.7892 0,0.3123 0.0057,0.494 0.017,0.5508l0 0.2838 0 9.3001c0,0.7835 0.0625,1.743 0.1987,2.8729 0.2555,2.1518 1.1015,3.8494 2.5379,5.0929 1.4309,1.2434 3.2647,1.8679 5.4961,1.8793 -2.254,-0.477 -3.946,-1.4762 -5.0759,-2.9921 -0.5223,-0.6927 -0.8857,-1.4819 -1.0901,-2.3733 -0.2044,-0.8914 -0.3066,-2.061 -0.3066,-3.5032l0 -10.2766 0 -0.2838 0 -0.5508c0.0114,-0.3293 0.0738,-0.5904 0.1931,-0.7779 0.1135,-0.1929 0.352,-0.403 0.704,-0.6358l1.0163 -0.6984 -5.5869 0zm19.7584 0l-2.924 0c0.4315,0.2442 0.7779,0.4996 1.039,0.7665 0.2612,0.2669 0.4997,0.6189 0.7211,1.0674 0.3009,-0.721 0.687,-1.3343 1.1639,-1.8339zm-11.1453 -0.6302l0 0.5166c-1.2831,0.1988 -2.2143,0.653 -2.7934,1.3627 -0.2668,0.3464 -0.4485,0.7494 -0.5394,1.215 -0.0965,0.4656 -0.1419,1.1242 -0.1419,1.9815l0 9.1809 0 0.5791c0.0113,2.1972 0.5621,3.9005 1.6465,5.1099 0.5905,0.6529 1.3343,1.164 2.2484,1.5386 0.9084,0.3691 1.8566,0.5565 2.8388,0.5565 1.4422,0 2.6912,-0.3634 3.736,-1.0845 1.0503,-0.721 1.8395,-1.7317 2.3732,-3.0432 0.4202,-1.039 0.6302,-2.4811 0.6302,-4.3207l0 -7.7388c0,-1.8849 -0.4315,-3.2362 -1.3001,-4.0595 -0.7154,-0.687 -1.6239,-1.1128 -2.7083,-1.2775l0 -0.5166 7.733 0 0 0.5166c-0.7437,0.1988 -1.34,0.4997 -1.7885,0.8971 -0.4485,0.3974 -0.7721,0.9255 -0.9709,1.5784 -0.1987,0.6586 -0.3009,1.4762 -0.3009,2.4641l0 8.1192c0,1.3513 -0.0795,2.4357 -0.2498,3.2589 -0.1646,0.8176 -0.4372,1.567 -0.8119,2.2427 -0.4997,0.8914 -1.1412,1.6409 -1.9247,2.2654 -0.7779,0.6189 -1.6806,1.0902 -2.7026,1.4138 -1.0163,0.3179 -2.1178,0.4826 -3.2931,0.4826 -1.2548,0 -2.4016,-0.1817 -3.452,-0.5394 -1.0447,-0.3634 -1.9645,-0.8857 -2.7537,-1.5671 -0.7835,-0.6813 -1.4138,-1.5046 -1.8793,-2.4697 -0.6189,-1.2946 -0.9312,-3.1626 -0.9312,-5.5869l0 -7.9999c0,-0.9539 -0.0511,-1.6692 -0.1589,-2.1405 -0.1023,-0.4712 -0.3123,-0.88 -0.6189,-1.2207 -0.5564,-0.6245 -1.3797,-1.0219 -2.4641,-1.198l0 -0.5166 10.5775 0z"/>
  </g>
  <g id="_105553183431904">
   <path class="fil2" d="M40.7285 111.6555l0 0.2326c-0.5308,0.0895 -0.9161,0.294 -1.1557,0.6135 -0.1104,0.1559 -0.1856,0.3374 -0.2232,0.547 -0.0399,0.2096 -0.0587,0.5061 -0.0587,0.8921l0 4.1331 0 0.2608c0.0047,0.9892 0.2326,1.756 0.6812,2.3004 0.2443,0.294 0.5521,0.524 0.9302,0.6927 0.3759,0.1662 0.7681,0.2505 1.1745,0.2505 0.5967,0 1.1134,-0.1636 1.5456,-0.4882 0.4346,-0.3246 0.7611,-0.7796 0.9819,-1.37 0.1738,-0.4678 0.2608,-1.117 0.2608,-1.9452l0 -3.484c0,-0.8486 -0.1785,-1.4569 -0.5379,-1.8276 -0.296,-0.3092 -0.6719,-0.5009 -1.1205,-0.5751l0 -0.2326 3.1993 0 0 0.2326c-0.3077,0.0895 -0.5543,0.225 -0.74,0.4039 -0.1855,0.1789 -0.3194,0.4166 -0.4016,0.7106 -0.0822,0.2965 -0.1245,0.6646 -0.1245,1.1093l0 3.6552c0,0.6084 -0.0329,1.0966 -0.1034,1.4672 -0.0681,0.3681 -0.1808,0.7055 -0.3358,1.0097 -0.2067,0.4013 -0.4722,0.7387 -0.7963,1.0198 -0.3219,0.2787 -0.6953,0.4908 -1.1182,0.6365 -0.4205,0.1431 -0.8761,0.2173 -1.3624,0.2173 -0.5191,0 -0.9936,-0.0818 -1.4281,-0.2429 -0.4323,-0.1635 -0.8129,-0.3987 -1.1393,-0.7054 -0.3242,-0.3068 -0.5849,-0.6774 -0.7775,-1.1119 -0.2561,-0.5828 -0.3853,-1.4238 -0.3853,-2.5152l0 -3.6015c0,-0.4295 -0.0211,-0.7515 -0.0658,-0.9637 -0.0423,-0.2121 -0.1292,-0.3962 -0.256,-0.5495 -0.2302,-0.2812 -0.5708,-0.4601 -1.0194,-0.5394l0 -0.2326 4.3761 0zm4.611 0.2837l-1.2096 0c0.1784,0.11 0.3217,0.225 0.4298,0.3451 0.1081,0.1202 0.2067,0.2786 0.2983,0.4806 0.1245,-0.3247 0.2842,-0.6007 0.4815,-0.8257zm-8.1744 0l0.4181 0.3144c0.1433,0.0997 0.2396,0.1943 0.289,0.2812 0.0516,0.0869 0.0774,0.2071 0.0774,0.3553 0,0.1406 0.0024,0.2224 0.0071,0.248l0 0.1278 0 4.1868c0,0.3528 0.0258,0.7847 0.0822,1.2934 0.1058,0.9688 0.4557,1.733 1.05,2.2928 0.5919,0.5598 1.3507,0.841 2.2738,0.8461 -0.9325,-0.2147 -1.6325,-0.6646 -2.0999,-1.3471 -0.2162,-0.3118 -0.3665,-0.6671 -0.4511,-1.0684 -0.0845,-0.4013 -0.1268,-0.9279 -0.1268,-1.5771l0 -4.6265 0 -0.1278 0 -0.248c0.0047,-0.1482 0.0305,-0.2658 0.0799,-0.3502 0.0469,-0.0869 0.1455,-0.1815 0.2912,-0.2863l0.4205 -0.3144 -2.3114 0zm19.405 10.1784l-0.2067 0 -7.5567 -8.7546 0.007 5.0252c0,0.5598 0.0306,1.0071 0.0894,1.3471 0.061,0.34 0.1573,0.6314 0.2889,0.8767 0.3123,0.5496 0.8197,0.8921 1.5221,1.0327l0 0.2326 -3.5986 0 0 -0.2326c0.6177,-0.2479 1.0311,-0.7208 1.2378,-1.4161 0.0729,-0.2275 0.1245,-0.4805 0.1504,-0.7591 0.0282,-0.2761 0.0422,-0.6288 0.0422,-1.0531l0 -5.3601c-0.357,-0.3988 -0.6342,-0.6748 -0.8268,-0.8231 -0.1926,-0.1508 -0.411,-0.2658 -0.6601,-0.3451l0 -0.2326 2.6709 0c0.1103,0.2096 0.2302,0.3988 0.357,0.57 0.0282,0.023 0.0775,0.0844 0.148,0.179 0.0704,0.0945 0.1175,0.1559 0.1409,0.1865 0.0776,0.0946 0.1175,0.1432 0.1175,0.1432l5.8161 6.7608 0 -5.1505c0,-0.524 -0.0611,-0.956 -0.1833,-1.2934 -0.1221,-0.3348 -0.3123,-0.5981 -0.5707,-0.7821 -0.2608,-0.1841 -0.6037,-0.3119 -1.0289,-0.3809l0 -0.2326 3.2816 0 0 0.2326c-0.4911,0.1432 -0.8199,0.3834 -0.9867,0.7183 -0.1668,0.3348 -0.2513,0.9125 -0.2513,1.7381l0 7.7731zm-0.2607 -0.4729l0 -1.1758 -6.455 -7.5021c-0.2936,-0.3349 -0.5309,-0.6774 -0.7095,-1.0276l-1.4046 0c0.3359,0.2199 0.6764,0.5343 1.0265,0.9432l7.5426 8.7623zm-0.841 -9.7055c0.2209,0.1202 0.3877,0.2429 0.5027,0.3681 0.1152,0.1253 0.2278,0.3068 0.3383,0.547 0.0821,-0.2402 0.1503,-0.4115 0.2067,-0.5163 0.054,-0.1048 0.1456,-0.2377 0.2748,-0.3988l-1.3225 0zm-6.199 9.5572c-0.1855,-0.2198 -0.3241,-0.4115 -0.4181,-0.5751 -0.0939,-0.161 -0.1808,-0.3629 -0.2631,-0.6007 -0.0892,0.2531 -0.1831,0.4653 -0.2841,0.6314 -0.1011,0.1687 -0.2467,0.3476 -0.4393,0.5444l1.4046 0zm9.2621 0.3809l0 -0.2326c0.4957,-0.0895 0.855,-0.2965 1.0805,-0.6211 0.1739,-0.2403 0.2608,-0.7157 0.2608,-1.4314l0 -5.6515c0,-0.455 -0.0212,-0.7848 -0.0682,-0.9892 -0.0445,-0.2045 -0.1315,-0.3809 -0.2536,-0.524 -0.2302,-0.2812 -0.5685,-0.4601 -1.0195,-0.5394l0 -0.2326 4.2869 0 0 0.2326c-0.4957,0.0895 -0.8574,0.2965 -1.0876,0.6212 -0.0916,0.1303 -0.1573,0.3041 -0.1997,0.5214 -0.0399,0.2173 -0.061,0.5189 -0.061,0.91l0 5.6515c0,0.4243 0.0235,0.7463 0.0728,0.9636 0.047,0.2173 0.1339,0.4013 0.2584,0.5496 0.2278,0.2811 0.5685,0.4601 1.0171,0.5393l0 0.2326 -4.2869 0zm0.9631 -0.3809l2.0107 0 -0.2678 -0.2172c-0.1573,-0.1253 -0.256,-0.225 -0.3006,-0.3016 -0.0424,-0.0742 -0.0658,-0.1866 -0.0658,-0.3349 0,-0.0818 0,-0.1355 -0.0024,-0.161 -0.0023,-0.0281 -0.0047,-0.0563 -0.0047,-0.0869l0 -0.1278 0 -7.0011 0 -0.1278c0,-0.0307 0.0024,-0.0588 0.0047,-0.0895 0.0024,-0.0307 0.0024,-0.0818 0.0024,-0.1585 0,-0.1482 0.0234,-0.2607 0.0658,-0.3348 0.0446,-0.0767 0.1433,-0.1764 0.3006,-0.3017l0.3899 -0.3144 -2.255 0 0.3923 0.3144c0.1598,0.1253 0.2608,0.2224 0.3007,0.294 0.0423,0.069 0.0634,0.184 0.0634,0.3425 0.0047,0.0869 0.007,0.1687 0.007,0.248l0 0.1278 0 7.0011 0 0.1278c0,0.0792 -0.0023,0.161 -0.007,0.2479 0,0.1534 -0.0211,0.2684 -0.0634,0.34 -0.0399,0.0715 -0.1409,0.1712 -0.3007,0.2965l-0.2701 0.2172zm9.6685 -1.618l2.154 -5.401c0.1832,-0.4626 0.2747,-0.8511 0.2747,-1.1604 0,-0.3834 -0.1221,-0.6927 -0.3688,-0.9228 -0.2442,-0.2326 -0.6177,-0.4013 -1.1181,-0.5061l0 -0.2326 3.5728 0 0 0.225c-0.2983,0.115 -0.5614,0.276 -0.7916,0.4831 -0.2302,0.207 -0.4439,0.4805 -0.6435,0.823 -0.1997,0.3425 -0.4206,0.8077 -0.6648,1.3956l-3.0537 7.543 -0.1527 0 -3.3309 -8.1488c-0.303,-0.7591 -0.5637,-1.2703 -0.7845,-1.5387 -0.2208,-0.2658 -0.5309,-0.4499 -0.9349,-0.5496l0 -0.2326 4.4725 0 0 0.2326 -0.1504 0.0077c-0.4416,0.0383 -0.7517,0.1252 -0.9301,0.253 -0.1786,0.1304 -0.2678,0.3374 -0.2678,0.6212 0,0.2198 0.0587,0.478 0.1784,0.7719l2.5394 6.3365zm-0.3383 0.8384l-2.8212 -7.0701c-0.1315,-0.3297 -0.1996,-0.616 -0.1996,-0.8614 0,-0.1482 0.0305,-0.2837 0.0892,-0.4064 0.0611,-0.1227 0.1762,-0.2633 0.3453,-0.4243l-2.107 0c0.2866,0.2454 0.5215,0.5495 0.7094,0.9151 0.1057,0.2096 0.1949,0.3936 0.2678,0.5521 0.0751,0.161 0.1409,0.3169 0.1996,0.4729l3.1382 7.7577 0.3783 -0.9356zm2.1822 -8.7776c0.2748,0.1866 0.4722,0.3656 0.5896,0.5394 0.1151,0.1764 0.1832,0.3962 0.202,0.6595 0.1244,-0.2787 0.2513,-0.5062 0.3782,-0.6825 0.1292,-0.1738 0.2983,-0.3451 0.5097,-0.5164l-1.6795 0zm11.005 -0.2837l0.2607 2.7862 -0.2185 0c-0.2396,-0.8589 -0.5943,-1.4928 -1.0641,-1.8992 -0.4697,-0.4064 -1.0805,-0.6109 -1.8345,-0.6109l-0.3853 0c-0.6012,0 -1.0265,0.1278 -1.2754,0.3783 -0.2513,0.253 -0.3759,0.6748 -0.3759,1.2627l0 2.5458 0.9162 0c0.6929,0 1.1979,-0.1175 1.5127,-0.3553 0.3171,-0.2377 0.5356,-0.6645 0.6553,-1.2857l0.2068 0 0 3.7907 -0.2068 0c-0.0916,-0.4984 -0.216,-0.8793 -0.3688,-1.1426 -0.155,-0.2607 -0.3688,-0.4473 -0.6483,-0.5546 -0.2772,-0.1074 -0.6529,-0.1611 -1.1298,-0.1611l-0.9373 0 0 3.2437c0,0.4933 0.0423,0.8716 0.1269,1.1349 0.0845,0.2607 0.2348,0.4448 0.4486,0.5496 0.2138,0.1048 0.5121,0.1584 0.8974,0.1584l0.6342 0c0.6225,0 1.2144,-0.2096 1.7734,-0.6313 0.6201,-0.4678 1.2286,-1.1221 1.8252,-1.9605l0.054 -0.0818 0.242 0 -0.8127 3.0545 -8.1276 0 0 -0.2326c0.4957,-0.0895 0.855,-0.2965 1.0805,-0.6211 0.1739,-0.2403 0.2609,-0.7157 0.2609,-1.4314l0 -5.6515c0,-0.455 -0.0213,-0.7848 -0.0682,-0.9892 -0.0446,-0.2045 -0.1315,-0.3809 -0.2537,-0.524 -0.2302,-0.2812 -0.5685,-0.4601 -1.0195,-0.5394l0 -0.2326 7.8316 0zm-0.5168 0.2761l-0.9889 0c0.256,0.115 0.4627,0.2403 0.6177,0.3757 0.1575,0.1355 0.3312,0.3425 0.5239,0.6212l-0.1527 -0.9969zm-1.5809 3.8648c-0.1292,0.1303 -0.2302,0.2198 -0.3006,0.2658 -0.0705,0.0486 -0.2185,0.1176 -0.444,0.2147 0.2584,0.0793 0.505,0.2403 0.7446,0.4857l0 -0.9662zm1.905 5.7l0.3853 -1.393c-0.1644,0.1994 -0.3288,0.3808 -0.4909,0.5419 -0.1645,0.1636 -0.3477,0.3169 -0.5521,0.4601 -0.2044,0.1457 -0.411,0.276 -0.6225,0.391l1.2802 0zm-6.6758 0l2.0107 0 -0.2678 -0.2172c-0.1573,-0.1253 -0.256,-0.225 -0.3006,-0.3016 -0.0423,-0.0742 -0.0658,-0.1866 -0.0658,-0.3349 0,-0.0818 0,-0.1355 -0.0023,-0.161 -0.0023,-0.0281 -0.0047,-0.0563 -0.0047,-0.0869l0 -0.1278 0 -7.0011 0 -0.1278c0,-0.0307 0.0024,-0.0588 0.0047,-0.0895 0.0023,-0.0307 0.0023,-0.0818 0.0023,-0.1585 0,-0.1482 0.0235,-0.2658 0.0728,-0.3476 0.047,-0.0818 0.1457,-0.1789 0.2936,-0.2889l0.39 -0.3144 -2.255 0 0.3923 0.3144c0.155,0.1253 0.2536,0.225 0.2983,0.3017 0.0446,0.0741 0.0658,0.1866 0.0658,0.3348 0.0047,0.0869 0.007,0.1687 0.007,0.248l0 0.1278 0 7.0011 0 0.1278c0,0.0792 -0.0023,0.161 -0.007,0.2479 0,0.1534 -0.0212,0.2684 -0.0634,0.34 -0.04,0.0715 -0.141,0.1712 -0.3007,0.2965l-0.2702 0.2172zm11.2728 -4.9818l0 3.0776c0,0.4294 0.0236,0.7489 0.0728,0.9585 0.0471,0.2096 0.141,0.3987 0.2796,0.5623 0.242,0.2761 0.6037,0.4525 1.0852,0.5317l0 0.2326 -4.3762 0 0 -0.2326c0.4957,-0.0895 0.855,-0.2965 1.0806,-0.6211 0.1738,-0.2403 0.2608,-0.7157 0.2608,-1.4314l0 -5.6515c0,-0.455 -0.0213,-0.7848 -0.0682,-0.9892 -0.0446,-0.2045 -0.1315,-0.3809 -0.2537,-0.524 -0.2208,-0.2659 -0.5614,-0.4448 -1.0195,-0.5394l0 -0.2326c0.0634,0.0051 0.1222,0.0077 0.1715,0.0077l0.6061 0.0383c0.2442,0.0128 0.5262,0.0205 0.8479,0.0205 0.5075,0 0.9702,-0.0205 1.3812,-0.0665l0.9655 -0.0894c0.3006,-0.0307 0.599,-0.046 0.8926,-0.046 0.5426,0 1.0265,0.0613 1.454,0.1814 0.4252,0.1176 0.787,0.2914 1.0806,0.5164 0.2936,0.2249 0.5191,0.501 0.6812,0.8256 0.1597,0.3272 0.2396,0.6927 0.2396,1.0991 0,0.6722 -0.2115,1.1988 -0.6366,1.5745 -0.4252,0.3783 -1.0523,0.5982 -1.8815,0.6646 0.5143,0.2198 0.9489,0.5189 1.3037,0.9023 0.3547,0.3809 0.7798,1.0046 1.2707,1.8685 0.5544,0.9662 0.9913,1.641 1.3132,2.0219 0.3218,0.3783 0.6764,0.6492 1.0663,0.8077l0 0.2096c-0.5003,-0.0102 -0.9255,-0.0588 -1.2754,-0.1508 -0.3523,-0.0895 -0.7024,-0.248 -1.05,-0.478 -0.4369,-0.2939 -0.8457,-0.6927 -1.2309,-1.1911 -0.3853,-0.4985 -0.7234,-1.071 -1.0124,-1.7152l-0.3641 -0.8307c-0.1761,-0.3885 -0.3289,-0.6722 -0.4628,-0.8486 -0.1315,-0.1789 -0.2912,-0.2991 -0.4744,-0.3655 -0.1833,-0.0639 -0.4322,-0.0972 -0.7494,-0.0972l-1.198 0zm0 -0.299l1.2332 0c0.7095,0 1.2215,-0.0869 1.534,-0.2607 0.2794,-0.156 0.4979,-0.3962 0.6577,-0.7234 0.1573,-0.3272 0.2372,-0.7029 0.2372,-1.1272 0,-0.4397 -0.0939,-0.8333 -0.2796,-1.1835 -0.1855,-0.3502 -0.4438,-0.6211 -0.7774,-0.8129 -0.3336,-0.1917 -0.7118,-0.2888 -1.1393,-0.2888 -0.6319,0 -1.0594,0.2147 -1.2802,0.6441 -0.1245,0.2454 -0.1856,0.6288 -0.1856,1.1554l0 2.597zm2.6849 0.0306c0.3077,-0.0741 0.5873,-0.1814 0.8433,-0.322 0.2537,-0.1406 0.4628,-0.2991 0.6296,-0.4806 0.1644,-0.1789 0.2912,-0.3834 0.3804,-0.6134 0.0894,-0.2301 0.1339,-0.4678 0.1339,-0.7183 0,-0.5444 -0.1784,-1.0199 -0.5355,-1.4237 -0.3571,-0.4039 -0.8315,-0.662 -1.4188,-0.7771 0.2631,0.1534 0.4816,0.3374 0.6624,0.5521 0.1786,0.2148 0.3125,0.4601 0.404,0.7311 0.094,0.2709 0.1386,0.5649 0.1386,0.8793 0,0.5444 -0.0986,0.9892 -0.2959,1.3368 -0.1973,0.3476 -0.5121,0.6262 -0.942,0.8358zm4.3409 5.6388c-0.2418,-0.1457 -0.4392,-0.2761 -0.5919,-0.3962 -0.1503,-0.1202 -0.3265,-0.2889 -0.5285,-0.5036 -0.2396,-0.2786 -0.4252,-0.5214 -0.5614,-0.7259 -0.1363,-0.2045 -0.3594,-0.5853 -0.6719,-1.1451 -0.2936,-0.5342 -0.5567,-0.9662 -0.7939,-1.296 -0.2372,-0.3297 -0.4744,-0.593 -0.7117,-0.7923 -0.2396,-0.202 -0.5027,-0.3656 -0.7916,-0.4959 0.1832,0.2045 0.3336,0.4064 0.4533,0.6083 0.0658,0.1074 0.1786,0.34 0.3454,0.6953 0.0492,0.1048 0.0986,0.207 0.1479,0.3067 0.047,0.0997 0.0939,0.2045 0.141,0.3144 0.4909,1.0429 1.017,1.8353 1.5832,2.3772 0.5637,0.5419 1.2238,0.892 1.9801,1.0531zm-9.0013 -0.3886l2.0107 0 -0.2677 -0.2172c-0.1574,-0.1253 -0.2561,-0.225 -0.3006,-0.3016 -0.0424,-0.0742 -0.0658,-0.1866 -0.0658,-0.3349 0,-0.0818 0,-0.1355 -0.0024,-0.161 -0.0023,-0.0281 -0.0047,-0.0563 -0.0047,-0.0869l0 -0.1278 0 -7.0011 0 -0.1278c0,-0.0307 0.0024,-0.0588 0.0047,-0.0895 0.0024,-0.0307 0.0024,-0.0818 0.0024,-0.1585 0,-0.138 0.0211,-0.2454 0.0587,-0.3221 0.0399,-0.0741 0.1245,-0.1661 0.2584,-0.276l0.0493 -0.0384 0.3852 -0.322 -0.249 0.0153c-0.4181,0.0307 -0.794,0.046 -1.1275,0.046 -0.2067,0 -0.4886,-0.0076 -0.848,-0.023l0.3665 0.2837c0.1503,0.11 0.2489,0.2071 0.2959,0.2889 0.0447,0.0818 0.0682,0.1994 0.0682,0.3476 0.0047,0.0869 0.007,0.1687 0.007,0.248l0 0.1278 0 7.0011 0 0.1278c0,0.0792 -0.0023,0.161 -0.007,0.2479 0,0.1534 -0.0211,0.2684 -0.0634,0.34 -0.04,0.0715 -0.141,0.1712 -0.3007,0.2965l-0.2702 0.2172zm15.6302 -9.6083l0.3994 2.4922 -0.2349 0c-0.1245,-0.4473 -0.2444,-0.8026 -0.3641,-1.0633 -0.1198,-0.2582 -0.2537,-0.4755 -0.3994,-0.6518 -0.2349,-0.2837 -0.5144,-0.5061 -0.8432,-0.6646 -0.3289,-0.161 -0.6718,-0.2403 -1.0289,-0.2403 -0.505,0 -0.9185,0.1483 -1.2379,0.4448 -0.3218,0.299 -0.4815,0.6799 -0.4815,1.1502 0,0.5138 0.2066,0.9407 0.6248,1.2806 0.2161,0.1687 0.4462,0.3195 0.6929,0.4524 0.2443,0.133 0.6296,0.3196 1.151,0.5573 0.3594,0.1559 0.6624,0.2965 0.9091,0.4217 0.249,0.1227 0.4463,0.2352 0.5989,0.3349 0.1504,0.0997 0.3031,0.2147 0.4534,0.345 0.6389,0.5598 0.9584,1.2909 0.9584,2.1957 0,0.593 -0.1504,1.1298 -0.4487,1.6078 -0.2983,0.4805 -0.7117,0.8563 -1.2378,1.1272 -0.5286,0.2735 -1.1135,0.409 -1.7547,0.409 -0.4464,0 -0.9608,-0.0716 -1.5434,-0.2173 -0.3429,-0.0894 -0.7939,-0.2505 -1.3553,-0.478l-0.1926 -0.0766 -0.2068 -2.8373 0.2068 0c0.202,0.7643 0.5285,1.4442 0.9772,2.0449 0.5919,0.7821 1.2966,1.1758 2.1141,1.1758 0.4157,0 0.7869,-0.0869 1.111,-0.2582 0.3241,-0.1738 0.5755,-0.4115 0.7611,-0.7131 0.1832,-0.3017 0.2748,-0.6467 0.2748,-1.0353 0,-0.345 -0.0728,-0.6569 -0.2138,-0.9329 -0.1432,-0.2786 -0.3734,-0.5394 -0.6953,-0.7873 -0.3218,-0.2479 -0.761,-0.501 -1.3201,-0.7592 -0.8127,-0.3859 -1.306,-0.6287 -1.4798,-0.7335 -0.3359,-0.2045 -0.6131,-0.4269 -0.8339,-0.6672 -0.2208,-0.2403 -0.3829,-0.4984 -0.4886,-0.7796 -0.1057,-0.2786 -0.1574,-0.5777 -0.1574,-0.8972 0,-0.4959 0.1198,-0.9457 0.3618,-1.3573 0.2395,-0.4089 0.5707,-0.731 0.9889,-0.9662 0.4204,-0.2326 0.8855,-0.3501 1.3953,-0.3501 0.3194,0 0.6788,0.0562 1.0734,0.1712l0.4135 0.1202c0.3054,0.0894 0.6342,0.1354 0.9818,0.1354l0.0705 0zm-0.5238 9.3604c0.7564,-0.5956 1.1346,-1.3087 1.1346,-2.142 0,-0.3297 -0.0612,-0.6492 -0.188,-0.9611 -0.1268,-0.3144 -0.3053,-0.5802 -0.5402,-0.7975 -0.3406,-0.3348 -0.9373,-0.6978 -1.797,-1.0863 -0.7094,-0.3297 -1.1722,-0.5521 -1.3859,-0.6672 -0.2138,-0.115 -0.4298,-0.2683 -0.6507,-0.4652 -0.458,-0.3987 -0.6882,-0.9023 -0.6882,-1.5106 0,-0.1815 0.0188,-0.3451 0.0563,-0.4908 0.0352,-0.1482 0.0917,-0.2914 0.1645,-0.4268 0.0728,-0.1381 0.195,-0.3221 0.3641,-0.5522 -0.6554,0.5164 -0.9843,1.1554 -0.9843,1.9248 0,0.7387 0.2655,1.324 0.7987,1.7535 0.2796,0.23 0.6014,0.4345 0.9631,0.6134 0.047,0.0256 0.3993,0.1943 1.0594,0.5087 0.7987,0.3757 1.3506,0.7157 1.6537,1.0198 0.4815,0.4831 0.7211,1.0557 0.7211,1.7152 0,0.3195 -0.054,0.6007 -0.1621,0.8486 -0.1081,0.2479 -0.2795,0.4857 -0.5191,0.7157zm-4.5899 -0.2914c0.303,0.1892 0.6883,0.3706 1.1557,0.547 -0.3077,-0.3016 -0.5403,-0.547 -0.6976,-0.7438 -0.1598,-0.1943 -0.3383,-0.4678 -0.5403,-0.8231l0.0822 1.0199zm6.9718 0.9202l0 -0.2326c0.4957,-0.0895 0.855,-0.2965 1.0805,-0.6211 0.1739,-0.2403 0.2608,-0.7157 0.2608,-1.4314l0 -5.6515c0,-0.455 -0.0212,-0.7848 -0.0682,-0.9892 -0.0445,-0.2045 -0.1315,-0.3809 -0.2536,-0.524 -0.2302,-0.2812 -0.5685,-0.4601 -1.0195,-0.5394l0 -0.2326 4.2869 0 0 0.2326c-0.4957,0.0895 -0.8574,0.2965 -1.0876,0.6212 -0.0916,0.1303 -0.1573,0.3041 -0.1997,0.5214 -0.0399,0.2173 -0.061,0.5189 -0.061,0.91l0 5.6515c0,0.4243 0.0235,0.7463 0.0728,0.9636 0.047,0.2173 0.1339,0.4013 0.2584,0.5496 0.2278,0.2811 0.5685,0.4601 1.0171,0.5393l0 0.2326 -4.2869 0zm0.9631 -0.3809l2.0107 0 -0.2678 -0.2172c-0.1573,-0.1253 -0.256,-0.225 -0.3006,-0.3016 -0.0423,-0.0742 -0.0658,-0.1866 -0.0658,-0.3349 0,-0.0818 0,-0.1355 -0.0024,-0.161 -0.0023,-0.0281 -0.0047,-0.0563 -0.0047,-0.0869l0 -0.1278 0 -7.0011 0 -0.1278c0,-0.0307 0.0024,-0.0588 0.0047,-0.0895 0.0024,-0.0307 0.0024,-0.0818 0.0024,-0.1585 0,-0.1482 0.0235,-0.2607 0.0658,-0.3348 0.0446,-0.0767 0.1433,-0.1764 0.3006,-0.3017l0.3899 -0.3144 -2.255 0 0.3924 0.3144c0.1597,0.1253 0.2607,0.2224 0.3006,0.294 0.0423,0.069 0.0635,0.184 0.0635,0.3425 0.0046,0.0869 0.0069,0.1687 0.0069,0.248l0 0.1278 0 7.0011 0 0.1278c0,0.0792 -0.0023,0.161 -0.0069,0.2479 0,0.1534 -0.0212,0.2684 -0.0635,0.34 -0.0399,0.0715 -0.1409,0.1712 -0.3006,0.2965l-0.2702 0.2172zm4.0802 0.3809l0.0211 -0.2326c0.4957,-0.0895 0.855,-0.2965 1.0805,-0.6211 0.1739,-0.2403 0.2608,-0.7157 0.2608,-1.4314l0 -5.6515c0,-0.4295 -0.0211,-0.7515 -0.0658,-0.9637 -0.0422,-0.2121 -0.1292,-0.3962 -0.256,-0.5495 -0.2302,-0.2812 -0.5709,-0.4601 -1.0195,-0.5394l0 -0.2326c0.1739,0.0102 0.2631,0.0154 0.2678,0.0154l0.8057 0.0434c0.2608,0.0153 0.5403,0.023 0.8386,0.023 0.5379,0 1.1204,-0.0307 1.75,-0.0894 0.5826,-0.0486 1.0124,-0.0742 1.2919,-0.0742 0.7353,0 1.4,0.1227 1.9967,0.3707 0.5966,0.2453 1.1134,0.6006 1.5527,1.0582 0.4369,0.4601 0.7752,1.0071 1.0147,1.641 0.2372,0.6339 0.3571,1.3291 0.3571,2.0883 0,0.7643 -0.1222,1.4698 -0.3688,2.1164 -0.2443,0.6467 -0.5966,1.1988 -1.0523,1.6538 -0.4558,0.4576 -1.0007,0.8077 -1.6302,1.0531 -0.6319,0.2454 -1.3343,0.3681 -2.1094,0.3681 -0.2843,0 -0.74,-0.0307 -1.3624,-0.092 -0.4417,-0.0435 -0.8692,-0.0665 -1.2873,-0.0665 -0.2937,0 -0.6202,0.0103 -0.9772,0.0307l-0.9373 0.0741c-0.0493,0 -0.108,0.0026 -0.1714,0.0077zm2.9738 -8.3865l-0.0141 5.787c0,0.6441 0.0517,1.1119 0.1574,1.4007 0.101,0.2709 0.2725,0.478 0.5144,0.6262 0.2397,0.1457 0.5309,0.2199 0.8692,0.2199 0.5285,0 1.0147,-0.1176 1.4587,-0.3553 0.4463,-0.2378 0.8338,-0.5752 1.1674,-1.0174 0.3312,-0.4422 0.585,-0.9662 0.7611,-1.5694 0.1738,-0.6032 0.2607,-1.2525 0.2607,-1.9477 0,-0.9125 -0.155,-1.7331 -0.4651,-2.4564 -0.31,-0.7234 -0.7399,-1.2908 -1.2942,-1.7024 -0.5521,-0.4115 -1.1675,-0.6185 -1.8464,-0.6185 -0.5378,0 -0.9325,0.1303 -1.1886,0.3936 -0.2536,0.2607 -0.3805,0.6748 -0.3805,1.2397zm-1.9896 8.0056c0.3994,-0.046 0.7587,-0.069 1.0805,-0.069 0.3218,0 0.6319,0.0179 0.9302,0.0537l-0.2701 -0.2019c-0.1363,-0.0997 -0.2326,-0.1968 -0.2842,-0.2863 -0.0541,-0.0895 -0.0799,-0.207 -0.0799,-0.3502 -0.0047,-0.0869 -0.0071,-0.1687 -0.0071,-0.2479l0 -0.1278 0 -7.0011 0 -0.1278c0,-0.0793 0.0024,-0.1611 0.0071,-0.248 0,-0.1482 0.0212,-0.2607 0.0658,-0.3348 0.0423,-0.0767 0.1433,-0.1764 0.2983,-0.3017l0.3664 -0.2913c-0.404,0.0408 -0.754,0.0613 -1.0476,0.0613 -0.2748,0 -0.6178,-0.0179 -1.0312,-0.0537l-0.1245 -0.0076 0.3641 0.2913c0.148,0.11 0.2443,0.2071 0.2936,0.2889 0.047,0.0818 0.0729,0.1994 0.0729,0.3476 0,0.0511 0,0.0946 0.0023,0.1355 0.0024,0.0409 0.0046,0.0767 0.0046,0.1125l0 0.1278 0 7.0011 0 0.1278c0,0.0306 -0.0022,0.0639 -0.0046,0.1048 -0.0023,0.0409 -0.0023,0.0869 -0.0023,0.1431 0,0.1534 -0.0212,0.2684 -0.0634,0.34 -0.04,0.0715 -0.141,0.1712 -0.3031,0.2965l-0.2678 0.2172zm4.6322 0.0358c0.5262,-0.1354 0.9819,-0.322 1.3625,-0.5598 0.3804,-0.2402 0.7375,-0.5597 1.0734,-0.9585 0.7564,-0.9304 1.1346,-2.0295 1.1346,-3.3024 0,-0.7643 -0.1316,-1.4749 -0.3994,-2.1293 -0.2654,-0.6518 -0.6482,-1.209 -1.1439,-1.664 -0.498,-0.4575 -1.0735,-0.7847 -1.7241,-0.979 0.2465,0.1304 0.4791,0.2761 0.6976,0.4397 0.2184,0.161 0.411,0.34 0.5778,0.5342 0.1668,0.1943 0.3125,0.3937 0.4369,0.6007 0.5286,0.8716 0.7916,1.9119 0.7916,3.1133 0,0.639 -0.0728,1.2525 -0.2207,1.8353 -0.1457,0.5853 -0.3571,1.094 -0.6319,1.5285 -0.2349,0.3732 -0.5051,0.6799 -0.8081,0.9176 -0.3053,0.2352 -0.6882,0.4448 -1.1463,0.6237zm11.1459 -3.4353l-3.5423 0 -0.3852 0.9585c-0.1855,0.4677 -0.2772,0.8537 -0.2772,1.1604 0,0.2582 0.0541,0.4831 0.1621,0.6697 0.1081,0.1866 0.2701,0.3426 0.4816,0.4627 0.2137,0.1227 0.4956,0.2224 0.8432,0.2965l0 0.2326 -3.5704 0 0 -0.2249c0.4298,-0.1585 0.801,-0.4397 1.1111,-0.8384 0.31,-0.3988 0.6365,-1.0199 0.9795,-1.866l3.0419 -7.4867 0.1786 0 3.3121 8.0951c0.0093,0.0051 0.0163,0.0179 0.0234,0.0409 0.0071,0.023 0.0165,0.046 0.0282,0.0715 0.0094,0.0256 0.0235,0.0512 0.0376,0.0818l0.303 0.6825c0.1644,0.363 0.3523,0.639 0.5638,0.8231 0.2114,0.184 0.4745,0.3144 0.7916,0.3885l0 0.2326 -4.3902 0 0 -0.2326c0.371,-0.0307 0.6365,-0.0767 0.7962,-0.1406 0.3312,-0.1355 0.4957,-0.3706 0.4957,-0.7055 0,-0.1636 -0.0728,-0.4345 -0.2185,-0.8077l-0.7658 -1.894zm-0.1292 -0.317l-1.6584 -4.0642 -1.6324 4.0642 3.2908 0zm-1.5151 -4.3862l2.6497 6.4924 0.0705 0.1636c0.1409,0.3348 0.2113,0.5802 0.2113,0.7336 0,0.2147 -0.1127,0.4524 -0.3358,0.7131l1.8158 0c-0.2068,-0.2096 -0.3853,-0.4524 -0.5356,-0.7233 -0.1527,-0.2735 -0.3289,-0.6518 -0.5309,-1.1349l-2.9527 -7.2261 -0.3923 0.9816zm-2.4076 8.1027c-0.1575,-0.2044 -0.2655,-0.3885 -0.3312,-0.5521 -0.0635,-0.161 -0.0963,-0.3374 -0.0963,-0.5265 0,-0.0844 0.0023,-0.1534 0.0069,-0.202 -0.1408,0.2991 -0.2818,0.5394 -0.4204,0.7209 -0.1363,0.184 -0.3218,0.368 -0.5567,0.5597l1.3977 0zm8.6372 0.3809l0.0211 -0.2326c0.4957,-0.0895 0.855,-0.2965 1.0805,-0.6211 0.1739,-0.2403 0.2609,-0.7157 0.2609,-1.4314l0 -5.6515c0,-0.4295 -0.0212,-0.7515 -0.0658,-0.9637 -0.0423,-0.2121 -0.1293,-0.3962 -0.2561,-0.5495 -0.2302,-0.2812 -0.5708,-0.4601 -1.0195,-0.5394l0 -0.2326c0.1739,0.0102 0.2631,0.0154 0.2678,0.0154l0.8058 0.0434c0.2607,0.0153 0.5402,0.023 0.8385,0.023 0.5379,0 1.1205,-0.0307 1.75,-0.0894 0.5826,-0.0486 1.0124,-0.0742 1.2919,-0.0742 0.7353,0 1.4,0.1227 1.9967,0.3707 0.5966,0.2453 1.1134,0.6006 1.5527,1.0582 0.4369,0.4601 0.7752,1.0071 1.0148,1.641 0.2371,0.6339 0.357,1.3291 0.357,2.0883 0,0.7643 -0.1221,1.4698 -0.3688,2.1164 -0.2443,0.6467 -0.5966,1.1988 -1.0523,1.6538 -0.4557,0.4576 -1.0007,0.8077 -1.6302,1.0531 -0.6319,0.2454 -1.3343,0.3681 -2.1094,0.3681 -0.2843,0 -0.74,-0.0307 -1.3624,-0.092 -0.4417,-0.0435 -0.8692,-0.0665 -1.2873,-0.0665 -0.2936,0 -0.6202,0.0103 -0.9772,0.0307l-0.9372 0.0741c-0.0494,0 -0.1081,0.0026 -0.1715,0.0077zm2.9738 -8.3865l-0.0141 5.787c0,0.6441 0.0517,1.1119 0.1575,1.4007 0.101,0.2709 0.2724,0.478 0.5143,0.6262 0.2397,0.1457 0.5309,0.2199 0.8692,0.2199 0.5285,0 1.0147,-0.1176 1.4587,-0.3553 0.4463,-0.2378 0.8339,-0.5752 1.1674,-1.0174 0.3312,-0.4422 0.585,-0.9662 0.7611,-1.5694 0.1738,-0.6032 0.2608,-1.2525 0.2608,-1.9477 0,-0.9125 -0.1551,-1.7331 -0.4651,-2.4564 -0.3101,-0.7234 -0.74,-1.2908 -1.2943,-1.7024 -0.5521,-0.4115 -1.1675,-0.6185 -1.8463,-0.6185 -0.5379,0 -0.9326,0.1303 -1.1887,0.3936 -0.2536,0.2607 -0.3805,0.6748 -0.3805,1.2397zm-1.9896 8.0056c0.3994,-0.046 0.7587,-0.069 1.0805,-0.069 0.3219,0 0.6319,0.0179 0.9302,0.0537l-0.2701 -0.2019c-0.1362,-0.0997 -0.2326,-0.1968 -0.2842,-0.2863 -0.054,-0.0895 -0.0799,-0.207 -0.0799,-0.3502 -0.0046,-0.0869 -0.007,-0.1687 -0.007,-0.2479l0 -0.1278 0 -7.0011 0 -0.1278c0,-0.0793 0.0024,-0.1611 0.007,-0.248 0,-0.1482 0.0212,-0.2607 0.0658,-0.3348 0.0423,-0.0767 0.1433,-0.1764 0.2983,-0.3017l0.3664 -0.2913c-0.4039,0.0408 -0.754,0.0613 -1.0476,0.0613 -0.2748,0 -0.6177,-0.0179 -1.0312,-0.0537l-0.1245 -0.0076 0.3641 0.2913c0.148,0.11 0.2444,0.2071 0.2936,0.2889 0.0471,0.0818 0.0729,0.1994 0.0729,0.3476 0,0.0511 0,0.0946 0.0023,0.1355 0.0024,0.0409 0.0047,0.0767 0.0047,0.1125l0 0.1278 0 7.0011 0 0.1278c0,0.0306 -0.0023,0.0639 -0.0047,0.1048 -0.0023,0.0409 -0.0023,0.0869 -0.0023,0.1431 0,0.1534 -0.0212,0.2684 -0.0634,0.34 -0.04,0.0715 -0.141,0.1712 -0.3031,0.2965l-0.2678 0.2172zm4.6322 0.0358c0.5262,-0.1354 0.9819,-0.322 1.3625,-0.5598 0.3804,-0.2402 0.7376,-0.5597 1.0735,-0.9585 0.7563,-0.9304 1.1345,-2.0295 1.1345,-3.3024 0,-0.7643 -0.1316,-1.4749 -0.3994,-2.1293 -0.2654,-0.6518 -0.6482,-1.209 -1.1439,-1.664 -0.498,-0.4575 -1.0735,-0.7847 -1.7241,-0.979 0.2466,0.1304 0.4791,0.2761 0.6976,0.4397 0.2184,0.161 0.411,0.34 0.5778,0.5342 0.1668,0.1943 0.3125,0.3937 0.4369,0.6007 0.5286,0.8716 0.7916,1.9119 0.7916,3.1133 0,0.639 -0.0727,1.2525 -0.2207,1.8353 -0.1457,0.5853 -0.3571,1.094 -0.6319,1.5285 -0.2349,0.3732 -0.5051,0.6799 -0.8081,0.9176 -0.3053,0.2352 -0.6882,0.4448 -1.1463,0.6237z"/>
   <path class="fil2" d="M146.8793 111.6555l0.2607 2.7862 -0.2184 0c-0.2396,-0.8589 -0.5943,-1.4928 -1.0641,-1.8992 -0.4698,-0.4064 -1.0805,-0.6109 -1.8346,-0.6109l-0.3852 0c-0.6013,0 -1.0265,0.1278 -1.2754,0.3783 -0.2514,0.253 -0.3759,0.6748 -0.3759,1.2627l0 2.5458 0.9161 0c0.6929,0 1.198,-0.1175 1.5128,-0.3553 0.3171,-0.2377 0.5355,-0.6645 0.6553,-1.2857l0.2068 0 0 3.7907 -0.2068 0c-0.0916,-0.4984 -0.2161,-0.8793 -0.3688,-1.1426 -0.155,-0.2607 -0.3688,-0.4473 -0.6483,-0.5546 -0.2772,-0.1074 -0.653,-0.1611 -1.1298,-0.1611l-0.9373 0 0 3.2437c0,0.4933 0.0423,0.8716 0.1268,1.1349 0.0846,0.2607 0.2349,0.4448 0.4487,0.5496 0.2137,0.1048 0.5121,0.1584 0.8973,0.1584l0.6342 0c0.6225,0 1.2145,-0.2096 1.7735,-0.6313 0.6201,-0.4678 1.2286,-1.1221 1.8252,-1.9605l0.054 -0.0818 0.242 0 -0.8128 3.0545 -8.1275 0 0 -0.2326c0.4957,-0.0895 0.855,-0.2965 1.0805,-0.6211 0.1739,-0.2403 0.2608,-0.7157 0.2608,-1.4314l0 -5.6515c0,-0.455 -0.0212,-0.7848 -0.0682,-0.9892 -0.0445,-0.2045 -0.1315,-0.3809 -0.2536,-0.524 -0.2302,-0.2812 -0.5685,-0.4601 -1.0195,-0.5394l0 -0.2326 7.8315 0zm-0.5167 0.2761l-0.9889 0c0.256,0.115 0.4627,0.2403 0.6177,0.3757 0.1574,0.1355 0.3312,0.3425 0.5238,0.6212l-0.1526 -0.9969zm-1.5809 3.8648c-0.1293,0.1303 -0.2302,0.2198 -0.3006,0.2658 -0.0705,0.0486 -0.2186,0.1176 -0.444,0.2147 0.2583,0.0793 0.505,0.2403 0.7446,0.4857l0 -0.9662zm1.905 5.7l0.3852 -1.393c-0.1644,0.1994 -0.3288,0.3808 -0.4909,0.5419 -0.1644,0.1636 -0.3476,0.3169 -0.552,0.4601 -0.2044,0.1457 -0.4111,0.276 -0.6225,0.391l1.2802 0zm-6.6758 0l2.0107 0 -0.2678 -0.2172c-0.1573,-0.1253 -0.256,-0.225 -0.3006,-0.3016 -0.0424,-0.0742 -0.0658,-0.1866 -0.0658,-0.3349 0,-0.0818 0,-0.1355 -0.0024,-0.161 -0.0023,-0.0281 -0.0047,-0.0563 -0.0047,-0.0869l0 -0.1278 0 -7.0011 0 -0.1278c0,-0.0307 0.0024,-0.0588 0.0047,-0.0895 0.0024,-0.0307 0.0024,-0.0818 0.0024,-0.1585 0,-0.1482 0.0234,-0.2658 0.0728,-0.3476 0.0469,-0.0818 0.1456,-0.1789 0.2936,-0.2889l0.3899 -0.3144 -2.255 0 0.3923 0.3144c0.1551,0.1253 0.2537,0.225 0.2983,0.3017 0.0447,0.0741 0.0658,0.1866 0.0658,0.3348 0.0047,0.0869 0.007,0.1687 0.007,0.248l0 0.1278 0 7.0011 0 0.1278c0,0.0792 -0.0023,0.161 -0.007,0.2479 0,0.1534 -0.0211,0.2684 -0.0634,0.34 -0.0399,0.0715 -0.1409,0.1712 -0.3007,0.2965l-0.2701 0.2172z"/>
  </g>
  <path class="fil3" d="M50.186 128.2614l0.1593 0.914 -0.0937 0c-0.0497,-0.1641 -0.0975,-0.2943 -0.1453,-0.3899 -0.0478,-0.0948 -0.1012,-0.1744 -0.1594,-0.2391 -0.0937,-0.1041 -0.2053,-0.1856 -0.3365,-0.2438 -0.1313,-0.059 -0.2681,-0.0881 -0.4106,-0.0881 -0.2016,0 -0.3665,0.0544 -0.494,0.1631 -0.1285,0.1097 -0.1922,0.2494 -0.1922,0.4219 0,0.1885 0.0825,0.345 0.2493,0.4697 0.0863,0.0618 0.1782,0.1172 0.2766,0.1659 0.0975,0.0488 0.2512,0.1172 0.4594,0.2044 0.1434,0.0572 0.2643,0.1087 0.3627,0.1546 0.0994,0.0451 0.1782,0.0863 0.2391,0.1229 0.06,0.0365 0.1209,0.0787 0.1809,0.1265 0.255,0.2053 0.3825,0.4734 0.3825,0.8053 0,0.2175 -0.06,0.4144 -0.179,0.5896 -0.1192,0.1763 -0.2841,0.3141 -0.4941,0.4134 -0.2109,0.1003 -0.4444,0.15 -0.7003,0.15 -0.1781,0 -0.3834,-0.0262 -0.6159,-0.0796 -0.1368,-0.0328 -0.3169,-0.0919 -0.5409,-0.1753l-0.0768 -0.0281 -0.0826 -1.0406 0.0826 0c0.0805,0.2802 0.2109,0.5296 0.3899,0.7499 0.2363,0.2869 0.5175,0.4312 0.8437,0.4312 0.166,0 0.314,-0.0319 0.4435,-0.0946 0.1293,-0.0638 0.2296,-0.151 0.3037,-0.2616 0.0731,-0.1106 0.1097,-0.2371 0.1097,-0.3796 0,-0.1266 -0.0291,-0.241 -0.0854,-0.3422 -0.0571,-0.1022 -0.149,-0.1978 -0.2774,-0.2888 -0.1285,-0.0909 -0.3037,-0.1837 -0.5269,-0.2784 -0.3243,-0.1416 -0.5212,-0.2306 -0.5906,-0.269 -0.1341,-0.075 -0.2447,-0.1566 -0.3328,-0.2447 -0.0881,-0.0881 -0.1528,-0.1828 -0.195,-0.2859 -0.0422,-0.1022 -0.0628,-0.2119 -0.0628,-0.3291 0,-0.1818 0.0479,-0.3468 0.1444,-0.4978 0.0956,-0.15 0.2278,-0.2681 0.3947,-0.3543 0.1678,-0.0853 0.3534,-0.1284 0.5568,-0.1284 0.1275,0 0.2709,0.0206 0.4284,0.0627l0.165 0.0442c0.1219,0.0328 0.2531,0.0496 0.3919,0.0496l0.0281 0zm-5.7785 1.7737c0,0.269 0.03,0.5193 0.09,0.749 0.061,0.2297 0.1472,0.4256 0.2597,0.5877 0.1125,0.1623 0.2484,0.286 0.4068,0.3723 0.1585,0.0853 0.3338,0.1284 0.526,0.1284 0.3131,0 0.5868,-0.1238 0.8212,-0.3731 0.1425,-0.1538 0.2531,-0.3553 0.3309,-0.6056 0.0778,-0.2503 0.1162,-0.5372 0.1162,-0.8615 0,-0.2813 -0.029,-0.5363 -0.089,-0.7631 -0.0591,-0.2269 -0.1444,-0.42 -0.255,-0.5794 -0.1116,-0.1594 -0.2447,-0.2821 -0.4012,-0.3684 -0.1566,-0.0863 -0.3329,-0.1284 -0.5288,-0.1284 -0.194,0 -0.3693,0.0431 -0.5259,0.1303 -0.1565,0.0862 -0.2906,0.2109 -0.4021,0.3731 -0.1116,0.1621 -0.1978,0.3581 -0.2588,0.5878 -0.06,0.2296 -0.09,0.48 -0.09,0.7509zm-0.6928 0.0196c0,-0.2652 0.0516,-0.5193 0.1538,-0.7611 0.1031,-0.241 0.2456,-0.4538 0.4274,-0.6356 0.1819,-0.1819 0.3929,-0.3235 0.6319,-0.4229 0.2391,-0.0993 0.4913,-0.1499 0.7565,-0.1499 0.3553,0 0.6834,0.089 0.9844,0.2653 0.3018,0.1762 0.5399,0.4162 0.7171,0.718 0.1763,0.3019 0.2653,0.631 0.2653,0.9862 0,0.2635 -0.0506,0.5147 -0.15,0.7538 -0.1003,0.239 -0.2409,0.4499 -0.4247,0.6328 -0.1828,0.1837 -0.3927,0.3262 -0.629,0.4274 -0.2363,0.1012 -0.4874,0.1528 -0.7546,0.1528 -0.361,0 -0.6928,-0.0881 -0.9956,-0.2643 -0.3037,-0.1754 -0.5428,-0.4144 -0.7181,-0.7153 -0.1762,-0.3009 -0.2644,-0.6299 -0.2644,-0.9872zm-3.1245 -1.2055l-0.0056 2.1224c0,0.2362 0.0206,0.4078 0.0628,0.5137 0.0403,0.0994 0.1087,0.1753 0.2053,0.2297 0.0956,0.0534 0.2119,0.0806 0.3469,0.0806 0.2109,0 0.4049,-0.0431 0.5821,-0.1303 0.1781,-0.0872 0.3328,-0.2109 0.4659,-0.3731 0.1322,-0.1622 0.2335,-0.3544 0.3037,-0.5756 0.0694,-0.2213 0.1041,-0.4594 0.1041,-0.7143 0,-0.3347 -0.0619,-0.6356 -0.1856,-0.9009 -0.1237,-0.2653 -0.2953,-0.4734 -0.5166,-0.6244 -0.2203,-0.1509 -0.4659,-0.2268 -0.7368,-0.2268 -0.2147,0 -0.3721,0.0478 -0.4743,0.1443 -0.1012,0.0957 -0.1519,0.2475 -0.1519,0.4547zm-1.1868 3.0758l0.0084 -0.0853c0.1978,-0.0328 0.3412,-0.1088 0.4313,-0.2278 0.0693,-0.0882 0.104,-0.2625 0.104,-0.525l0 -2.0727c0,-0.1575 -0.0084,-0.2756 -0.0263,-0.3534 -0.0168,-0.0778 -0.0515,-0.1453 -0.1021,-0.2016 -0.0919,-0.1031 -0.2278,-0.1687 -0.4069,-0.1978l0 -0.0853c0.0694,0.0038 0.105,0.0056 0.1069,0.0056l0.3216 0.016c0.104,0.0056 0.2155,0.0084 0.3346,0.0084 0.2147,0 0.4472,-0.0112 0.6984,-0.0328 0.2325,-0.0178 0.404,-0.0272 0.5156,-0.0272 0.2934,0 0.5588,0.045 0.7969,0.1359 0.2381,0.0901 0.4443,0.2203 0.6196,0.3881 0.1744,0.1688 0.3094,0.3694 0.405,0.6019 0.0947,0.2325 0.1425,0.4874 0.1425,0.7659 0,0.2803 -0.0488,0.539 -0.1472,0.7762 -0.0975,0.2371 -0.2381,0.4396 -0.42,0.6065 -0.1819,0.1678 -0.3993,0.2962 -0.6506,0.3863 -0.2521,0.09 -0.5324,0.1349 -0.8418,0.1349 -0.1134,0 -0.2953,-0.0112 -0.5437,-0.0337 -0.1762,-0.0159 -0.3469,-0.0244 -0.5137,-0.0244 -0.1172,0 -0.2476,0.0038 -0.3901,0.0112l-0.374 0.0273c-0.0196,0 -0.0431,0.0009 -0.0684,0.0028z"/>
  <path class="fil0 str0" d="M56.2468 136.2857l5.2448 0 -0.52 3.401 -9.7432 0 2.2088 -14.4462 4.4984 0 -1.6888 11.0452zm12.2344 -7.6442l-0.3071 2.0084 4.4633 0 -0.5105 3.3394 -4.4634 0 -0.3511 2.2964 5.9031 0 -0.52 3.401 -10.3603 0 2.2088 -14.4462 10.1752 0 -0.52 3.401 -5.718 0zm10.3312 0l-3.6405 0 0.52 -3.401 11.7795 0 -0.52 3.401 -3.62 0 -1.6888 11.0452 -4.519 0 1.6888 -11.0452zm18.0545 4.894l2.2522 6.1512 -4.7006 0 -1.7388 -5.0392 -0.9492 0 -0.7705 5.0392 -4.4984 0 2.2088 -14.4462 6.0683 0c3.2136,0 5.4351,1.1336 4.8931,4.6786 -0.2761,1.8058 -1.169,2.9082 -2.7649,3.6164zm9.2129 -4.894l-0.3071 2.0084 4.4633 0 -0.5106 3.3394 -4.4633 0 -0.3511 2.2964 5.9031 0 -0.52 3.401 -10.3604 0 2.2088 -14.4462 10.1753 0 -0.52 3.401 -5.718 0zm5.8863 11.0452l2.2088 -14.4462 4.519 0 -2.2088 14.4462 -4.519 0zm16.9666 -6.1512l2.2522 6.1512 -4.7006 0 -1.7389 -5.0392 -0.9492 0 -0.7705 5.0392 -4.4983 0 2.2087 -14.4462 6.0684 0c3.2136,0 5.435,1.1336 4.893,4.6786 -0.2761,1.8058 -1.169,2.9082 -2.7648,3.6164zm9.4633 6.3774c-4.516,0 -6.5537,-2.8285 -5.8812,-7.2291l0.0692 -0.4525c0.3287,-2.1507 1.2349,-4.1401 2.9637,-5.5165 1.4591,-1.1618 3.2829,-1.7005 5.1337,-1.7005 4.5054,0 6.5523,2.8379 5.8811,7.2291l-0.0692 0.4525c-0.3286,2.1506 -1.2349,4.1401 -2.9636,5.5165 -1.4591,1.1618 -3.2829,1.7005 -5.1337,1.7005zm12.7523 0c-1.3822,0 -3.3628,-0.1481 -4.5786,-0.8661l-0.1817 -0.1074 0.5216 -3.4111 0.3627 0.141c1.2915,0.5015 2.4676,0.7603 3.8606,0.7603 0.7732,0 1.8836,-0.0833 2.0286,-1.0308 0.0298,-0.1954 0.0581,-0.4325 -0.1069,-0.576 -0.2329,-0.2026 -0.8379,-0.3266 -1.1328,-0.3875l-0.9951 -0.2052c-0.9596,-0.1847 -1.9717,-0.5174 -2.5952,-1.3205 -0.7205,-0.9278 -0.7047,-2.2063 -0.5358,-3.311 0.4925,-3.2216 2.9896,-4.5843 6.0904,-4.5843 1.4071,0 2.8527,0.1025 4.1254,0.7542l0.2002 0.1026 -0.5158 3.3739 -0.3568 -0.1281c-1.1745,-0.4217 -2.2618,-0.6399 -3.5167,-0.6399 -0.6837,0 -1.6391,0.0977 -1.7661,0.928 -0.0304,0.1986 -0.0327,0.382 0.1289,0.5205 0.2354,0.2016 0.7638,0.3194 1.0561,0.3807l0.9983 0.1848c2.6944,0.5366 3.8181,1.7677 3.3864,4.5908 -0.529,3.4604 -3.1756,4.8311 -6.4777,4.8311zm-59.0081 -8.214l1.0969 0c1.2003,0 1.7248,-0.5242 1.903,-1.6889 0.1779,-1.1641 -0.2252,-1.5124 -1.3799,-1.5124l-1.1305 0 -0.4895 3.2013zm32.0658 0l1.0968 0c1.2003,0 1.7249,-0.5242 1.903,-1.6889 0.178,-1.1641 -0.2251,-1.5124 -1.3799,-1.5124l-1.1305 0 -0.4894 3.2013zm14.7031 4.7718c1.9804,0 2.6059,-1.9806 2.8568,-3.6224l0.1069 -0.6992c0.1272,-0.832 0.2648,-2.136 -0.1324,-2.9172 -0.3156,-0.6206 -0.915,-0.7754 -1.5722,-0.7754 -1.9884,0 -2.6204,1.9433 -2.8741,3.6018l-0.1069 0.6994c-0.1286,0.84 -0.2697,2.1765 0.1478,2.9606 0.3231,0.6069 0.9266,0.7524 1.5741,0.7524z"/>
  <path class="fil4" d="M51.5919 139.3745l9.1117 0 0.4245 -2.7767 -5.2449 0 1.6888 -11.0451 -3.8667 0 -2.1134 13.8218zm11.1068 0l9.7287 0 0.4246 -2.7767 -5.9031 0 0.4465 -2.9207 4.4634 0 0.4151 -2.715 -4.4633 0 0.4025 -2.6327 5.718 0 0.4245 -2.7767 -9.5436 0 -2.1133 13.8218zm14.7885 0l3.8873 0 1.6888 -11.0451 3.62 0 0.4246 -2.7767 -11.1479 0 -0.4246 2.7767 3.6406 0 -1.6888 11.0451zm14.2895 -7.3634l0.5849 -3.8256 1.3986 0c1.4192,0 1.8866,0.5758 1.6885,1.8716 -0.1982,1.2959 -0.8336,1.954 -2.2116,1.954l-1.4604 0zm-4.9516 7.3634l3.8668 0 0.7705 -5.0392 1.4398 0 1.7388 5.0392 4.0314 0 -2.1764 -5.9442 0.0127 -0.0823c1.534,-0.617 2.5252,-1.5838 2.8145,-3.476 0.456,-2.9824 -1.0879,-4.3193 -4.5845,-4.3193l-5.8002 0 -2.1134 13.8218zm13.4722 0l9.7287 0 0.4246 -2.7767 -5.9031 0 0.4465 -2.9207 4.4634 0 0.4151 -2.715 -4.4634 0 0.4026 -2.6327 5.718 0 0.4245 -2.7767 -9.5436 0 -2.1133 13.8218zm12.0323 0l3.8874 0 2.1134 -13.8218 -3.8874 0 -2.1134 13.8218zm11.5128 -7.3634l0.5849 -3.8256 1.3986 0c1.4193,0 1.8866,0.5758 1.6885,1.8716 -0.1981,1.2959 -0.8336,1.954 -2.2116,1.954l-1.4604 0zm-4.9515 7.3634l3.8667 0 0.7706 -5.0392 1.4397 0 1.7388 5.0392 4.0314 0 -2.1764 -5.9442 0.0127 -0.0823c1.534,-0.617 2.5252,-1.5838 2.8145,-3.476 0.456,-2.9824 -1.0879,-4.3193 -4.5844,-4.3193l-5.8003 0 -2.1133 13.8218zm20.0182 -2.5916c-1.7688,0 -2.4865,-1.0901 -2.0305,-4.0724l0.1069 -0.6994c0.3994,-2.6121 1.4756,-3.8668 3.1827,-3.8668 1.81,0 2.4536,1.1724 2.0132,4.0519l-0.1069 0.6993c-0.4025,2.6327 -1.4788,3.8874 -3.1654,3.8874zm-0.5131 2.8178c3.5377,0 7.0371,-2.0362 7.7887,-6.952l0.0692 -0.4525c0.7391,-4.8335 -1.8908,-6.8697 -5.5725,-6.8697 -3.5376,0 -7.0371,2.0362 -7.7888,6.952l-0.0692 0.4525c-0.739,4.8335 1.8704,6.8697 5.5726,6.8697zm12.7523 0c3.5788,0 5.7163,-1.6042 6.1691,-4.5661 0.4277,-2.7972 -0.7613,-3.764 -3.1366,-4.237l-1 -0.1851c-1.1758,-0.2469 -1.5432,-0.5348 -1.4331,-1.2547 0.1226,-0.8022 0.8201,-1.1929 2.0747,-1.1929 1.5631,0 2.7057,0.3291 3.6222,0.6582l0.4245 -2.7767c-0.763,-0.3908 -1.7821,-0.7199 -3.983,-0.7199 -3.4965,0 -5.3824,1.7071 -5.7819,4.3192 -0.4434,2.9002 0.7457,3.8669 2.8836,4.2783l0.997 0.2056c1.296,0.2674 1.6079,0.5142 1.4853,1.3164 -0.1259,0.8227 -0.7947,1.2957 -2.3372,1.2957 -1.6044,0 -2.8087,-0.329 -3.9736,-0.7815l-0.4308 2.8178c0.9054,0.5347 2.4863,0.8227 4.4198,0.8227z"/>
  <path class="fil0" d="M52.109 138.9304l8.2132 0 0.2888 -1.8885 -5.2449 0 1.6888 -11.0451 -2.9683 0 -1.9776 12.9336zm11.1068 0l8.8303 0 0.2888 -1.8885 -5.9031 0 0.5823 -3.8088 4.4633 0 0.2794 -1.827 -4.4634 0 0.5384 -3.5208 5.718 0 0.2887 -1.8885 -8.6451 0 -1.9776 12.9336zm14.7885 0l2.9889 0 1.6888 -11.0451 3.62 0 0.2888 -1.8885 -10.2495 0 -0.2887 1.8885 3.6405 0 -1.6888 11.0451zm9.338 0l2.9683 0 0.7705 -5.0391 2.1376 0 1.7389 5.0391 3.0794 0 -1.9973 -5.4547 0.0685 -0.4453 0.2347 -0.0944c1.4994,-0.603 2.2925,-1.5031 2.5413,-3.1312 0.1535,-1.0038 0.1262,-2.1476 -0.6722,-2.8845 -0.857,-0.791 -2.3669,-0.9235 -3.4733,-0.9235l-5.4189 0 -1.9775 12.9336zm3.9174 -6.4753l0.7206 -4.7137 1.7799 0c1.6222,0 2.3772,0.7493 2.1274,2.3829 -0.2349,1.5359 -1.0726,2.3308 -2.6505,2.3308l-1.9774 0zm9.5547 6.4753l8.8303 0 0.2887 -1.8885 -5.9031 0 0.5824 -3.8088 4.4633 0 0.2794 -1.827 -4.4634 0 0.5384 -3.5208 5.7179 0 0.2888 -1.8885 -8.6452 0 -1.9775 12.9336zm12.0323 0l2.989 0 1.9775 -12.9336 -2.9889 0 -1.9776 12.9336zm6.5613 0l2.9683 0 0.7705 -5.0391 2.1377 0 1.7388 5.0391 3.0794 0 -1.9972 -5.4547 0.0684 -0.4453 0.2347 -0.0944c1.4994,-0.603 2.2925,-1.5031 2.5414,-3.1312 0.1535,-1.0038 0.1261,-2.1476 -0.6722,-2.8845 -0.8571,-0.791 -2.367,-0.9235 -3.4733,-0.9235l-5.4189 0 -1.9776 12.9336zm3.9174 -6.4753l0.7206 -4.7137 1.7799 0c1.6222,0 2.3772,0.7493 2.1274,2.3829 -0.2348,1.5359 -1.0726,2.3308 -2.6505,2.3308l-1.9774 0zm15.0706 6.7016c1.6788,0 3.3382,-0.4814 4.6626,-1.5359 1.577,-1.2556 2.3878,-3.0801 2.6872,-5.0391l0.0691 -0.4525c0.6004,-3.9277 -1.0923,-6.3587 -5.1335,-6.3587 -1.6787,0 -3.3383,0.4814 -4.6627,1.5359 -1.5769,1.2556 -2.3877,3.0801 -2.6871,5.0391l-0.0692 0.4525c-0.6018,3.9373 1.0822,6.3587 5.1336,6.3587zm0.5131 -1.9298c-2.7516,0 -2.7957,-2.4503 -2.4695,-4.5836l0.107 -0.6993c0.3167,-2.0702 1.2046,-4.2437 3.6216,-4.2437 2.7357,0 2.7747,2.4527 2.4522,4.563l-0.1069 0.6993c-0.3143,2.0561 -1.1922,4.2643 -3.6044,4.2643zm18.1765 -8.9938l0.2945 -1.9264c-1.0877,-0.4685 -2.325,-0.5362 -3.494,-0.5362 -2.7197,0 -4.9081,1.0984 -5.3429,3.9424 -0.1332,0.8712 -0.1886,1.9935 0.3855,2.7329 0.4956,0.6382 1.3842,0.8961 2.1459,1.0427l0.9999 0.2062c1.094,0.2257 2.0368,0.4952 1.8345,1.8184 -0.2128,1.3912 -1.5726,1.6727 -2.7761,1.6727 -1.2993,0 -2.4317,-0.2107 -3.6168,-0.6213l-0.301 1.9683c1.1016,0.5168 2.8059,0.6239 3.9332,0.6239 2.9211,0 5.2593,-1.1091 5.7302,-4.1892 0.369,-2.4134 -0.4916,-3.2778 -2.7815,-3.7338l-1.0075 -0.1866c-0.9979,-0.2096 -1.9674,-0.5349 -1.7807,-1.7564 0.1931,-1.2629 1.407,-1.5699 2.5136,-1.5699 1.1595,0 2.1932,0.174 3.2632,0.5123z"/>
  <g id="_105553183616928">
   <path class="fil3" d="M40.8285 111.5555l0 0.2326c-0.5308,0.0895 -0.9161,0.294 -1.1557,0.6135 -0.1104,0.1559 -0.1856,0.3374 -0.2232,0.547 -0.0399,0.2096 -0.0587,0.5061 -0.0587,0.8921l0 4.1331 0 0.2608c0.0047,0.9892 0.2326,1.756 0.6812,2.3004 0.2443,0.294 0.5521,0.524 0.9302,0.6927 0.3759,0.1662 0.7681,0.2505 1.1745,0.2505 0.5967,0 1.1134,-0.1636 1.5456,-0.4882 0.4346,-0.3246 0.7611,-0.7796 0.9819,-1.37 0.1738,-0.4678 0.2608,-1.117 0.2608,-1.9452l0 -3.484c0,-0.8486 -0.1785,-1.4569 -0.5379,-1.8276 -0.296,-0.3092 -0.6719,-0.5009 -1.1205,-0.5751l0 -0.2326 3.1993 0 0 0.2326c-0.3077,0.0895 -0.5543,0.225 -0.74,0.4039 -0.1855,0.1789 -0.3194,0.4166 -0.4016,0.7106 -0.0822,0.2965 -0.1245,0.6646 -0.1245,1.1093l0 3.6552c0,0.6084 -0.0329,1.0966 -0.1034,1.4672 -0.0681,0.3681 -0.1808,0.7055 -0.3358,1.0097 -0.2067,0.4013 -0.4722,0.7387 -0.7963,1.0198 -0.3219,0.2787 -0.6953,0.4908 -1.1182,0.6365 -0.4205,0.1431 -0.8761,0.2173 -1.3624,0.2173 -0.5191,0 -0.9936,-0.0818 -1.4281,-0.2429 -0.4323,-0.1635 -0.8129,-0.3987 -1.1393,-0.7054 -0.3242,-0.3068 -0.5849,-0.6774 -0.7775,-1.1119 -0.2561,-0.5828 -0.3853,-1.4238 -0.3853,-2.5152l0 -3.6015c0,-0.4295 -0.0211,-0.7515 -0.0658,-0.9637 -0.0423,-0.2121 -0.1292,-0.3962 -0.256,-0.5495 -0.2302,-0.2812 -0.5708,-0.4601 -1.0194,-0.5394l0 -0.2326 4.3761 0zm4.611 0.2837l-1.2096 0c0.1784,0.11 0.3217,0.225 0.4298,0.3451 0.1081,0.1202 0.2067,0.2786 0.2983,0.4806 0.1245,-0.3247 0.2842,-0.6007 0.4815,-0.8257zm-8.1744 0l0.4181 0.3144c0.1433,0.0997 0.2396,0.1943 0.289,0.2812 0.0516,0.0869 0.0774,0.2071 0.0774,0.3553 0,0.1406 0.0024,0.2224 0.0071,0.248l0 0.1278 0 4.1868c0,0.3528 0.0258,0.7847 0.0822,1.2934 0.1058,0.9688 0.4557,1.733 1.05,2.2928 0.5919,0.5598 1.3507,0.841 2.2738,0.8461 -0.9325,-0.2147 -1.6325,-0.6646 -2.0999,-1.3471 -0.2162,-0.3118 -0.3665,-0.6671 -0.4511,-1.0684 -0.0845,-0.4013 -0.1268,-0.9279 -0.1268,-1.5771l0 -4.6265 0 -0.1278 0 -0.248c0.0047,-0.1482 0.0305,-0.2658 0.0799,-0.3502 0.0469,-0.0869 0.1455,-0.1815 0.2912,-0.2863l0.4205 -0.3144 -2.3114 0zm19.405 10.1784l-0.2067 0 -7.5567 -8.7546 0.007 5.0252c0,0.5598 0.0306,1.0071 0.0894,1.3471 0.061,0.34 0.1573,0.6314 0.2889,0.8767 0.3123,0.5496 0.8197,0.8921 1.5221,1.0327l0 0.2326 -3.5986 0 0 -0.2326c0.6177,-0.2479 1.0311,-0.7208 1.2378,-1.4161 0.0729,-0.2275 0.1245,-0.4805 0.1504,-0.7591 0.0282,-0.2761 0.0422,-0.6288 0.0422,-1.0531l0 -5.3601c-0.357,-0.3988 -0.6342,-0.6748 -0.8268,-0.8231 -0.1926,-0.1508 -0.411,-0.2658 -0.6601,-0.3451l0 -0.2326 2.6709 0c0.1103,0.2096 0.2302,0.3988 0.357,0.57 0.0282,0.023 0.0775,0.0844 0.148,0.179 0.0704,0.0945 0.1175,0.1559 0.1409,0.1865 0.0776,0.0946 0.1175,0.1432 0.1175,0.1432l5.8161 6.7608 0 -5.1505c0,-0.524 -0.0611,-0.956 -0.1833,-1.2934 -0.1221,-0.3348 -0.3123,-0.5981 -0.5707,-0.7821 -0.2608,-0.1841 -0.6037,-0.3119 -1.0289,-0.3809l0 -0.2326 3.2816 0 0 0.2326c-0.4911,0.1432 -0.8199,0.3834 -0.9867,0.7183 -0.1668,0.3348 -0.2513,0.9125 -0.2513,1.7381l0 7.7731zm-0.2607 -0.4729l0 -1.1758 -6.455 -7.5021c-0.2936,-0.3349 -0.5309,-0.6774 -0.7095,-1.0276l-1.4046 0c0.3359,0.2199 0.6764,0.5343 1.0265,0.9432l7.5426 8.7623zm-0.841 -9.7055c0.2209,0.1202 0.3877,0.2429 0.5027,0.3681 0.1152,0.1253 0.2278,0.3068 0.3383,0.547 0.0821,-0.2402 0.1503,-0.4115 0.2067,-0.5163 0.054,-0.1048 0.1456,-0.2377 0.2748,-0.3988l-1.3225 0zm-6.199 9.5572c-0.1855,-0.2198 -0.3241,-0.4115 -0.4181,-0.5751 -0.0939,-0.161 -0.1808,-0.3629 -0.2631,-0.6007 -0.0892,0.2531 -0.1831,0.4653 -0.2841,0.6314 -0.1011,0.1687 -0.2467,0.3476 -0.4393,0.5444l1.4046 0zm9.2621 0.3809l0 -0.2326c0.4957,-0.0895 0.855,-0.2965 1.0805,-0.6211 0.1739,-0.2403 0.2608,-0.7157 0.2608,-1.4314l0 -5.6515c0,-0.455 -0.0212,-0.7848 -0.0682,-0.9892 -0.0445,-0.2045 -0.1315,-0.3809 -0.2536,-0.524 -0.2302,-0.2812 -0.5685,-0.4601 -1.0195,-0.5394l0 -0.2326 4.2869 0 0 0.2326c-0.4957,0.0895 -0.8574,0.2965 -1.0876,0.6212 -0.0916,0.1303 -0.1573,0.3041 -0.1997,0.5214 -0.0399,0.2173 -0.061,0.5189 -0.061,0.91l0 5.6515c0,0.4243 0.0235,0.7463 0.0728,0.9636 0.047,0.2173 0.1339,0.4013 0.2584,0.5496 0.2278,0.2811 0.5685,0.4601 1.0171,0.5393l0 0.2326 -4.2869 0zm0.9631 -0.3809l2.0107 0 -0.2678 -0.2172c-0.1573,-0.1253 -0.256,-0.225 -0.3006,-0.3016 -0.0424,-0.0742 -0.0658,-0.1866 -0.0658,-0.3349 0,-0.0818 0,-0.1355 -0.0024,-0.161 -0.0023,-0.0281 -0.0047,-0.0563 -0.0047,-0.0869l0 -0.1278 0 -7.0011 0 -0.1278c0,-0.0307 0.0024,-0.0588 0.0047,-0.0895 0.0024,-0.0307 0.0024,-0.0818 0.0024,-0.1585 0,-0.1482 0.0234,-0.2607 0.0658,-0.3348 0.0446,-0.0767 0.1433,-0.1764 0.3006,-0.3017l0.3899 -0.3144 -2.255 0 0.3923 0.3144c0.1598,0.1253 0.2608,0.2224 0.3007,0.294 0.0423,0.069 0.0634,0.184 0.0634,0.3425 0.0047,0.0869 0.007,0.1687 0.007,0.248l0 0.1278 0 7.0011 0 0.1278c0,0.0792 -0.0023,0.161 -0.007,0.2479 0,0.1534 -0.0211,0.2684 -0.0634,0.34 -0.0399,0.0715 -0.1409,0.1712 -0.3007,0.2965l-0.2701 0.2172zm9.6685 -1.618l2.154 -5.401c0.1832,-0.4626 0.2747,-0.8511 0.2747,-1.1604 0,-0.3834 -0.1221,-0.6927 -0.3688,-0.9228 -0.2442,-0.2326 -0.6177,-0.4013 -1.1181,-0.5061l0 -0.2326 3.5728 0 0 0.225c-0.2983,0.115 -0.5614,0.276 -0.7916,0.4831 -0.2302,0.207 -0.4439,0.4805 -0.6435,0.823 -0.1997,0.3425 -0.4206,0.8077 -0.6648,1.3956l-3.0537 7.543 -0.1527 0 -3.3309 -8.1488c-0.303,-0.7591 -0.5637,-1.2703 -0.7845,-1.5387 -0.2208,-0.2658 -0.5309,-0.4499 -0.9349,-0.5496l0 -0.2326 4.4725 0 0 0.2326 -0.1504 0.0077c-0.4416,0.0383 -0.7517,0.1252 -0.9301,0.253 -0.1786,0.1304 -0.2678,0.3374 -0.2678,0.6212 0,0.2198 0.0587,0.478 0.1784,0.7719l2.5394 6.3365zm-0.3383 0.8384l-2.8212 -7.0701c-0.1315,-0.3297 -0.1996,-0.616 -0.1996,-0.8614 0,-0.1482 0.0305,-0.2837 0.0892,-0.4064 0.0611,-0.1227 0.1762,-0.2633 0.3453,-0.4243l-2.107 0c0.2866,0.2454 0.5215,0.5495 0.7094,0.9151 0.1057,0.2096 0.1949,0.3936 0.2678,0.5521 0.0751,0.161 0.1409,0.3169 0.1996,0.4729l3.1382 7.7577 0.3783 -0.9356zm2.1822 -8.7776c0.2748,0.1866 0.4722,0.3656 0.5896,0.5394 0.1151,0.1764 0.1832,0.3962 0.202,0.6595 0.1244,-0.2787 0.2513,-0.5062 0.3782,-0.6825 0.1292,-0.1738 0.2983,-0.3451 0.5097,-0.5164l-1.6795 0zm11.005 -0.2837l0.2607 2.7862 -0.2185 0c-0.2396,-0.8589 -0.5943,-1.4928 -1.0641,-1.8992 -0.4697,-0.4064 -1.0805,-0.6109 -1.8345,-0.6109l-0.3853 0c-0.6012,0 -1.0265,0.1278 -1.2754,0.3783 -0.2513,0.253 -0.3759,0.6748 -0.3759,1.2627l0 2.5458 0.9162 0c0.6929,0 1.1979,-0.1175 1.5127,-0.3553 0.3171,-0.2377 0.5356,-0.6645 0.6553,-1.2857l0.2068 0 0 3.7907 -0.2068 0c-0.0916,-0.4984 -0.216,-0.8793 -0.3688,-1.1426 -0.155,-0.2607 -0.3688,-0.4473 -0.6483,-0.5546 -0.2772,-0.1074 -0.6529,-0.1611 -1.1298,-0.1611l-0.9373 0 0 3.2437c0,0.4933 0.0423,0.8716 0.1269,1.1349 0.0845,0.2607 0.2348,0.4448 0.4486,0.5496 0.2138,0.1048 0.5121,0.1584 0.8974,0.1584l0.6342 0c0.6225,0 1.2144,-0.2096 1.7734,-0.6313 0.6201,-0.4678 1.2286,-1.1221 1.8252,-1.9605l0.054 -0.0818 0.242 0 -0.8127 3.0545 -8.1276 0 0 -0.2326c0.4957,-0.0895 0.855,-0.2965 1.0805,-0.6211 0.1739,-0.2403 0.2609,-0.7157 0.2609,-1.4314l0 -5.6515c0,-0.455 -0.0213,-0.7848 -0.0682,-0.9892 -0.0446,-0.2045 -0.1315,-0.3809 -0.2537,-0.524 -0.2302,-0.2812 -0.5685,-0.4601 -1.0195,-0.5394l0 -0.2326 7.8316 0zm-0.5168 0.2761l-0.9889 0c0.256,0.115 0.4627,0.2403 0.6177,0.3757 0.1575,0.1355 0.3312,0.3425 0.5239,0.6212l-0.1527 -0.9969zm-1.5809 3.8648c-0.1292,0.1303 -0.2302,0.2198 -0.3006,0.2658 -0.0705,0.0486 -0.2185,0.1176 -0.444,0.2147 0.2584,0.0793 0.505,0.2403 0.7446,0.4857l0 -0.9662zm1.905 5.7l0.3853 -1.393c-0.1644,0.1994 -0.3288,0.3808 -0.4909,0.5419 -0.1645,0.1636 -0.3477,0.3169 -0.5521,0.4601 -0.2044,0.1457 -0.411,0.276 -0.6225,0.391l1.2802 0zm-6.6758 0l2.0107 0 -0.2678 -0.2172c-0.1573,-0.1253 -0.256,-0.225 -0.3006,-0.3016 -0.0423,-0.0742 -0.0658,-0.1866 -0.0658,-0.3349 0,-0.0818 0,-0.1355 -0.0023,-0.161 -0.0023,-0.0281 -0.0047,-0.0563 -0.0047,-0.0869l0 -0.1278 0 -7.0011 0 -0.1278c0,-0.0307 0.0024,-0.0588 0.0047,-0.0895 0.0023,-0.0307 0.0023,-0.0818 0.0023,-0.1585 0,-0.1482 0.0235,-0.2658 0.0728,-0.3476 0.047,-0.0818 0.1457,-0.1789 0.2936,-0.2889l0.39 -0.3144 -2.255 0 0.3923 0.3144c0.155,0.1253 0.2536,0.225 0.2983,0.3017 0.0446,0.0741 0.0658,0.1866 0.0658,0.3348 0.0047,0.0869 0.007,0.1687 0.007,0.248l0 0.1278 0 7.0011 0 0.1278c0,0.0792 -0.0023,0.161 -0.007,0.2479 0,0.1534 -0.0212,0.2684 -0.0634,0.34 -0.04,0.0715 -0.141,0.1712 -0.3007,0.2965l-0.2702 0.2172zm11.2728 -4.9818l0 3.0776c0,0.4294 0.0236,0.7489 0.0728,0.9585 0.0471,0.2096 0.141,0.3987 0.2796,0.5623 0.242,0.2761 0.6037,0.4525 1.0852,0.5317l0 0.2326 -4.3762 0 0 -0.2326c0.4957,-0.0895 0.855,-0.2965 1.0806,-0.6211 0.1738,-0.2403 0.2608,-0.7157 0.2608,-1.4314l0 -5.6515c0,-0.455 -0.0213,-0.7848 -0.0682,-0.9892 -0.0446,-0.2045 -0.1315,-0.3809 -0.2537,-0.524 -0.2208,-0.2659 -0.5614,-0.4448 -1.0195,-0.5394l0 -0.2326c0.0634,0.0051 0.1222,0.0077 0.1715,0.0077l0.6061 0.0383c0.2442,0.0128 0.5262,0.0205 0.8479,0.0205 0.5075,0 0.9702,-0.0205 1.3812,-0.0665l0.9655 -0.0894c0.3006,-0.0307 0.599,-0.046 0.8926,-0.046 0.5426,0 1.0265,0.0613 1.454,0.1814 0.4252,0.1176 0.787,0.2914 1.0806,0.5164 0.2936,0.2249 0.5191,0.501 0.6812,0.8256 0.1597,0.3272 0.2396,0.6927 0.2396,1.0991 0,0.6722 -0.2115,1.1988 -0.6366,1.5745 -0.4252,0.3783 -1.0523,0.5982 -1.8815,0.6646 0.5143,0.2198 0.9489,0.5189 1.3037,0.9023 0.3547,0.3809 0.7798,1.0046 1.2707,1.8685 0.5544,0.9662 0.9913,1.641 1.3132,2.0219 0.3218,0.3783 0.6764,0.6492 1.0663,0.8077l0 0.2096c-0.5003,-0.0102 -0.9255,-0.0588 -1.2754,-0.1508 -0.3523,-0.0895 -0.7024,-0.248 -1.05,-0.478 -0.4369,-0.2939 -0.8457,-0.6927 -1.2309,-1.1911 -0.3853,-0.4985 -0.7234,-1.071 -1.0124,-1.7152l-0.3641 -0.8307c-0.1761,-0.3885 -0.3289,-0.6722 -0.4628,-0.8486 -0.1315,-0.1789 -0.2912,-0.2991 -0.4744,-0.3655 -0.1833,-0.0639 -0.4322,-0.0972 -0.7494,-0.0972l-1.198 0zm0 -0.299l1.2332 0c0.7095,0 1.2215,-0.0869 1.534,-0.2607 0.2794,-0.156 0.4979,-0.3962 0.6577,-0.7234 0.1573,-0.3272 0.2372,-0.7029 0.2372,-1.1272 0,-0.4397 -0.0939,-0.8333 -0.2796,-1.1835 -0.1855,-0.3502 -0.4438,-0.6211 -0.7774,-0.8129 -0.3336,-0.1917 -0.7118,-0.2888 -1.1393,-0.2888 -0.6319,0 -1.0594,0.2147 -1.2802,0.6441 -0.1245,0.2454 -0.1856,0.6288 -0.1856,1.1554l0 2.597zm2.6849 0.0306c0.3077,-0.0741 0.5873,-0.1814 0.8433,-0.322 0.2537,-0.1406 0.4628,-0.2991 0.6296,-0.4806 0.1644,-0.1789 0.2912,-0.3834 0.3804,-0.6134 0.0894,-0.2301 0.1339,-0.4678 0.1339,-0.7183 0,-0.5444 -0.1784,-1.0199 -0.5355,-1.4237 -0.3571,-0.4039 -0.8315,-0.662 -1.4188,-0.7771 0.2631,0.1534 0.4816,0.3374 0.6624,0.5521 0.1786,0.2148 0.3125,0.4601 0.404,0.7311 0.094,0.2709 0.1386,0.5649 0.1386,0.8793 0,0.5444 -0.0986,0.9892 -0.2959,1.3368 -0.1973,0.3476 -0.5121,0.6262 -0.942,0.8358zm4.3409 5.6388c-0.2418,-0.1457 -0.4392,-0.2761 -0.5919,-0.3962 -0.1503,-0.1202 -0.3265,-0.2889 -0.5285,-0.5036 -0.2396,-0.2786 -0.4252,-0.5214 -0.5614,-0.7259 -0.1363,-0.2045 -0.3594,-0.5853 -0.6719,-1.1451 -0.2936,-0.5342 -0.5567,-0.9662 -0.7939,-1.296 -0.2372,-0.3297 -0.4744,-0.593 -0.7117,-0.7923 -0.2396,-0.202 -0.5027,-0.3656 -0.7916,-0.4959 0.1832,0.2045 0.3336,0.4064 0.4533,0.6083 0.0658,0.1074 0.1786,0.34 0.3454,0.6953 0.0492,0.1048 0.0986,0.207 0.1479,0.3067 0.047,0.0997 0.0939,0.2045 0.141,0.3144 0.4909,1.0429 1.017,1.8353 1.5832,2.3772 0.5637,0.5419 1.2238,0.892 1.9801,1.0531zm-9.0013 -0.3886l2.0107 0 -0.2677 -0.2172c-0.1574,-0.1253 -0.2561,-0.225 -0.3006,-0.3016 -0.0424,-0.0742 -0.0658,-0.1866 -0.0658,-0.3349 0,-0.0818 0,-0.1355 -0.0024,-0.161 -0.0023,-0.0281 -0.0047,-0.0563 -0.0047,-0.0869l0 -0.1278 0 -7.0011 0 -0.1278c0,-0.0307 0.0024,-0.0588 0.0047,-0.0895 0.0024,-0.0307 0.0024,-0.0818 0.0024,-0.1585 0,-0.138 0.0211,-0.2454 0.0587,-0.3221 0.0399,-0.0741 0.1245,-0.1661 0.2584,-0.276l0.0493 -0.0384 0.3852 -0.322 -0.249 0.0153c-0.4181,0.0307 -0.794,0.046 -1.1275,0.046 -0.2067,0 -0.4886,-0.0076 -0.848,-0.023l0.3665 0.2837c0.1503,0.11 0.2489,0.2071 0.2959,0.2889 0.0447,0.0818 0.0682,0.1994 0.0682,0.3476 0.0047,0.0869 0.007,0.1687 0.007,0.248l0 0.1278 0 7.0011 0 0.1278c0,0.0792 -0.0023,0.161 -0.007,0.2479 0,0.1534 -0.0211,0.2684 -0.0634,0.34 -0.04,0.0715 -0.141,0.1712 -0.3007,0.2965l-0.2702 0.2172zm15.6302 -9.6083l0.3994 2.4922 -0.2349 0c-0.1245,-0.4473 -0.2444,-0.8026 -0.3641,-1.0633 -0.1198,-0.2582 -0.2537,-0.4755 -0.3994,-0.6518 -0.2349,-0.2837 -0.5144,-0.5061 -0.8432,-0.6646 -0.3289,-0.161 -0.6718,-0.2403 -1.0289,-0.2403 -0.505,0 -0.9185,0.1483 -1.2379,0.4448 -0.3218,0.299 -0.4815,0.6799 -0.4815,1.1502 0,0.5138 0.2066,0.9407 0.6248,1.2806 0.2161,0.1687 0.4462,0.3195 0.6929,0.4524 0.2443,0.133 0.6296,0.3196 1.151,0.5573 0.3594,0.1559 0.6624,0.2965 0.9091,0.4217 0.249,0.1227 0.4463,0.2352 0.5989,0.3349 0.1504,0.0997 0.3031,0.2147 0.4534,0.345 0.6389,0.5598 0.9584,1.2909 0.9584,2.1957 0,0.593 -0.1504,1.1298 -0.4487,1.6078 -0.2983,0.4805 -0.7117,0.8563 -1.2378,1.1272 -0.5286,0.2735 -1.1135,0.409 -1.7547,0.409 -0.4464,0 -0.9608,-0.0716 -1.5434,-0.2173 -0.3429,-0.0894 -0.7939,-0.2505 -1.3553,-0.478l-0.1926 -0.0766 -0.2068 -2.8373 0.2068 0c0.202,0.7643 0.5285,1.4442 0.9772,2.0449 0.5919,0.7821 1.2966,1.1758 2.1141,1.1758 0.4157,0 0.7869,-0.0869 1.111,-0.2582 0.3241,-0.1738 0.5755,-0.4115 0.7611,-0.7131 0.1832,-0.3017 0.2748,-0.6467 0.2748,-1.0353 0,-0.345 -0.0728,-0.6569 -0.2138,-0.9329 -0.1432,-0.2786 -0.3734,-0.5394 -0.6953,-0.7873 -0.3218,-0.2479 -0.761,-0.501 -1.3201,-0.7592 -0.8127,-0.3859 -1.306,-0.6287 -1.4798,-0.7335 -0.3359,-0.2045 -0.6131,-0.4269 -0.8339,-0.6672 -0.2208,-0.2403 -0.3829,-0.4984 -0.4886,-0.7796 -0.1057,-0.2786 -0.1574,-0.5777 -0.1574,-0.8972 0,-0.4959 0.1198,-0.9457 0.3618,-1.3573 0.2395,-0.4089 0.5707,-0.731 0.9889,-0.9662 0.4204,-0.2326 0.8855,-0.3501 1.3953,-0.3501 0.3194,0 0.6788,0.0562 1.0734,0.1712l0.4135 0.1202c0.3054,0.0894 0.6342,0.1354 0.9818,0.1354l0.0705 0zm-0.5238 9.3604c0.7564,-0.5956 1.1346,-1.3087 1.1346,-2.142 0,-0.3297 -0.0612,-0.6492 -0.188,-0.9611 -0.1268,-0.3144 -0.3053,-0.5802 -0.5402,-0.7975 -0.3406,-0.3348 -0.9373,-0.6978 -1.797,-1.0863 -0.7094,-0.3297 -1.1722,-0.5521 -1.3859,-0.6672 -0.2138,-0.115 -0.4298,-0.2683 -0.6507,-0.4652 -0.458,-0.3987 -0.6882,-0.9023 -0.6882,-1.5106 0,-0.1815 0.0188,-0.3451 0.0563,-0.4908 0.0352,-0.1482 0.0917,-0.2914 0.1645,-0.4268 0.0728,-0.1381 0.195,-0.3221 0.3641,-0.5522 -0.6554,0.5164 -0.9843,1.1554 -0.9843,1.9248 0,0.7387 0.2655,1.324 0.7987,1.7535 0.2796,0.23 0.6014,0.4345 0.9631,0.6134 0.047,0.0256 0.3993,0.1943 1.0594,0.5087 0.7987,0.3757 1.3506,0.7157 1.6537,1.0198 0.4815,0.4831 0.7211,1.0557 0.7211,1.7152 0,0.3195 -0.054,0.6007 -0.1621,0.8486 -0.1081,0.2479 -0.2795,0.4857 -0.5191,0.7157zm-4.5899 -0.2914c0.303,0.1892 0.6883,0.3706 1.1557,0.547 -0.3077,-0.3016 -0.5403,-0.547 -0.6976,-0.7438 -0.1598,-0.1943 -0.3383,-0.4678 -0.5403,-0.8231l0.0822 1.0199zm6.9718 0.9202l0 -0.2326c0.4957,-0.0895 0.855,-0.2965 1.0805,-0.6211 0.1739,-0.2403 0.2608,-0.7157 0.2608,-1.4314l0 -5.6515c0,-0.455 -0.0212,-0.7848 -0.0682,-0.9892 -0.0445,-0.2045 -0.1315,-0.3809 -0.2536,-0.524 -0.2302,-0.2812 -0.5685,-0.4601 -1.0195,-0.5394l0 -0.2326 4.2869 0 0 0.2326c-0.4957,0.0895 -0.8574,0.2965 -1.0876,0.6212 -0.0916,0.1303 -0.1573,0.3041 -0.1997,0.5214 -0.0399,0.2173 -0.061,0.5189 -0.061,0.91l0 5.6515c0,0.4243 0.0235,0.7463 0.0728,0.9636 0.047,0.2173 0.1339,0.4013 0.2584,0.5496 0.2278,0.2811 0.5685,0.4601 1.0171,0.5393l0 0.2326 -4.2869 0zm0.9631 -0.3809l2.0107 0 -0.2678 -0.2172c-0.1573,-0.1253 -0.256,-0.225 -0.3006,-0.3016 -0.0423,-0.0742 -0.0658,-0.1866 -0.0658,-0.3349 0,-0.0818 0,-0.1355 -0.0024,-0.161 -0.0023,-0.0281 -0.0047,-0.0563 -0.0047,-0.0869l0 -0.1278 0 -7.0011 0 -0.1278c0,-0.0307 0.0024,-0.0588 0.0047,-0.0895 0.0024,-0.0307 0.0024,-0.0818 0.0024,-0.1585 0,-0.1482 0.0235,-0.2607 0.0658,-0.3348 0.0446,-0.0767 0.1433,-0.1764 0.3006,-0.3017l0.3899 -0.3144 -2.255 0 0.3924 0.3144c0.1597,0.1253 0.2607,0.2224 0.3006,0.294 0.0423,0.069 0.0635,0.184 0.0635,0.3425 0.0046,0.0869 0.0069,0.1687 0.0069,0.248l0 0.1278 0 7.0011 0 0.1278c0,0.0792 -0.0023,0.161 -0.0069,0.2479 0,0.1534 -0.0212,0.2684 -0.0635,0.34 -0.0399,0.0715 -0.1409,0.1712 -0.3006,0.2965l-0.2702 0.2172zm4.0802 0.3809l0.0211 -0.2326c0.4957,-0.0895 0.855,-0.2965 1.0805,-0.6211 0.1739,-0.2403 0.2608,-0.7157 0.2608,-1.4314l0 -5.6515c0,-0.4295 -0.0211,-0.7515 -0.0658,-0.9637 -0.0422,-0.2121 -0.1292,-0.3962 -0.256,-0.5495 -0.2302,-0.2812 -0.5709,-0.4601 -1.0195,-0.5394l0 -0.2326c0.1739,0.0102 0.2631,0.0154 0.2678,0.0154l0.8057 0.0434c0.2608,0.0153 0.5403,0.023 0.8386,0.023 0.5379,0 1.1204,-0.0307 1.75,-0.0894 0.5826,-0.0486 1.0124,-0.0742 1.2919,-0.0742 0.7353,0 1.4,0.1227 1.9967,0.3707 0.5966,0.2453 1.1134,0.6006 1.5527,1.0582 0.4369,0.4601 0.7752,1.0071 1.0147,1.641 0.2372,0.6339 0.3571,1.3291 0.3571,2.0883 0,0.7643 -0.1222,1.4698 -0.3688,2.1164 -0.2443,0.6467 -0.5966,1.1988 -1.0523,1.6538 -0.4558,0.4576 -1.0007,0.8077 -1.6302,1.0531 -0.6319,0.2454 -1.3343,0.3681 -2.1094,0.3681 -0.2843,0 -0.74,-0.0307 -1.3624,-0.092 -0.4417,-0.0435 -0.8692,-0.0665 -1.2873,-0.0665 -0.2937,0 -0.6202,0.0103 -0.9772,0.0307l-0.9373 0.0741c-0.0493,0 -0.108,0.0026 -0.1714,0.0077zm2.9738 -8.3865l-0.0141 5.787c0,0.6441 0.0517,1.1119 0.1574,1.4007 0.101,0.2709 0.2725,0.478 0.5144,0.6262 0.2397,0.1457 0.5309,0.2199 0.8692,0.2199 0.5285,0 1.0147,-0.1176 1.4587,-0.3553 0.4463,-0.2378 0.8338,-0.5752 1.1674,-1.0174 0.3312,-0.4422 0.585,-0.9662 0.7611,-1.5694 0.1738,-0.6032 0.2607,-1.2525 0.2607,-1.9477 0,-0.9125 -0.155,-1.7331 -0.4651,-2.4564 -0.31,-0.7234 -0.7399,-1.2908 -1.2942,-1.7024 -0.5521,-0.4115 -1.1675,-0.6185 -1.8464,-0.6185 -0.5378,0 -0.9325,0.1303 -1.1886,0.3936 -0.2536,0.2607 -0.3805,0.6748 -0.3805,1.2397zm-1.9896 8.0056c0.3994,-0.046 0.7587,-0.069 1.0805,-0.069 0.3218,0 0.6319,0.0179 0.9302,0.0537l-0.2701 -0.2019c-0.1363,-0.0997 -0.2326,-0.1968 -0.2842,-0.2863 -0.0541,-0.0895 -0.0799,-0.207 -0.0799,-0.3502 -0.0047,-0.0869 -0.0071,-0.1687 -0.0071,-0.2479l0 -0.1278 0 -7.0011 0 -0.1278c0,-0.0793 0.0024,-0.1611 0.0071,-0.248 0,-0.1482 0.0212,-0.2607 0.0658,-0.3348 0.0423,-0.0767 0.1433,-0.1764 0.2983,-0.3017l0.3664 -0.2913c-0.404,0.0408 -0.754,0.0613 -1.0476,0.0613 -0.2748,0 -0.6178,-0.0179 -1.0312,-0.0537l-0.1245 -0.0076 0.3641 0.2913c0.148,0.11 0.2443,0.2071 0.2936,0.2889 0.047,0.0818 0.0729,0.1994 0.0729,0.3476 0,0.0511 0,0.0946 0.0023,0.1355 0.0024,0.0409 0.0046,0.0767 0.0046,0.1125l0 0.1278 0 7.0011 0 0.1278c0,0.0306 -0.0022,0.0639 -0.0046,0.1048 -0.0023,0.0409 -0.0023,0.0869 -0.0023,0.1431 0,0.1534 -0.0212,0.2684 -0.0634,0.34 -0.04,0.0715 -0.141,0.1712 -0.3031,0.2965l-0.2678 0.2172zm4.6322 0.0358c0.5262,-0.1354 0.9819,-0.322 1.3625,-0.5598 0.3804,-0.2402 0.7375,-0.5597 1.0734,-0.9585 0.7564,-0.9304 1.1346,-2.0295 1.1346,-3.3024 0,-0.7643 -0.1316,-1.4749 -0.3994,-2.1293 -0.2654,-0.6518 -0.6482,-1.209 -1.1439,-1.664 -0.498,-0.4575 -1.0735,-0.7847 -1.7241,-0.979 0.2465,0.1304 0.4791,0.2761 0.6976,0.4397 0.2184,0.161 0.411,0.34 0.5778,0.5342 0.1668,0.1943 0.3125,0.3937 0.4369,0.6007 0.5286,0.8716 0.7916,1.9119 0.7916,3.1133 0,0.639 -0.0728,1.2525 -0.2207,1.8353 -0.1457,0.5853 -0.3571,1.094 -0.6319,1.5285 -0.2349,0.3732 -0.5051,0.6799 -0.8081,0.9176 -0.3053,0.2352 -0.6882,0.4448 -1.1463,0.6237zm11.1459 -3.4353l-3.5423 0 -0.3852 0.9585c-0.1855,0.4677 -0.2772,0.8537 -0.2772,1.1604 0,0.2582 0.0541,0.4831 0.1621,0.6697 0.1081,0.1866 0.2701,0.3426 0.4816,0.4627 0.2137,0.1227 0.4956,0.2224 0.8432,0.2965l0 0.2326 -3.5704 0 0 -0.2249c0.4298,-0.1585 0.801,-0.4397 1.1111,-0.8384 0.31,-0.3988 0.6365,-1.0199 0.9795,-1.866l3.0419 -7.4867 0.1786 0 3.3121 8.0951c0.0093,0.0051 0.0163,0.0179 0.0234,0.0409 0.0071,0.023 0.0165,0.046 0.0282,0.0715 0.0094,0.0256 0.0235,0.0512 0.0376,0.0818l0.303 0.6825c0.1644,0.363 0.3523,0.639 0.5638,0.8231 0.2114,0.184 0.4745,0.3144 0.7916,0.3885l0 0.2326 -4.3902 0 0 -0.2326c0.371,-0.0307 0.6365,-0.0767 0.7962,-0.1406 0.3312,-0.1355 0.4957,-0.3706 0.4957,-0.7055 0,-0.1636 -0.0728,-0.4345 -0.2185,-0.8077l-0.7658 -1.894zm-0.1292 -0.317l-1.6584 -4.0642 -1.6324 4.0642 3.2908 0zm-1.5151 -4.3862l2.6497 6.4924 0.0705 0.1636c0.1409,0.3348 0.2113,0.5802 0.2113,0.7336 0,0.2147 -0.1127,0.4524 -0.3358,0.7131l1.8158 0c-0.2068,-0.2096 -0.3853,-0.4524 -0.5356,-0.7233 -0.1527,-0.2735 -0.3289,-0.6518 -0.5309,-1.1349l-2.9527 -7.2261 -0.3923 0.9816zm-2.4076 8.1027c-0.1575,-0.2044 -0.2655,-0.3885 -0.3312,-0.5521 -0.0635,-0.161 -0.0963,-0.3374 -0.0963,-0.5265 0,-0.0844 0.0023,-0.1534 0.0069,-0.202 -0.1408,0.2991 -0.2818,0.5394 -0.4204,0.7209 -0.1363,0.184 -0.3218,0.368 -0.5567,0.5597l1.3977 0zm8.6372 0.3809l0.0211 -0.2326c0.4957,-0.0895 0.855,-0.2965 1.0805,-0.6211 0.1739,-0.2403 0.2609,-0.7157 0.2609,-1.4314l0 -5.6515c0,-0.4295 -0.0212,-0.7515 -0.0658,-0.9637 -0.0423,-0.2121 -0.1293,-0.3962 -0.2561,-0.5495 -0.2302,-0.2812 -0.5708,-0.4601 -1.0195,-0.5394l0 -0.2326c0.1739,0.0102 0.2631,0.0154 0.2678,0.0154l0.8058 0.0434c0.2607,0.0153 0.5402,0.023 0.8385,0.023 0.5379,0 1.1205,-0.0307 1.75,-0.0894 0.5826,-0.0486 1.0124,-0.0742 1.2919,-0.0742 0.7353,0 1.4,0.1227 1.9967,0.3707 0.5966,0.2453 1.1134,0.6006 1.5527,1.0582 0.4369,0.4601 0.7752,1.0071 1.0148,1.641 0.2371,0.6339 0.357,1.3291 0.357,2.0883 0,0.7643 -0.1221,1.4698 -0.3688,2.1164 -0.2443,0.6467 -0.5966,1.1988 -1.0523,1.6538 -0.4557,0.4576 -1.0007,0.8077 -1.6302,1.0531 -0.6319,0.2454 -1.3343,0.3681 -2.1094,0.3681 -0.2843,0 -0.74,-0.0307 -1.3624,-0.092 -0.4417,-0.0435 -0.8692,-0.0665 -1.2873,-0.0665 -0.2936,0 -0.6202,0.0103 -0.9772,0.0307l-0.9372 0.0741c-0.0494,0 -0.1081,0.0026 -0.1715,0.0077zm2.9738 -8.3865l-0.0141 5.787c0,0.6441 0.0517,1.1119 0.1575,1.4007 0.101,0.2709 0.2724,0.478 0.5143,0.6262 0.2397,0.1457 0.5309,0.2199 0.8692,0.2199 0.5285,0 1.0147,-0.1176 1.4587,-0.3553 0.4463,-0.2378 0.8339,-0.5752 1.1674,-1.0174 0.3312,-0.4422 0.585,-0.9662 0.7611,-1.5694 0.1738,-0.6032 0.2608,-1.2525 0.2608,-1.9477 0,-0.9125 -0.1551,-1.7331 -0.4651,-2.4564 -0.3101,-0.7234 -0.74,-1.2908 -1.2943,-1.7024 -0.5521,-0.4115 -1.1675,-0.6185 -1.8463,-0.6185 -0.5379,0 -0.9326,0.1303 -1.1887,0.3936 -0.2536,0.2607 -0.3805,0.6748 -0.3805,1.2397zm-1.9896 8.0056c0.3994,-0.046 0.7587,-0.069 1.0805,-0.069 0.3219,0 0.6319,0.0179 0.9302,0.0537l-0.2701 -0.2019c-0.1362,-0.0997 -0.2326,-0.1968 -0.2842,-0.2863 -0.054,-0.0895 -0.0799,-0.207 -0.0799,-0.3502 -0.0046,-0.0869 -0.007,-0.1687 -0.007,-0.2479l0 -0.1278 0 -7.0011 0 -0.1278c0,-0.0793 0.0024,-0.1611 0.007,-0.248 0,-0.1482 0.0212,-0.2607 0.0658,-0.3348 0.0423,-0.0767 0.1433,-0.1764 0.2983,-0.3017l0.3664 -0.2913c-0.4039,0.0408 -0.754,0.0613 -1.0476,0.0613 -0.2748,0 -0.6177,-0.0179 -1.0312,-0.0537l-0.1245 -0.0076 0.3641 0.2913c0.148,0.11 0.2444,0.2071 0.2936,0.2889 0.0471,0.0818 0.0729,0.1994 0.0729,0.3476 0,0.0511 0,0.0946 0.0023,0.1355 0.0024,0.0409 0.0047,0.0767 0.0047,0.1125l0 0.1278 0 7.0011 0 0.1278c0,0.0306 -0.0023,0.0639 -0.0047,0.1048 -0.0023,0.0409 -0.0023,0.0869 -0.0023,0.1431 0,0.1534 -0.0212,0.2684 -0.0634,0.34 -0.04,0.0715 -0.141,0.1712 -0.3031,0.2965l-0.2678 0.2172zm4.6322 0.0358c0.5262,-0.1354 0.9819,-0.322 1.3625,-0.5598 0.3804,-0.2402 0.7376,-0.5597 1.0735,-0.9585 0.7563,-0.9304 1.1345,-2.0295 1.1345,-3.3024 0,-0.7643 -0.1316,-1.4749 -0.3994,-2.1293 -0.2654,-0.6518 -0.6482,-1.209 -1.1439,-1.664 -0.498,-0.4575 -1.0735,-0.7847 -1.7241,-0.979 0.2466,0.1304 0.4791,0.2761 0.6976,0.4397 0.2184,0.161 0.411,0.34 0.5778,0.5342 0.1668,0.1943 0.3125,0.3937 0.4369,0.6007 0.5286,0.8716 0.7916,1.9119 0.7916,3.1133 0,0.639 -0.0727,1.2525 -0.2207,1.8353 -0.1457,0.5853 -0.3571,1.094 -0.6319,1.5285 -0.2349,0.3732 -0.5051,0.6799 -0.8081,0.9176 -0.3053,0.2352 -0.6882,0.4448 -1.1463,0.6237z"/>
   <path class="fil3" d="M146.9793 111.5555l0.2607 2.7862 -0.2184 0c-0.2396,-0.8589 -0.5943,-1.4928 -1.0641,-1.8992 -0.4698,-0.4064 -1.0805,-0.6109 -1.8346,-0.6109l-0.3852 0c-0.6013,0 -1.0265,0.1278 -1.2754,0.3783 -0.2514,0.253 -0.3759,0.6748 -0.3759,1.2627l0 2.5458 0.9161 0c0.6929,0 1.198,-0.1175 1.5128,-0.3553 0.3171,-0.2377 0.5355,-0.6645 0.6553,-1.2857l0.2068 0 0 3.7907 -0.2068 0c-0.0916,-0.4984 -0.2161,-0.8793 -0.3688,-1.1426 -0.155,-0.2607 -0.3688,-0.4473 -0.6483,-0.5546 -0.2772,-0.1074 -0.653,-0.1611 -1.1298,-0.1611l-0.9373 0 0 3.2437c0,0.4933 0.0423,0.8716 0.1268,1.1349 0.0846,0.2607 0.2349,0.4448 0.4487,0.5496 0.2137,0.1048 0.5121,0.1584 0.8973,0.1584l0.6342 0c0.6225,0 1.2145,-0.2096 1.7735,-0.6313 0.6201,-0.4678 1.2286,-1.1221 1.8252,-1.9605l0.054 -0.0818 0.242 0 -0.8128 3.0545 -8.1275 0 0 -0.2326c0.4957,-0.0895 0.855,-0.2965 1.0805,-0.6211 0.1739,-0.2403 0.2608,-0.7157 0.2608,-1.4314l0 -5.6515c0,-0.455 -0.0212,-0.7848 -0.0682,-0.9892 -0.0445,-0.2045 -0.1315,-0.3809 -0.2536,-0.524 -0.2302,-0.2812 -0.5685,-0.4601 -1.0195,-0.5394l0 -0.2326 7.8315 0zm-0.5167 0.2761l-0.9889 0c0.256,0.115 0.4627,0.2403 0.6177,0.3757 0.1574,0.1355 0.3312,0.3425 0.5238,0.6212l-0.1526 -0.9969zm-1.5809 3.8648c-0.1293,0.1303 -0.2302,0.2198 -0.3006,0.2658 -0.0705,0.0486 -0.2186,0.1176 -0.444,0.2147 0.2583,0.0793 0.505,0.2403 0.7446,0.4857l0 -0.9662zm1.905 5.7l0.3852 -1.393c-0.1644,0.1994 -0.3288,0.3808 -0.4909,0.5419 -0.1644,0.1636 -0.3476,0.3169 -0.552,0.4601 -0.2044,0.1457 -0.4111,0.276 -0.6225,0.391l1.2802 0zm-6.6758 0l2.0107 0 -0.2678 -0.2172c-0.1573,-0.1253 -0.256,-0.225 -0.3006,-0.3016 -0.0424,-0.0742 -0.0658,-0.1866 -0.0658,-0.3349 0,-0.0818 0,-0.1355 -0.0024,-0.161 -0.0023,-0.0281 -0.0047,-0.0563 -0.0047,-0.0869l0 -0.1278 0 -7.0011 0 -0.1278c0,-0.0307 0.0024,-0.0588 0.0047,-0.0895 0.0024,-0.0307 0.0024,-0.0818 0.0024,-0.1585 0,-0.1482 0.0234,-0.2658 0.0728,-0.3476 0.0469,-0.0818 0.1456,-0.1789 0.2936,-0.2889l0.3899 -0.3144 -2.255 0 0.3923 0.3144c0.1551,0.1253 0.2537,0.225 0.2983,0.3017 0.0447,0.0741 0.0658,0.1866 0.0658,0.3348 0.0047,0.0869 0.007,0.1687 0.007,0.248l0 0.1278 0 7.0011 0 0.1278c0,0.0792 -0.0023,0.161 -0.007,0.2479 0,0.1534 -0.0211,0.2684 -0.0634,0.34 -0.0399,0.0715 -0.1409,0.1712 -0.3007,0.2965l-0.2701 0.2172z"/>
  </g>
  <g id="_105553183610144">
   <path class="fil4" d="M98.2836 89.9151l4.8601 0 -0.6473 -0.4826c-0.3804,-0.2782 -0.6189,-0.4996 -0.7267,-0.67 -0.1022,-0.1646 -0.159,-0.4144 -0.159,-0.7438 0,-0.1816 0,-0.3008 -0.0057,-0.3576 -0.0056,-0.0625 -0.0113,-0.1249 -0.0113,-0.1931l0 -0.2838 0 -15.5512 0 -0.2839c0,-0.0681 0.0057,-0.1306 0.0113,-0.1988 0.0057,-0.068 0.0057,-0.1816 0.0057,-0.352 0,-0.3293 0.0568,-0.5904 0.176,-0.7721 0.1136,-0.1817 0.3521,-0.3975 0.7097,-0.6416l0.9425 -0.6984 -5.4392 0 0.9369 0.6984c0.386,0.2782 0.6301,0.4939 0.7267,0.6529 0.1021,0.1533 0.1533,0.4088 0.1533,0.7608 0.0113,0.1931 0.017,0.3748 0.017,0.5508l0 0.2839 0 15.5512 0 0.2838c0,0.1761 -0.0057,0.3578 -0.017,0.5507 0,0.3407 -0.0512,0.5963 -0.1533,0.7552 -0.0966,0.159 -0.3407,0.3804 -0.7267,0.6586l-0.653 0.4826zm14.8869 0l0.9027 -3.0943c-1.0901,1.2945 -2.3789,2.3279 -3.8778,3.0943l2.9751 0zm-6.518 -21.8591l0 0.5166c-1.3286,0.1988 -2.2881,0.653 -2.8786,1.3627 -0.2668,0.3236 -0.4542,0.7211 -0.5563,1.198 -0.108,0.4769 -0.1591,1.1412 -0.1591,1.9986l0 12.6896c0,0.8289 0.0454,1.4876 0.1419,1.9645 0.0966,0.4769 0.2613,0.8686 0.5054,1.181 0.4997,0.6301 1.4478,0.9481 2.8445,0.9481l0.352 0c0.7438,0 1.4706,-0.1135 2.1803,-0.3406 0.7096,-0.2328 1.4308,-0.5962 2.1688,-1.1015 0.7381,-0.5053 1.4876,-1.1413 2.2427,-1.9021 0.7608,-0.7664 1.5387,-1.6692 2.3392,-2.7139l0.5167 0 -1.9986 6.9041 -18.3956 0 0 -0.5167c1.1979,-0.1987 2.0667,-0.6585 2.6117,-1.3797 0.4201,-0.5337 0.6302,-1.5897 0.6302,-3.1794l0 -12.5534c0,-1.0107 -0.0511,-1.7431 -0.1647,-2.1973 -0.1078,-0.4542 -0.3179,-0.846 -0.6131,-1.164 -0.5565,-0.6245 -1.3741,-1.0219 -2.4641,-1.198l0 -0.5166 10.6967 0z"/>
   <path class="fil4" d="M80.578 58.5583l1.0107 0.6984c0.3464,0.2214 0.5791,0.4315 0.6984,0.6245 0.1249,0.193 0.1873,0.4599 0.1873,0.7892 0,0.3123 0.0057,0.494 0.017,0.5508l0 0.2838 0 9.3001c0,0.7835 0.0625,1.743 0.1987,2.8729 0.2555,2.1518 1.1015,3.8494 2.5379,5.0929 1.4309,1.2434 3.2647,1.8679 5.4961,1.8793 -2.254,-0.477 -3.946,-1.4762 -5.0759,-2.9921 -0.5223,-0.6927 -0.8857,-1.4819 -1.0901,-2.3733 -0.2044,-0.8914 -0.3066,-2.061 -0.3066,-3.5032l0 -10.2766 0 -0.2838 0 -0.5508c0.0114,-0.3293 0.0738,-0.5904 0.1931,-0.7779 0.1135,-0.1929 0.352,-0.403 0.704,-0.6358l1.0163 -0.6984 -5.5869 0zm19.7584 0l-2.924 0c0.4315,0.2442 0.7779,0.4996 1.039,0.7665 0.2612,0.2669 0.4997,0.6189 0.7211,1.0674 0.3009,-0.721 0.687,-1.3343 1.1639,-1.8339zm-11.1453 -0.6302l0 0.5166c-1.2831,0.1988 -2.2143,0.653 -2.7934,1.3627 -0.2668,0.3464 -0.4485,0.7494 -0.5394,1.215 -0.0965,0.4656 -0.1419,1.1242 -0.1419,1.9815l0 9.1809 0 0.5791c0.0113,2.1972 0.5621,3.9005 1.6465,5.1099 0.5905,0.6529 1.3343,1.164 2.2484,1.5386 0.9084,0.3691 1.8566,0.5565 2.8388,0.5565 1.4422,0 2.6912,-0.3634 3.736,-1.0845 1.0503,-0.721 1.8395,-1.7317 2.3732,-3.0432 0.4202,-1.039 0.6302,-2.4811 0.6302,-4.3207l0 -7.7388c0,-1.8849 -0.4315,-3.2362 -1.3001,-4.0595 -0.7154,-0.687 -1.6239,-1.1128 -2.7083,-1.2775l0 -0.5166 7.733 0 0 0.5166c-0.7437,0.1988 -1.34,0.4997 -1.7885,0.8971 -0.4485,0.3974 -0.7721,0.9255 -0.9709,1.5784 -0.1987,0.6586 -0.3009,1.4762 -0.3009,2.4641l0 8.1192c0,1.3513 -0.0795,2.4357 -0.2498,3.2589 -0.1646,0.8176 -0.4372,1.567 -0.8119,2.2427 -0.4997,0.8914 -1.1412,1.6409 -1.9247,2.2654 -0.7779,0.6189 -1.6806,1.0902 -2.7026,1.4138 -1.0163,0.3179 -2.1178,0.4826 -3.2931,0.4826 -1.2548,0 -2.4016,-0.1817 -3.452,-0.5394 -1.0447,-0.3634 -1.9645,-0.8857 -2.7537,-1.5671 -0.7835,-0.6813 -1.4138,-1.5046 -1.8793,-2.4697 -0.6189,-1.2946 -0.9312,-3.1626 -0.9312,-5.5869l0 -7.9999c0,-0.9539 -0.0511,-1.6692 -0.1589,-2.1405 -0.1023,-0.4712 -0.3123,-0.88 -0.6189,-1.2207 -0.5564,-0.6245 -1.3797,-1.0219 -2.4641,-1.198l0 -0.5166 10.5775 0z"/>
  </g>
 </g>
</svg>
