<?xml version="1.0" encoding="UTF-8"?>
<!DOCTYPE svg PUBLIC "-//W3C//DTD SVG 1.1//EN" "http://www.w3.org/Graphics/SVG/1.1/DTD/svg11.dtd">
<!-- Creator: CorelDRAW -->
<svg xmlns="http://www.w3.org/2000/svg" xml:space="preserve" width="210mm" height="297mm" version="1.1" style="shape-rendering:geometricPrecision; text-rendering:geometricPrecision; image-rendering:optimizeQuality; fill-rule:evenodd; clip-rule:evenodd"
viewBox="0 0 210 297"
 xmlns:xlink="http://www.w3.org/1999/xlink"
 xmlns:xodm="http://www.corel.com/coreldraw/odm/2003">
 <defs>
  <style type="text/css">
   <![CDATA[
    .fil2 {fill:#E8ECF0}
    .fil3 {fill:#B0B8C4}
    .fil1 {fill:#3D5DA8}
    .fil0 {fill:#3D5DA8;fill-rule:nonzero}
   ]]>
  </style>
 </defs>
 <g id="Camada_x0020_1">
  <metadata id="CorelCorpID_0Corel-Layer"/>
  <g id="_105553197657408">
   <path class="fil0" d="M107.1425 107.5349l1.1404 0 0 8.6608 -1.1404 0 0 -8.6608zm-3.607 4.8355c0.2613,-0.0322 0.4384,-0.1348 0.527,-0.3079 0.0497,-0.0946 0.0756,-0.2294 0.0756,-0.4065 0,-0.3622 -0.1382,-0.6238 -0.4147,-0.7868 -0.2765,-0.163 -0.6717,-0.2455 -1.1879,-0.2455 -0.594,0 -1.0152,0.151 -1.2635,0.4488 -0.1404,0.165 -0.2311,0.4105 -0.2722,0.7365l-1.0648 0c0.0216,-0.7768 0.2938,-1.3181 0.8143,-1.6239 0.5205,-0.3039 1.1253,-0.4568 1.8121,-0.4568 0.797,0 1.4449,0.1408 1.9439,0.4246 0.4924,0.2837 0.7386,0.7224 0.7386,1.32l0 3.6382c0,0.1107 0.026,0.1992 0.0735,0.2656 0.0497,0.0664 0.1512,0.1007 0.3067,0.1007 0.0518,0 0.108,-0.0041 0.1706,-0.0101 0.0648,-0.006 0.1318,-0.0141 0.203,-0.0262l0 0.7848c-0.1771,0.0463 -0.3132,0.0765 -0.4039,0.0886 -0.0928,0.01 -0.2203,0.0161 -0.3801,0.0161 -0.3931,0 -0.6782,-0.1288 -0.8553,-0.3884 -0.0929,-0.1368 -0.1577,-0.332 -0.1965,-0.5836 -0.2312,0.2838 -0.5638,0.5293 -0.9979,0.7365 -0.4363,0.2093 -0.9136,0.3119 -1.4385,0.3119 -0.6285,0 -1.1404,-0.1771 -1.5399,-0.5332 -0.3975,-0.3542 -0.5983,-0.8009 -0.5983,-1.3342 0,-0.5855 0.1965,-1.0403 0.5896,-1.3623 0.391,-0.322 0.9072,-0.5212 1.5443,-0.5956l1.8143 -0.2113zm-2.7581 2.1451c0,0.3058 0.1209,0.5473 0.3607,0.7244 0.2397,0.1771 0.5248,0.2656 0.8553,0.2656 0.3995,0 0.7883,-0.0865 1.1641,-0.2596 0.6329,-0.2857 0.9482,-0.7566 0.9482,-1.4086l0 -0.8552c-0.1382,0.0825 -0.3175,0.153 -0.5378,0.2073 -0.2203,0.0543 -0.4341,0.0946 -0.6458,0.1167l-0.689 0.0825c-0.4147,0.0523 -0.7235,0.1328 -0.9309,0.2435 -0.3499,0.1831 -0.5248,0.4789 -0.5248,0.8834zm-6.9418 -4.6343l0 4.1916c0,0.3219 0.054,0.5856 0.1641,0.7908 0.2031,0.3763 0.581,0.5655 1.134,0.5655 0.7926,0 1.3326,-0.3301 1.6198,-0.9901 0.1556,-0.3541 0.2333,-0.8391 0.2333,-1.4569l0 -3.1009 1.1383 0 0 6.3145 -1.0757 0 0.013 -0.9316c-0.1469,0.2394 -0.3304,0.4427 -0.5508,0.6077 -0.4341,0.33 -0.9611,0.495 -1.581,0.495 -0.9654,0 -1.6242,-0.2998 -1.9741,-0.9015 -0.19,-0.322 -0.2851,-0.7526 -0.2851,-1.2919l0 -4.2922 1.1642 0zm-6.9418 4.3345c0.0346,0.3521 0.1296,0.6238 0.2851,0.8129 0.2873,0.3421 0.784,0.5131 1.4925,0.5131 0.4233,0 0.7948,-0.0865 1.1145,-0.2575 0.3218,-0.1711 0.4816,-0.4347 0.4816,-0.7929 0,-0.2696 -0.1296,-0.4769 -0.3866,-0.6177 -0.1642,-0.0866 -0.4903,-0.1872 -0.9741,-0.3019l-0.905 -0.2113c-0.5788,-0.1348 -1.0043,-0.2837 -1.2786,-0.4487 -0.4881,-0.2857 -0.7344,-0.6842 -0.7344,-1.1913 0,-0.5976 0.2311,-1.0806 0.6933,-1.4488 0.4623,-0.3703 1.0843,-0.5554 1.864,-0.5554 1.0216,0 1.756,0.2797 2.2074,0.8371 0.2829,0.3542 0.4211,0.7365 0.4125,1.145l-1.0756 0c-0.0216,-0.2395 -0.1123,-0.4588 -0.2721,-0.656 -0.2614,-0.2777 -0.715,-0.4186 -1.3608,-0.4186 -0.4298,0 -0.7559,0.0785 -0.9784,0.2314 -0.2203,0.153 -0.3326,0.3542 -0.3326,0.6057 0,0.2757 0.1469,0.4971 0.4385,0.6621 0.1684,0.0966 0.4168,0.1831 0.7451,0.2576l0.7538 0.171c0.8186,0.1851 1.3672,0.3642 1.6458,0.5373 0.4428,0.2716 0.6631,0.6982 0.6631,1.2798 0,0.5614 -0.229,1.0464 -0.6868,1.4549 -0.4579,0.4105 -1.1534,0.6137 -2.0908,0.6137 -1.0086,0 -1.7214,-0.2133 -2.1426,-0.6399 -0.419,-0.4266 -0.6436,-0.9538 -0.6738,-1.5816l1.095 0zm-3.5551 -6.6808l1.1577 0 0 1.2033 -1.1577 0 0 -1.2033zm0 2.3765l1.1577 0 0 6.2843 -1.1577 0 0 -6.2843zm-7.5596 -2.3765l2.6187 7.375 2.589 -7.375 1.3834 0 -3.3262 8.6608 -1.3094 0 -3.322 -8.6608 1.3665 0z"/>
   <path class="fil0" d="M135.3259 115.0828c-0.1707,0 -0.3182,0.0544 -0.4268,0.1785 -0.1242,0.1165 -0.1785,0.2639 -0.1785,0.4347 0,0.1707 0.0543,0.3104 0.1785,0.4346 0.1086,0.1086 0.2561,0.1707 0.4268,0.1707 0.1708,0 0.3105,-0.0621 0.4346,-0.1707 0.1164,-0.1242 0.1785,-0.2639 0.1785,-0.4346 0,-0.1708 -0.0621,-0.3182 -0.1785,-0.4347 -0.1241,-0.1241 -0.2638,-0.1785 -0.4346,-0.1785zm4.2607 -0.939c-0.1966,0.0828 -0.3958,0.1371 -0.5976,0.163 -0.2017,0.0258 -0.4035,0.0465 -0.6053,0.0621 -0.357,0.0258 -0.6351,0.106 -0.8343,0.2405 -0.1992,0.1346 -0.2988,0.3389 -0.2988,0.6131 0,0.1242 0.0246,0.2316 0.0737,0.3221 0.0492,0.0906 0.1139,0.1656 0.1941,0.2251 0.0802,0.0595 0.1733,0.1035 0.2794,0.1319 0.106,0.0285 0.2134,0.0427 0.322,0.0427 0.1863,0 0.3674,-0.0233 0.5433,-0.0698 0.1759,-0.0466 0.3324,-0.1178 0.4695,-0.2135 0.1371,-0.0957 0.2471,-0.2173 0.3298,-0.3647 0.0828,-0.1475 0.1242,-0.3221 0.1242,-0.5239l0 -0.6286zm-0.7838 -0.2328c0.0879,-0.0104 0.1927,-0.0259 0.3143,-0.0466 0.1216,-0.0207 0.2212,-0.0492 0.2988,-0.0854 0.0776,-0.0362 0.1255,-0.097 0.1436,-0.1823 0.0181,-0.0854 0.0271,-0.1643 0.0271,-0.2368 0,-0.238 -0.0763,-0.4333 -0.2289,-0.5859 -0.1527,-0.1526 -0.4101,-0.2289 -0.7722,-0.2289 -0.1604,0 -0.3079,0.0142 -0.4424,0.0426 -0.1345,0.0285 -0.2522,0.0777 -0.3531,0.1475 -0.1009,0.0698 -0.1837,0.163 -0.2484,0.2794 -0.0646,0.1164 -0.1073,0.2626 -0.128,0.4385l-0.4734 0c0.0155,-0.238 0.0698,-0.4411 0.163,-0.6092 0.0931,-0.1682 0.2134,-0.3053 0.3608,-0.4114 0.1475,-0.106 0.3182,-0.1836 0.5123,-0.2328 0.194,-0.0491 0.3996,-0.0737 0.6169,-0.0737 0.2018,0 0.392,0.022 0.5705,0.0659 0.1785,0.044 0.3337,0.1139 0.4656,0.2096 0.1319,0.0957 0.2354,0.2238 0.3104,0.3841 0.0751,0.1604 0.1126,0.357 0.1126,0.5899l0 2.1885c0,0.1811 0.0323,0.2962 0.097,0.3454 0.0647,0.0491 0.1953,0.0375 0.3919,-0.0349l0 0.3647c-0.0362,0.0104 -0.0892,0.0259 -0.1591,0.0466 -0.0698,0.0207 -0.1384,0.031 -0.2057,0.031 -0.0724,0 -0.1422,-0.0077 -0.2095,-0.0233 -0.0776,-0.0103 -0.1397,-0.0349 -0.1863,-0.0737 -0.0465,-0.0388 -0.084,-0.0854 -0.1125,-0.1397 -0.0284,-0.0543 -0.0478,-0.1138 -0.0582,-0.1785 -0.0103,-0.0647 -0.0155,-0.1332 -0.0155,-0.2056 -0.1966,0.2173 -0.4217,0.3828 -0.6752,0.4966 -0.2535,0.1139 -0.5277,0.1708 -0.8227,0.1708 -0.1759,0 -0.3453,-0.0233 -0.5083,-0.0699 -0.163,-0.0465 -0.3065,-0.119 -0.4307,-0.2173 -0.1242,-0.0983 -0.2225,-0.2186 -0.2949,-0.3608 -0.0725,-0.1423 -0.1087,-0.3118 -0.1087,-0.5084 0,-0.6829 0.4683,-1.0865 1.4047,-1.2107l0.6442 -0.0853zm2.5378 2.3437l0 -4.0201 0.4656 0 0 4.0201 -0.4656 0zm-0.0233 -4.897l0 -0.6908 0.5122 0 0 0.6908 -0.5122 0z"/>
   <path class="fil1" d="M93.3961 97.2112l0 -19.4004c0,-1.9509 1.5961,-3.547 3.5469,-3.547l11.346 0 0.0477 23.8835 -4.0458 -11.4402 -2.1099 0 5.0986 13.3637c-4.2814,0 -13.8835,4.7871 -13.8835,-2.8596z"/>
  </g>
  <g id="_105553197408928">
   <path class="fil2" d="M116.0953 90.2809l0 2.0363 1.5102 0c0.2789,0 0.6275,-0.0431 0.8466,-0.2452 0.1926,-0.1778 0.2228,-0.5568 0.2228,-0.8048 0,-0.223 -0.0244,-0.6001 -0.207,-0.7556 -0.2252,-0.192 -0.5845,-0.2307 -0.8624,-0.2307l-1.5102 0z"/>
   <polygon class="fil2" points="112.3125,100.0708 109.3173,100.0708 112.3125,92.2303 "/>
   <path class="fil2" d="M130.2837 111.2755l-0.8497 0 0 -1.7195 0.8497 0 0 -1.7014 2.1606 0 0 1.7014 0.9911 0 0 1.7195 -0.9911 0 0 2.9297c0,0.0499 0.0022,0.1715 0.0171,0.2453 0.1042,0.021 0.2965,0.0226 0.3692,0.0226 0.0474,0 0.0949,-0.0001 0.1423,-0.0018 0.0501,-0.0018 0.1001,-0.0054 0.1501,-0.009l0.3124 -0.0223 0 1.7856 -1.0368 0.0393c-0.5829,0.0221 -1.334,-0.0341 -1.7655,-0.4801 -0.2707,-0.2798 -0.3494,-0.6719 -0.3494,-1.0487l0 -3.4606zm-1.617 -0.8936c0.5724,0.7179 0.835,1.553 0.835,2.4695 0,0.9175 -0.2551,1.7624 -0.8364,2.4806 -0.6408,0.7918 -1.5821,1.0611 -2.5716,1.0611 -0.9891,0 -1.9293,-0.2698 -2.5698,-1.0611 -0.5816,-0.7187 -0.8383,-1.5622 -0.8383,-2.4806 0,-0.9173 0.2642,-1.7511 0.837,-2.4695 0.6391,-0.8016 1.5782,-1.078 2.5711,-1.078 0.9934,0 1.9334,0.2759 2.573,1.078zm-8.7556 -3.0296l2.1778 0 0 8.8288 -2.1778 0 0 -8.8288zm-0.994 -0.0515l0 2.0556 -2.2007 0 0 -2.0556 2.2007 0zm0 2.1998l0 6.6805 -2.2007 0 0 -6.6805 2.2007 0zm-7.4014 3.715l0 2.9655 -2.2943 0 0 -8.8288 3.8816 0c0.7897,0 1.5637,0.1825 2.1728,0.7088 0.6414,0.5542 0.8381,1.3779 0.8381,2.1952 0,0.8276 -0.1693,1.737 -0.8439,2.2898 -0.6379,0.5227 -1.4921,0.6695 -2.2949,0.6695l-1.4594 0zm14.5723 -1.9802c-0.3434,0 -0.6336,0.1033 -0.8454,0.3801 -0.2574,0.3364 -0.3162,0.8256 -0.3162,1.2359 0,0.4112 0.0598,0.9007 0.3167,1.2383 0.2119,0.2785 0.4997,0.3834 0.8449,0.3834 0.3438,0 0.632,-0.104 0.8423,-0.3825 0.2555,-0.3385 0.3153,-0.828 0.3153,-1.2392 0,-0.4103 -0.0588,-0.8996 -0.3149,-1.2367 -0.2101,-0.2768 -0.5007,-0.3793 -0.8427,-0.3793zm-14.5723 -1.8676l0 1.8437 1.3143 0c0.2616,0 0.5549,-0.0449 0.7586,-0.2235 0.1964,-0.1723 0.2367,-0.4743 0.2367,-0.7203 0,-0.2345 -0.0361,-0.5333 -0.2318,-0.6918 -0.2076,-0.1682 -0.5051,-0.2081 -0.7635,-0.2081l-1.3143 0z"/>
   <path class="fil2" d="M108.289 74.2638l11.2554 0c1.9508,0 3.547,1.5961 3.547,3.547l0 19.4004c0,3.8755 -4.161,1.7313 -6.9961,2.8596l0 -4.1965 1.7107 0c1.1844,0 2.4257,-0.2362 3.3655,-1.0461 1.0096,-0.8704 1.2784,-2.2706 1.2784,-3.5778 0,-1.2859 -0.3072,-2.5649 -1.2642,-3.4346 -0.8989,-0.8172 -2.0361,-1.1087 -3.2029,-1.1087l-3.5605 0 -2.1098 0 -0.0262 0 -3.9626 11.3484 -0.0347 0.0995 0 -23.8912z"/>
  </g>
  <g id="_105553197523712">
   <path class="fil0" d="M108.3931 168.5698l1.1404 0 0 8.6608 -1.1404 0 0 -8.6608zm-3.607 4.8355c0.2613,-0.0322 0.4384,-0.1348 0.527,-0.3079 0.0497,-0.0946 0.0756,-0.2294 0.0756,-0.4065 0,-0.3622 -0.1382,-0.6238 -0.4147,-0.7868 -0.2765,-0.163 -0.6717,-0.2455 -1.1879,-0.2455 -0.594,0 -1.0152,0.151 -1.2635,0.4488 -0.1404,0.165 -0.2311,0.4105 -0.2722,0.7365l-1.0648 0c0.0216,-0.7768 0.2938,-1.3181 0.8143,-1.6239 0.5205,-0.3039 1.1253,-0.4568 1.8121,-0.4568 0.797,0 1.4449,0.1408 1.9439,0.4246 0.4924,0.2837 0.7386,0.7224 0.7386,1.32l0 3.6382c0,0.1107 0.026,0.1992 0.0735,0.2656 0.0497,0.0664 0.1512,0.1007 0.3067,0.1007 0.0518,0 0.108,-0.0041 0.1706,-0.0101 0.0648,-0.006 0.1318,-0.0141 0.203,-0.0262l0 0.7848c-0.1771,0.0463 -0.3132,0.0765 -0.4039,0.0886 -0.0928,0.01 -0.2203,0.0161 -0.3801,0.0161 -0.3931,0 -0.6782,-0.1288 -0.8553,-0.3884 -0.0929,-0.1368 -0.1577,-0.332 -0.1965,-0.5836 -0.2312,0.2838 -0.5638,0.5293 -0.9979,0.7365 -0.4363,0.2093 -0.9136,0.3119 -1.4385,0.3119 -0.6285,0 -1.1404,-0.1771 -1.5399,-0.5332 -0.3975,-0.3542 -0.5983,-0.8009 -0.5983,-1.3342 0,-0.5855 0.1965,-1.0403 0.5896,-1.3623 0.391,-0.322 0.9072,-0.5212 1.5443,-0.5956l1.8143 -0.2113zm-2.7581 2.1451c0,0.3058 0.1209,0.5473 0.3607,0.7244 0.2397,0.1771 0.5248,0.2656 0.8553,0.2656 0.3995,0 0.7883,-0.0865 1.1641,-0.2596 0.6329,-0.2857 0.9482,-0.7566 0.9482,-1.4086l0 -0.8552c-0.1382,0.0825 -0.3175,0.153 -0.5378,0.2073 -0.2203,0.0543 -0.4341,0.0946 -0.6458,0.1167l-0.689 0.0825c-0.4147,0.0523 -0.7235,0.1328 -0.9309,0.2435 -0.3499,0.1831 -0.5248,0.4789 -0.5248,0.8834zm-6.9418 -4.6343l0 4.1916c0,0.3219 0.054,0.5856 0.1641,0.7908 0.2031,0.3763 0.581,0.5655 1.134,0.5655 0.7926,0 1.3326,-0.3301 1.6198,-0.9901 0.1556,-0.3541 0.2333,-0.8391 0.2333,-1.4569l0 -3.1009 1.1383 0 0 6.3145 -1.0757 0 0.013 -0.9316c-0.1469,0.2394 -0.3304,0.4427 -0.5508,0.6077 -0.4341,0.33 -0.9611,0.495 -1.581,0.495 -0.9654,0 -1.6242,-0.2998 -1.9741,-0.9015 -0.19,-0.322 -0.2851,-0.7526 -0.2851,-1.2919l0 -4.2922 1.1642 0zm-6.9418 4.3345c0.0346,0.3521 0.1296,0.6238 0.2851,0.8129 0.2873,0.3421 0.784,0.5131 1.4925,0.5131 0.4233,0 0.7948,-0.0865 1.1145,-0.2575 0.3218,-0.1711 0.4816,-0.4347 0.4816,-0.7929 0,-0.2696 -0.1296,-0.4769 -0.3866,-0.6177 -0.1642,-0.0866 -0.4903,-0.1872 -0.9741,-0.3019l-0.905 -0.2113c-0.5788,-0.1348 -1.0043,-0.2837 -1.2786,-0.4487 -0.4881,-0.2857 -0.7344,-0.6842 -0.7344,-1.1913 0,-0.5976 0.2311,-1.0806 0.6933,-1.4488 0.4623,-0.3703 1.0843,-0.5554 1.864,-0.5554 1.0216,0 1.756,0.2797 2.2074,0.8371 0.2829,0.3542 0.4211,0.7365 0.4125,1.145l-1.0756 0c-0.0216,-0.2395 -0.1123,-0.4588 -0.2721,-0.656 -0.2614,-0.2777 -0.715,-0.4186 -1.3608,-0.4186 -0.4298,0 -0.7559,0.0785 -0.9784,0.2314 -0.2203,0.153 -0.3326,0.3542 -0.3326,0.6057 0,0.2757 0.1469,0.4971 0.4385,0.6621 0.1684,0.0966 0.4168,0.1831 0.7451,0.2576l0.7538 0.171c0.8186,0.1851 1.3672,0.3642 1.6458,0.5373 0.4428,0.2716 0.6631,0.6982 0.6631,1.2798 0,0.5614 -0.229,1.0464 -0.6868,1.4549 -0.4579,0.4105 -1.1534,0.6137 -2.0908,0.6137 -1.0086,0 -1.7214,-0.2133 -2.1426,-0.6399 -0.419,-0.4266 -0.6436,-0.9538 -0.6738,-1.5816l1.095 0zm-3.5551 -6.6808l1.1577 0 0 1.2033 -1.1577 0 0 -1.2033zm0 2.3765l1.1577 0 0 6.2843 -1.1577 0 0 -6.2843zm-7.5596 -2.3765l2.6187 7.375 2.589 -7.375 1.3834 0 -3.3262 8.6608 -1.3094 0 -3.322 -8.6608 1.3665 0z"/>
   <path class="fil0" d="M136.5765 176.1177c-0.1707,0 -0.3182,0.0544 -0.4268,0.1785 -0.1242,0.1165 -0.1785,0.2639 -0.1785,0.4347 0,0.1707 0.0543,0.3104 0.1785,0.4346 0.1086,0.1086 0.2561,0.1707 0.4268,0.1707 0.1708,0 0.3105,-0.0621 0.4346,-0.1707 0.1164,-0.1242 0.1785,-0.2639 0.1785,-0.4346 0,-0.1708 -0.0621,-0.3182 -0.1785,-0.4347 -0.1241,-0.1241 -0.2638,-0.1785 -0.4346,-0.1785zm4.2607 -0.939c-0.1966,0.0828 -0.3958,0.1371 -0.5976,0.163 -0.2017,0.0258 -0.4035,0.0465 -0.6053,0.0621 -0.357,0.0258 -0.6351,0.106 -0.8343,0.2405 -0.1992,0.1346 -0.2988,0.3389 -0.2988,0.6131 0,0.1242 0.0246,0.2316 0.0737,0.3221 0.0492,0.0906 0.1139,0.1656 0.1941,0.2251 0.0802,0.0595 0.1733,0.1035 0.2794,0.1319 0.106,0.0285 0.2134,0.0427 0.322,0.0427 0.1863,0 0.3674,-0.0233 0.5433,-0.0698 0.1759,-0.0466 0.3324,-0.1178 0.4695,-0.2135 0.1371,-0.0957 0.2471,-0.2173 0.3298,-0.3647 0.0828,-0.1475 0.1242,-0.3221 0.1242,-0.5239l0 -0.6286zm-0.7838 -0.2328c0.0879,-0.0104 0.1927,-0.0259 0.3143,-0.0466 0.1216,-0.0207 0.2212,-0.0492 0.2988,-0.0854 0.0776,-0.0362 0.1255,-0.097 0.1436,-0.1823 0.0181,-0.0854 0.0271,-0.1643 0.0271,-0.2368 0,-0.238 -0.0763,-0.4333 -0.2289,-0.5859 -0.1527,-0.1526 -0.4101,-0.2289 -0.7722,-0.2289 -0.1604,0 -0.3079,0.0142 -0.4424,0.0426 -0.1345,0.0285 -0.2522,0.0777 -0.3531,0.1475 -0.1009,0.0698 -0.1837,0.163 -0.2484,0.2794 -0.0646,0.1164 -0.1073,0.2626 -0.128,0.4385l-0.4734 0c0.0155,-0.238 0.0698,-0.4411 0.163,-0.6092 0.0931,-0.1682 0.2134,-0.3053 0.3608,-0.4114 0.1475,-0.106 0.3182,-0.1836 0.5123,-0.2328 0.194,-0.0491 0.3996,-0.0737 0.6169,-0.0737 0.2018,0 0.392,0.022 0.5705,0.0659 0.1785,0.044 0.3337,0.1139 0.4656,0.2096 0.1319,0.0957 0.2354,0.2238 0.3104,0.3841 0.0751,0.1604 0.1126,0.357 0.1126,0.5899l0 2.1885c0,0.1811 0.0323,0.2962 0.097,0.3454 0.0647,0.0491 0.1953,0.0375 0.3919,-0.0349l0 0.3647c-0.0362,0.0104 -0.0892,0.0259 -0.1591,0.0466 -0.0698,0.0207 -0.1384,0.031 -0.2057,0.031 -0.0724,0 -0.1422,-0.0077 -0.2095,-0.0233 -0.0776,-0.0103 -0.1397,-0.0349 -0.1863,-0.0737 -0.0465,-0.0388 -0.084,-0.0854 -0.1125,-0.1397 -0.0284,-0.0543 -0.0478,-0.1138 -0.0582,-0.1785 -0.0103,-0.0647 -0.0155,-0.1332 -0.0155,-0.2056 -0.1966,0.2173 -0.4217,0.3828 -0.6752,0.4966 -0.2535,0.1139 -0.5277,0.1708 -0.8227,0.1708 -0.1759,0 -0.3453,-0.0233 -0.5083,-0.0699 -0.163,-0.0465 -0.3065,-0.119 -0.4307,-0.2173 -0.1242,-0.0983 -0.2225,-0.2186 -0.2949,-0.3608 -0.0725,-0.1423 -0.1087,-0.3118 -0.1087,-0.5084 0,-0.6829 0.4683,-1.0865 1.4047,-1.2107l0.6442 -0.0853zm2.5378 2.3437l0 -4.0201 0.4656 0 0 4.0201 -0.4656 0zm-0.0233 -4.897l0 -0.6908 0.5122 0 0 0.6908 -0.5122 0z"/>
   <path class="fil1" d="M94.6467 158.2461l0 -19.4004c0,-1.9509 1.5961,-3.547 3.5469,-3.547l11.346 0 0.0477 23.8835 -4.0458 -11.4402 -2.1099 0 5.0986 13.3637c-4.2814,0 -13.8835,4.7871 -13.8835,-2.8596z"/>
  </g>
  <g id="_105553197332480">
   <path class="fil3" d="M117.3459 151.3158l0 2.0363 1.5102 0c0.2789,0 0.6275,-0.0431 0.8466,-0.2452 0.1926,-0.1778 0.2228,-0.5568 0.2228,-0.8048 0,-0.223 -0.0244,-0.6001 -0.207,-0.7556 -0.2252,-0.192 -0.5845,-0.2307 -0.8624,-0.2307l-1.5102 0z"/>
   <polygon class="fil3" points="113.5631,161.1057 110.5679,161.1057 113.5631,153.2652 "/>
   <path class="fil3" d="M131.5343 172.3104l-0.8497 0 0 -1.7195 0.8497 0 0 -1.7014 2.1606 0 0 1.7014 0.9911 0 0 1.7195 -0.9911 0 0 2.9297c0,0.0499 0.0022,0.1715 0.0171,0.2453 0.1042,0.021 0.2965,0.0226 0.3692,0.0226 0.0474,0 0.0949,-0.0001 0.1423,-0.0018 0.0501,-0.0018 0.1001,-0.0054 0.1501,-0.009l0.3124 -0.0223 0 1.7856 -1.0368 0.0393c-0.5829,0.0221 -1.334,-0.0341 -1.7655,-0.4801 -0.2707,-0.2798 -0.3494,-0.6719 -0.3494,-1.0487l0 -3.4606zm-1.617 -0.8936c0.5724,0.7179 0.835,1.553 0.835,2.4695 0,0.9175 -0.2551,1.7624 -0.8364,2.4806 -0.6408,0.7918 -1.5821,1.0611 -2.5716,1.0611 -0.9891,0 -1.9293,-0.2698 -2.5698,-1.0611 -0.5816,-0.7187 -0.8383,-1.5622 -0.8383,-2.4806 0,-0.9173 0.2642,-1.7511 0.837,-2.4695 0.6391,-0.8016 1.5782,-1.078 2.5711,-1.078 0.9934,0 1.9334,0.2759 2.573,1.078zm-8.7556 -3.0296l2.1778 0 0 8.8288 -2.1778 0 0 -8.8288zm-0.994 -0.0515l0 2.0556 -2.2007 0 0 -2.0556 2.2007 0zm0 2.1998l0 6.6805 -2.2007 0 0 -6.6805 2.2007 0zm-7.4014 3.715l0 2.9655 -2.2943 0 0 -8.8288 3.8816 0c0.7897,0 1.5637,0.1825 2.1728,0.7088 0.6414,0.5542 0.8381,1.3779 0.8381,2.1952 0,0.8276 -0.1693,1.737 -0.8439,2.2898 -0.6379,0.5227 -1.4921,0.6695 -2.2949,0.6695l-1.4594 0zm14.5723 -1.9802c-0.3434,0 -0.6336,0.1033 -0.8454,0.3801 -0.2574,0.3364 -0.3162,0.8256 -0.3162,1.2359 0,0.4112 0.0598,0.9007 0.3167,1.2383 0.2119,0.2785 0.4997,0.3834 0.8449,0.3834 0.3438,0 0.632,-0.104 0.8423,-0.3825 0.2555,-0.3385 0.3153,-0.828 0.3153,-1.2392 0,-0.4103 -0.0588,-0.8996 -0.3149,-1.2367 -0.2101,-0.2768 -0.5007,-0.3793 -0.8427,-0.3793zm-14.5723 -1.8676l0 1.8437 1.3143 0c0.2616,0 0.5549,-0.0449 0.7586,-0.2235 0.1964,-0.1723 0.2367,-0.4743 0.2367,-0.7203 0,-0.2345 -0.0361,-0.5333 -0.2318,-0.6918 -0.2076,-0.1682 -0.5051,-0.2081 -0.7635,-0.2081l-1.3143 0z"/>
   <path class="fil3" d="M109.5396 135.2987l11.2554 0c1.9508,0 3.547,1.5961 3.547,3.547l0 19.4004c0,3.8755 -4.161,1.7313 -6.9961,2.8596l0 -4.1965 1.7107 0c1.1844,0 2.4257,-0.2362 3.3655,-1.0461 1.0096,-0.8704 1.2784,-2.2706 1.2784,-3.5778 0,-1.2859 -0.3072,-2.5649 -1.2642,-3.4346 -0.8989,-0.8172 -2.0361,-1.1087 -3.2029,-1.1087l-3.5605 0 -2.1098 0 -0.0262 0 -3.9626 11.3484 -0.0347 0.0995 0 -23.8912z"/>
  </g>
 </g>
</svg>
