<?xml version="1.0" encoding="UTF-8"?>
<!DOCTYPE svg PUBLIC "-//W3C//DTD SVG 1.1//EN" "http://www.w3.org/Graphics/SVG/1.1/DTD/svg11.dtd">
<!-- Creator: CorelDRAW -->
<svg xmlns="http://www.w3.org/2000/svg" xml:space="preserve" width="65.1626mm" height="8.8309mm" version="1.1" style="shape-rendering:geometricPrecision; text-rendering:geometricPrecision; image-rendering:optimizeQuality; fill-rule:evenodd; clip-rule:evenodd"
viewBox="0 0 74.6342 10.1145"
 xmlns:xlink="http://www.w3.org/1999/xlink"
 xmlns:xodm="http://www.corel.com/coreldraw/odm/2003">
 <defs>
  <style type="text/css">
   <![CDATA[
    .fil0 {fill:#332D2B}
    .fil1 {fill:#332D2B;fill-rule:nonzero}
   ]]>
  </style>
 </defs>
 <g id="Camada_x0020_1">
  <metadata id="CorelCorpID_0Corel-Layer"/>
  <path class="fil0" d="M61.8524 4.4002l-0.9407 0 0 -1.9036 0.9407 0 0 -1.8836 2.392 0 0 1.8836 1.0971 0 0 1.9036 -1.0971 0 0 3.2433c0,0.0553 0.0024,0.1899 0.0189,0.2717 0.1153,0.0231 0.3281,0.0249 0.4087,0.0249 0.0525,0 0.105,0 0.1576,-0.0018 0.0554,-0.0021 0.1108,-0.0061 0.1661,-0.01l0.3459 -0.0247 0 1.9768 -1.1479 0.0435c-0.6453,0.0244 -1.4767,-0.0378 -1.9544,-0.5316 -0.2996,-0.3097 -0.3868,-0.7438 -0.3868,-1.1609l0 -3.8311zm-1.7902 -0.9892c0.6337,0.7948 0.9244,1.7193 0.9244,2.7337 0,1.0158 -0.2823,1.9511 -0.9259,2.7463 -0.7094,0.8765 -1.7515,1.1746 -2.8469,1.1746 -1.0951,0 -2.136,-0.2986 -2.8449,-1.1746 -0.6439,-0.7957 -0.928,-1.7295 -0.928,-2.7463 0,-1.0154 0.2924,-1.9385 0.9266,-2.7337 0.7075,-0.8874 1.7471,-1.1935 2.8463,-1.1935 1.0997,0 2.1404,0.3055 2.8484,1.1935zm-9.6929 -3.3539l2.411 0 0 9.774 -2.411 0 0 -9.774zm-1.1005 -0.057l0 2.2756 -2.4363 0 0 -2.2756 2.4363 0zm0 2.4353l0 7.3958 -2.4363 0 0 -7.3958 2.4363 0zm-8.1937 4.1127l0 3.283 -2.5398 0 0 -9.774 4.2971 0c0.8741,0 1.731,0.2019 2.4054,0.7847 0.71,0.6135 0.9279,1.5254 0.9279,2.4301 0,0.9163 -0.1874,1.923 -0.9343,2.535 -0.7061,0.5786 -1.6518,0.7412 -2.5406,0.7412l-1.6156 0zm16.1323 -2.1922c-0.3801,0 -0.7013,0.1144 -0.9359,0.4209 -0.285,0.3724 -0.3499,0.9139 -0.3499,1.368 0,0.4553 0.0661,0.9971 0.3505,1.371 0.2346,0.3083 0.5532,0.4244 0.9353,0.4244 0.3807,0 0.6997,-0.1151 0.9325,-0.4234 0.2829,-0.3746 0.3491,-0.9166 0.3491,-1.3719 0,-0.4541 -0.0652,-0.9958 -0.3486,-1.369 -0.2326,-0.3064 -0.5544,-0.4199 -0.933,-0.4199zm-16.1323 -2.0675l0 2.0411 1.4549 0c0.2898,0 0.6145,-0.0498 0.8399,-0.2475 0.2174,-0.1907 0.2621,-0.525 0.2621,-0.7974 0,-0.2597 -0.04,-0.5904 -0.2566,-0.7659 -0.2299,-0.1861 -0.5593,-0.2303 -0.8454,-0.2303l-1.4549 0z"/>
  <path class="fil1" d="M36.2337 0.2591l1.2625 0 0 9.5881 -1.2625 0 0 -9.5881zm-3.993 5.3533c0.2893,-0.0357 0.4854,-0.1492 0.5834,-0.3409 0.055,-0.1047 0.0836,-0.2539 0.0836,-0.45 0,-0.401 -0.153,-0.6906 -0.4591,-0.871 -0.306,-0.1804 -0.7437,-0.2718 -1.3151,-0.2718 -0.6575,0 -1.1238,0.1671 -1.3988,0.4967 -0.1554,0.1827 -0.2558,0.4545 -0.3012,0.8154l-1.1788 0c0.0239,-0.8599 0.3252,-1.4592 0.9014,-1.7977 0.5763,-0.3364 1.2458,-0.5057 2.0062,-0.5057 0.8823,0 1.5996,0.1559 2.1519,0.4701 0.5452,0.3141 0.8178,0.7997 0.8178,1.4614l0 4.0278c0,0.1224 0.0286,0.2205 0.0813,0.294 0.055,0.0735 0.1673,0.1113 0.3395,0.1113 0.0574,0 0.1196,-0.0045 0.1889,-0.0111 0.0718,-0.0066 0.1459,-0.0156 0.2248,-0.029l0 0.8689c-0.1961,0.0512 -0.3467,0.0846 -0.4471,0.098 -0.1029,0.0111 -0.2438,0.0178 -0.4208,0.0178 -0.4352,0 -0.7508,-0.1426 -0.9469,-0.43 -0.1029,-0.1514 -0.1746,-0.3675 -0.2176,-0.646 -0.2559,0.3141 -0.6241,0.5858 -1.1047,0.8154 -0.483,0.2316 -1.0115,0.3452 -1.5925,0.3452 -0.6958,0 -1.2624,-0.196 -1.7047,-0.5903 -0.44,-0.3921 -0.6624,-0.8866 -0.6624,-1.4769 0,-0.6483 0.2176,-1.1518 0.6527,-1.5082 0.4328,-0.3564 1.0042,-0.5769 1.7097,-0.6594l2.0085 -0.2339zm-3.0534 2.3747c0,0.3387 0.1339,0.606 0.3993,0.802 0.2654,0.1961 0.581,0.2941 0.9469,0.2941 0.4423,0 0.8728,-0.0959 1.2888,-0.2874 0.7006,-0.3163 1.0497,-0.8377 1.0497,-1.5594l0 -0.9469c-0.153,0.0914 -0.3515,0.1694 -0.5954,0.2295 -0.2438,0.0601 -0.4806,0.1047 -0.7149,0.1292l-0.7628 0.0913c-0.4591,0.058 -0.8009,0.1471 -1.0305,0.2696 -0.3874,0.2027 -0.581,0.5302 -0.581,0.9779zm-7.685 -5.1304l0 4.6403c0,0.3564 0.0598,0.6483 0.1818,0.8755 0.2247,0.4166 0.6431,0.6261 1.2553,0.6261 0.8775,0 1.4753,-0.3654 1.7933,-1.0961 0.1721,-0.3921 0.2583,-0.9289 0.2583,-1.6129l0 -3.4329 1.2601 0 0 6.9906 -1.1908 0 0.0143 -1.0314c-0.1625,0.265 -0.3658,0.4901 -0.6097,0.6728 -0.4806,0.3653 -1.064,0.5479 -1.7503,0.5479 -1.0687,0 -1.7981,-0.3319 -2.1854,-0.9979 -0.2104,-0.3564 -0.3155,-0.8332 -0.3155,-1.4302l0 -4.7517 1.2888 0zm-7.6849 4.7985c0.0383,0.3899 0.1434,0.6906 0.3155,0.9 0.3181,0.3788 0.8679,0.5681 1.6523,0.5681 0.4687,0 0.8799,-0.0959 1.2338,-0.2852 0.3563,-0.1893 0.5332,-0.4812 0.5332,-0.8777 0,-0.2985 -0.1434,-0.528 -0.4279,-0.6839 -0.1818,-0.0959 -0.5428,-0.2072 -1.0785,-0.3342l-1.0018 -0.2339c-0.6408,-0.1492 -1.1118,-0.3141 -1.4155,-0.4967 -0.5404,-0.3163 -0.813,-0.7574 -0.813,-1.3189 0,-0.6616 0.2559,-1.1962 0.7676,-1.604 0.5116,-0.4098 1.2003,-0.6148 2.0635,-0.6148 1.131,0 1.9439,0.3097 2.4437,0.9267 0.3131,0.3922 0.4662,0.8154 0.4567,1.2676l-1.1907 0c-0.0239,-0.265 -0.1244,-0.5078 -0.3013,-0.7262 -0.2893,-0.3074 -0.7914,-0.4634 -1.5064,-0.4634 -0.4758,0 -0.8369,0.0869 -1.0832,0.2562 -0.2438,0.1693 -0.3682,0.3921 -0.3682,0.6705 0,0.3052 0.1626,0.5502 0.4854,0.7329 0.1865,0.107 0.4615,0.2027 0.8249,0.2852l0.8345 0.1893c0.9062,0.205 1.5136,0.4033 1.822,0.5948 0.4902,0.3008 0.7341,0.773 0.7341,1.4168 0,0.6216 -0.2535,1.1584 -0.7604,1.6107 -0.5068,0.4545 -1.2768,0.6794 -2.3145,0.6794 -1.1166,0 -1.9056,-0.2362 -2.3719,-0.7084 -0.4639,-0.4722 -0.7125,-1.0559 -0.7461,-1.751l1.2124 0zm-3.9358 -7.396l1.2817 0 0 1.3323 -1.2817 0 0 -1.3323zm0 2.631l1.2817 0 0 6.9571 -1.2817 0 0 -6.9571zm-8.3689 -2.631l2.899 8.1647 2.8661 -8.1647 1.5317 0 -3.6824 9.5881 -1.4494 0 -3.6777 -9.5881 1.5128 0z"/>
  <path class="fil1" d="M67.4344 8.6151c-0.189,0 -0.3523,0.0601 -0.4726,0.1977 -0.1374,0.1289 -0.1976,0.2921 -0.1976,0.481 0,0.1891 0.0601,0.3437 0.1976,0.4812 0.1203,0.1203 0.2836,0.189 0.4726,0.189 0.189,0 0.3437,-0.0687 0.4812,-0.189 0.1289,-0.1374 0.1976,-0.2921 0.1976,-0.4812 0,-0.189 -0.0687,-0.3522 -0.1976,-0.481 -0.1374,-0.1376 -0.2922,-0.1977 -0.4812,-0.1977zm4.7168 -1.0395c-0.2176,0.0916 -0.4381,0.1518 -0.6616,0.1804 -0.2233,0.0286 -0.4467,0.0515 -0.6701,0.0687 -0.3951,0.0286 -0.703,0.1174 -0.9236,0.2663 -0.2205,0.149 -0.3308,0.3752 -0.3308,0.6787 0,0.1376 0.0273,0.2563 0.0817,0.3567 0.0544,0.1002 0.126,0.1833 0.2148,0.2491 0.0888,0.0659 0.1918,0.1145 0.3094,0.146 0.1174,0.0315 0.2363,0.0473 0.3565,0.0473 0.2062,0 0.4066,-0.0258 0.6014,-0.0773 0.1947,-0.0515 0.368,-0.1303 0.5198,-0.2363 0.1518,-0.1059 0.2735,-0.2406 0.3651,-0.4039 0.0916,-0.1632 0.1374,-0.3565 0.1374,-0.5799l0 -0.6959zm-0.8677 -0.2578c0.0974,-0.0115 0.2134,-0.0286 0.348,-0.0515 0.1346,-0.0229 0.2449,-0.0544 0.3308,-0.0945 0.0859,-0.0401 0.1389,-0.1074 0.159,-0.2019 0.02,-0.0945 0.03,-0.1819 0.03,-0.2621 0,-0.2634 -0.0844,-0.4797 -0.2535,-0.6486 -0.1689,-0.1689 -0.4539,-0.2535 -0.8548,-0.2535 -0.1776,0 -0.3409,0.0157 -0.4898,0.0473 -0.1489,0.0315 -0.2792,0.0859 -0.3909,0.1632 -0.1118,0.0773 -0.2034,0.1804 -0.275,0.3092 -0.0716,0.1289 -0.1188,0.2907 -0.1417,0.4855l-0.5241 0c0.0172,-0.2635 0.0773,-0.4884 0.1804,-0.6745 0.1031,-0.1861 0.2363,-0.338 0.3995,-0.4554 0.1632,-0.1174 0.3523,-0.2033 0.5671,-0.2577 0.2148,-0.0544 0.4425,-0.0817 0.6831,-0.0817 0.2233,0 0.4339,0.0244 0.6314,0.0731 0.1976,0.0487 0.3695,0.126 0.5155,0.2319 0.146,0.1059 0.2606,0.2477 0.3436,0.4253 0.083,0.1776 0.1246,0.3953 0.1246,0.653l0 2.4229c0,0.2004 0.0358,0.3279 0.1074,0.3823 0.0716,0.0544 0.2161,0.0416 0.4339,-0.0386l0 0.4037c-0.0401,0.0115 -0.0988,0.0286 -0.1762,0.0515 -0.0773,0.0229 -0.1532,0.0344 -0.2277,0.0344 -0.0802,0 -0.1575,-0.0086 -0.2319,-0.0258 -0.0859,-0.0115 -0.1546,-0.0386 -0.2062,-0.0815 -0.0517,-0.043 -0.0931,-0.0945 -0.1246,-0.1547 -0.0315,-0.0601 -0.053,-0.126 -0.0645,-0.1976 -0.0115,-0.0716 -0.0172,-0.1475 -0.0172,-0.2277 -0.2176,0.2406 -0.4668,0.4239 -0.7475,0.5499 -0.2806,0.126 -0.5842,0.189 -0.9107,0.189 -0.1948,0 -0.3823,-0.0258 -0.5628,-0.0773 -0.1804,-0.0515 -0.3394,-0.1317 -0.4768,-0.2405 -0.1374,-0.1088 -0.2463,-0.242 -0.3264,-0.3995 -0.0803,-0.1575 -0.1204,-0.3451 -0.1204,-0.5628 0,-0.756 0.5184,-1.2027 1.5552,-1.3403l0.7131 -0.0945zm2.8094 2.5947l0 -4.4505 0.5155 0 0 4.4505 -0.5155 0zm-0.0258 -5.4213l0 -0.7646 0.5671 0 0 0.7646 -0.5671 0z"/>
 </g>
</svg>
