<?xml version="1.0" encoding="UTF-8"?>
<!DOCTYPE svg PUBLIC "-//W3C//DTD SVG 1.1//EN" "http://www.w3.org/Graphics/SVG/1.1/DTD/svg11.dtd">
<!-- Creator: CorelDRAW -->
<svg xmlns="http://www.w3.org/2000/svg" xml:space="preserve" width="30.4228mm" height="25.6162mm" version="1.1" style="shape-rendering:geometricPrecision; text-rendering:geometricPrecision; image-rendering:optimizeQuality; fill-rule:evenodd; clip-rule:evenodd"
viewBox="0 0 41.779 35.1782"
 xmlns:xlink="http://www.w3.org/1999/xlink"
 xmlns:xodm="http://www.corel.com/coreldraw/odm/2003">
 <defs>
  <style type="text/css">
   <![CDATA[
    .fil0 {fill:#ffffff}
   ]]>
  </style>
 </defs>
 <g id="Camada_x0020_1">
  <metadata id="CorelCorpID_0Corel-Layer"/>
  <path class="fil0" d="M0.5103 0l40.7584 0c0.2807,0 0.5103,0.2416 0.5103,0.5368l0 34.1046c0,0.2953 -0.2296,0.5368 -0.5103,0.5368l-9.7944 0 0 -5.5702 2.2707 0c1.5721,0 3.2198,-0.3135 4.4673,-1.3887 1.34,-1.1552 1.6968,-3.0138 1.6968,-4.7489 0,-1.7068 -0.4077,-3.4045 -1.678,-4.559 -1.1932,-1.0848 -2.7026,-1.4716 -4.2514,-1.4716l-4.726 0 -2.8005 0 -0.0347 0 -5.3059 15.1955 -5.3668 -15.1955 -2.8005 0 6.7677 17.7384 -19.2026 0c-0.2807,0 -0.5103,-0.2416 -0.5103,-0.5368l0 -34.1046c0,-0.2953 0.2296,-0.5368 0.5103,-0.5368zm25.9429 35.1782l-3.9758 0 3.9758 -10.4071 0 10.4071zm5.0211 -12.9947l0 2.7029 2.0046 0c0.3702,0 0.8329,-0.0571 1.1238,-0.3255 0.2557,-0.2359 0.2958,-0.7391 0.2958,-1.0683 0,-0.2959 -0.0324,-0.7965 -0.2748,-1.0029 -0.299,-0.2549 -0.7759,-0.3062 -1.1448,-0.3062l-2.0046 0z"/>
 </g>
</svg>
