<?xml version="1.0" encoding="UTF-8"?>
<!DOCTYPE svg PUBLIC "-//W3C//DTD SVG 1.1//EN" "http://www.w3.org/Graphics/SVG/1.1/DTD/svg11.dtd">
<!-- Creator: CorelDRAW -->
<svg xmlns="http://www.w3.org/2000/svg" xml:space="preserve" width="210mm" height="297mm" version="1.1" style="shape-rendering:geometricPrecision; text-rendering:geometricPrecision; image-rendering:optimizeQuality; fill-rule:evenodd; clip-rule:evenodd"
viewBox="0 0 210 297"
 xmlns:xlink="http://www.w3.org/1999/xlink"
 xmlns:xodm="http://www.corel.com/coreldraw/odm/2003">
 <defs>
  <style type="text/css">
   <![CDATA[
    .str0 {stroke:#332D2B;stroke-width:0.2;stroke-miterlimit:22.9256}
    .fil0 {fill:white}
    .fil2 {fill:#31386C}
    .fil1 {fill:#31386C;fill-rule:nonzero}
   ]]>
  </style>
 </defs>
 <g id="Camada_x0020_1">
  <metadata id="CorelCorpID_0Corel-Layer"/>
  <path class="fil0" d="M281.1312 0.2465l0 12.4521 9.235 0c1.7056,0 3.8373,-0.2631 5.1772,-1.4994 1.1779,-1.0869 1.3626,-3.4049 1.3626,-4.9214 0,-1.3635 -0.1493,-3.6694 -1.266,-4.6203 -1.3772,-1.1744 -3.5744,-1.411 -5.2738,-1.411l-9.235 0z"/>
  <polygon class="fil0" points="257.9991,60.1125 239.683,60.1125 257.9991,12.1672 "/>
  <path class="fil0" d="M367.8948 128.6304l-5.1963 0 0 -10.515 5.1963 0 0 -10.4043 13.2123 0 0 10.4043 6.0604 0 0 10.515 -6.0604 0 0 17.9156c0,0.3052 0.0134,1.0484 0.1046,1.5001 0.6369,0.1279 1.8127,0.1377 2.2572,0.1377 0.2903,0 0.5805,-0.0001 0.8705,-0.0105 0.3062,-0.0109 0.612,-0.0332 0.9175,-0.055l1.9106 -0.1364 0 10.9192 -6.3401 0.2402c-3.5647,0.135 -8.1573,-0.2084 -10.7961,-2.936 -1.6553,-1.7109 -2.1365,-4.1088 -2.1365,-6.4131l0 -21.1618zm-9.8886 -5.4645c3.5006,4.3903 5.1066,9.497 5.1066,15.1011 0,5.611 -1.5601,10.7773 -5.1147,15.1695 -3.9187,4.8421 -9.6745,6.4884 -15.7258,6.4884 -6.0484,0 -11.798,-1.6495 -15.7142,-6.4884 -3.557,-4.3951 -5.1263,-9.5531 -5.1263,-15.1695 0,-5.6092 1.6155,-10.7081 5.1182,-15.1011 3.9081,-4.9015 9.6506,-6.5919 15.7223,-6.5919 6.0746,0 11.8233,1.6873 15.7339,6.5919zm-53.5412 -18.5258l13.3174 0 0 53.9886 -13.3174 0 0 -53.9886zm-6.0782 -0.3153l0 12.5701 -13.4576 0 0 -12.5701 13.4576 0zm0 13.452l0 40.8519 -13.4576 0 0 -40.8519 13.4576 0zm-45.2603 22.7175l0 18.1344 -14.0297 0 0 -53.9886 23.7364 0c4.8288,0 9.5619,1.1154 13.2869,4.3341 3.9218,3.3888 5.1248,8.4258 5.1248,13.4237 0,5.0611 -1.0349,10.6219 -5.1605,14.0024 -3.9005,3.1962 -9.1242,4.094 -14.0336,4.094l-8.9243 0zm89.1107 -12.1091c-2.0999,0 -3.8741,0.6319 -5.1694,2.3246 -1.574,2.057 -1.9332,5.0485 -1.9332,7.5572 0,2.5147 0.3653,5.5079 1.9362,7.5728 1.2958,1.7031 3.0558,2.344 5.1664,2.344 2.1026,0 3.865,-0.6358 5.1508,-2.3388 1.5627,-2.0696 1.9286,-5.0634 1.9286,-7.578 0,-2.5087 -0.3599,-5.5007 -1.9256,-7.5624 -1.2853,-1.6925 -3.062,-2.3194 -5.1538,-2.3194zm-89.1107 -11.4202l0 11.2744 8.0369 0c1.6002,0 3.3938,-0.275 4.6391,-1.3672 1.201,-1.0534 1.4477,-2.9 1.4477,-4.4043 0,-1.4343 -0.2211,-3.2614 -1.4177,-4.2308 -1.2692,-1.0282 -3.0888,-1.2721 -4.6691,-1.2721l-8.0369 0z"/>
  <path class="fil1" d="M226.3838 105.7563l6.9737 0 0 52.9619 -6.9737 0 0 -52.9619zm-22.0568 29.5696c1.5981,-0.1969 2.6811,-0.8245 3.2227,-1.8827 0.3037,-0.5784 0.4622,-1.4029 0.4622,-2.4857 0,-2.215 -0.8453,-3.8146 -2.5359,-4.8114 -1.6906,-0.9967 -4.1075,-1.5012 -7.2642,-1.5012 -3.6321,0 -6.2076,0.9229 -7.7265,2.744 -0.8585,1.0091 -1.4132,2.5103 -1.6642,4.5038l-6.5114 0c0.1321,-4.7498 1.7963,-8.06 4.9793,-9.9304 3.1831,-1.8581 6.8812,-2.7933 11.0813,-2.7933 4.8736,0 8.836,0.8614 11.8869,2.5964 3.0114,1.7351 4.5171,4.4176 4.5171,8.0723l0 22.2479c0,0.6768 0.1585,1.2183 0.449,1.6243 0.3038,0.4061 0.9245,0.6153 1.8755,0.6153 0.317,0 0.6604,-0.0246 1.0434,-0.0615 0.3963,-0.0369 0.8057,-0.0862 1.2415,-0.16l0 4.7991c-1.083,0.283 -1.9151,0.4676 -2.4698,0.5414 -0.5679,0.0615 -1.3472,0.0984 -2.3245,0.0984 -2.4038,0 -4.1472,-0.7875 -5.2303,-2.3749 -0.5679,-0.8367 -0.9642,-2.0303 -1.2019,-3.5685 -1.4132,1.735 -3.4472,3.2363 -6.102,4.5037 -2.6679,1.2798 -5.5868,1.9073 -8.7963,1.9073 -3.8434,0 -6.9736,-1.0828 -9.4171,-3.2609 -2.4302,-2.1657 -3.6585,-4.8975 -3.6585,-8.1584 0,-3.5808 1.2019,-6.3618 3.6057,-8.3306 2.3906,-1.9689 5.5472,-3.1871 9.4435,-3.6424l11.0945 -1.292zm-16.8663 13.1174c0,1.8704 0.7397,3.347 2.2057,4.4299 1.4661,1.0828 3.2095,1.6243 5.2303,1.6243 2.4434,0 4.8208,-0.5292 7.1189,-1.5874 3.8699,-1.7474 5.7982,-4.6268 5.7982,-8.6137l0 -5.2297c-0.8453,0.5045 -1.9415,0.9352 -3.2887,1.2674 -1.3472,0.3322 -2.6548,0.5783 -3.9491,0.7137l-4.2133 0.5045c-2.5359,0.32 -4.4245,0.8122 -5.6925,1.489 -2.1396,1.1197 -3.2095,2.9286 -3.2095,5.402zm-42.4495 -28.3391l0 25.6319c0,1.9688 0.3302,3.5809 1.0037,4.836 1.2416,2.3011 3.5529,3.4578 6.9341,3.4578 4.8472,0 8.1492,-2.0181 9.9058,-6.0542 0.9509,-2.1658 1.4264,-5.1313 1.4264,-8.909l0 -18.9625 6.9605 0 0 38.614 -6.5775 0 0.0793 -5.6974c-0.8981,1.4644 -2.0208,2.7072 -3.368,3.7162 -2.6547,2.0181 -5.8774,3.0271 -9.668,3.0271 -5.9039,0 -9.9322,-1.8335 -12.0719,-5.5127 -1.1622,-1.9689 -1.7434,-4.6022 -1.7434,-7.9l0 -26.2472 7.119 0zm-42.4496 26.5056c0.2113,2.1534 0.7925,3.8146 1.7434,4.9713 1.7567,2.0919 4.7944,3.1379 9.1265,3.1379 2.5887,0 4.8605,-0.5292 6.8152,-1.5751 1.968,-1.046 2.9453,-2.6579 2.9453,-4.8483 0,-1.6489 -0.7924,-2.9163 -2.3641,-3.7777 -1.0038,-0.5291 -2.9982,-1.1444 -5.9567,-1.8458l-5.5341 -1.292c-3.5396,-0.8245 -6.1415,-1.7351 -7.8189,-2.7441 -2.9849,-1.7474 -4.4906,-4.1838 -4.4906,-7.2848 0,-3.6546 1.4132,-6.6079 4.2397,-8.8597 2.8264,-2.2642 6.6302,-3.3963 11.3982,-3.3963 6.2472,0 10.7379,1.7104 13.4983,5.119 1.7302,2.1657 2.5755,4.5037 2.5226,7.0017l-6.5774 0c-0.1321,-1.4643 -0.6868,-2.8056 -1.6642,-4.0115 -1.5981,-1.6982 -4.3717,-2.5595 -8.3208,-2.5595 -2.6284,0 -4.6227,0.4799 -5.9831,1.4151 -1.3472,0.9352 -2.034,2.1657 -2.034,3.7039 0,1.6858 0.8981,3.0394 2.6812,4.0484 1.0302,0.5907 2.549,1.1198 4.5566,1.5751l4.6095 1.0459c5.0057,1.1321 8.3605,2.2273 10.0643,3.2855 2.7076,1.6613 4.0548,4.27 4.0548,7.8262 0,3.4332 -1.4001,6.3987 -4.2001,8.8967 -2.8,2.5103 -7.0529,3.7531 -12.7851,3.7531 -6.168,0 -10.5265,-1.3044 -13.102,-3.9131 -2.5623,-2.6087 -3.9359,-5.8327 -4.1208,-9.6719l6.6963 0zm-21.7399 -40.8535l7.0794 0 0 7.3585 -7.0794 0 0 -7.3585zm0 14.5325l7.0794 0 0 38.4294 -7.0794 0 0 -38.4294zm-46.2274 -14.5325l16.0133 45.0988 15.8319 -45.0988 8.4601 0 -20.3405 52.9619 -8.0066 0 -20.3146 -52.9619 8.3564 0z"/>
  <path class="fil1" d="M398.7283 151.9128c-1.0441,0 -1.9458,0.3322 -2.6102,1.0915 -0.7593,0.7119 -1.0915,1.6136 -1.0915,2.6577 0,1.044 0.3322,1.8983 1.0915,2.6576 0.6644,0.6644 1.5661,1.0441 2.6102,1.0441 1.0441,0 1.8983,-0.3797 2.6577,-1.0441 0.7118,-0.7593 1.0915,-1.6136 1.0915,-2.6576 0,-1.0441 -0.3797,-1.9458 -1.0915,-2.6577 -0.7594,-0.7593 -1.6136,-1.0915 -2.6577,-1.0915zm26.0545 -5.7425c-1.2023,0.5063 -2.4204,0.8385 -3.6543,0.9967 -1.2339,0.1582 -2.4678,0.2847 -3.7017,0.3796 -2.1831,0.1582 -3.8837,0.6486 -5.1017,1.4712 -1.2181,0.8226 -1.8272,2.0724 -1.8272,3.7492 0,0.7593 0.1503,1.4159 0.4509,1.9695 0.3005,0.5537 0.696,1.0125 1.1864,1.3763 0.4904,0.3639 1.0599,0.6328 1.7085,0.8068 0.6486,0.174 1.3051,0.261 1.9695,0.261 1.139,0 2.2464,-0.1424 3.3221,-0.4271 1.0757,-0.2847 2.0328,-0.7198 2.8712,-1.3051 0.8384,-0.5853 1.5108,-1.3288 2.017,-2.2305 0.5062,-0.9017 0.7593,-1.9695 0.7593,-3.2034l0 -3.8442zm-4.7933 -1.4237c0.5379,-0.0633 1.1786,-0.1582 1.9221,-0.2848 0.7435,-0.1265 1.3525,-0.3005 1.8271,-0.522 0.4746,-0.2215 0.7673,-0.5932 0.878,-1.1153 0.1107,-0.522 0.1661,-1.0045 0.1661,-1.4474 0,-1.4554 -0.4667,-2.6498 -1.4,-3.5831 -0.9334,-0.9334 -2.5074,-1.4 -4.7221,-1.4 -0.9808,0 -1.8825,0.087 -2.7051,0.261 -0.8226,0.174 -1.5424,0.4746 -2.1593,0.9017 -0.617,0.4271 -1.1232,0.9966 -1.5187,1.7085 -0.3955,0.7119 -0.6565,1.6056 -0.7831,2.6814l-2.8949 0c0.0949,-1.4554 0.4271,-2.6972 0.9966,-3.7255 0.5695,-1.0283 1.3051,-1.8667 2.2068,-2.5153 0.9017,-0.6486 1.9458,-1.1232 3.1322,-1.4237 1.1865,-0.3006 2.4441,-0.4509 3.773,-0.4509 1.2339,0 2.3966,0.1345 3.4881,0.4034 1.0916,0.269 2.0407,0.6961 2.8475,1.2814 0.8068,0.5853 1.4396,1.3684 1.8984,2.3492 0.4587,0.9808 0.6881,2.183 0.6881,3.6068l0 13.3832c0,1.1073 0.1977,1.8113 0.5932,2.1119 0.3955,0.3005 1.1944,0.2293 2.3967,-0.2136l0 2.2305c-0.2215,0.0633 -0.5458,0.1582 -0.9729,0.2848 -0.4272,0.1265 -0.8464,0.1898 -1.2577,0.1898 -0.4429,0 -0.87,-0.0474 -1.2813,-0.1424 -0.4746,-0.0632 -0.8543,-0.2135 -1.139,-0.4508 -0.2848,-0.2373 -0.5142,-0.5221 -0.6882,-0.8543 -0.174,-0.3322 -0.2926,-0.696 -0.3559,-1.0915 -0.0633,-0.3955 -0.0949,-0.8147 -0.0949,-1.2576 -1.2023,1.3288 -2.5786,2.3412 -4.1289,3.0373 -1.5503,0.696 -3.2271,1.0441 -5.0306,1.0441 -1.0757,0 -2.1118,-0.1424 -3.1085,-0.4272 -0.9966,-0.2847 -1.8746,-0.7276 -2.6339,-1.3288 -0.7593,-0.6011 -1.3604,-1.3367 -1.8034,-2.2068 -0.4429,-0.8701 -0.6644,-1.9062 -0.6644,-3.1085 0,-4.1763 2.8633,-6.6441 8.5899,-7.4035l3.939 -0.522zm15.5188 14.3323l0 -24.5833 2.8475 0 0 24.5833 -2.8475 0zm-0.1423 -29.946l0 -4.2238 3.1322 0 0 4.2238 -3.1322 0z"/>
  <path class="fil2 str0" d="M142.3235 42.6261l0 -118.6354c0,-11.9296 9.7605,-21.6901 21.69,-21.6901l69.3814 0 0.2918 146.0499 -24.7406 -69.9581 -12.902 0 31.1784 81.7201c-26.1812,0 -84.899,29.2738 -84.899,-17.4864z"/>
  <path class="fil0" d="M233.3949 -97.6994l68.828 0c11.9295,0 21.69,9.7605 21.69,21.6901l0 118.6354c0,23.6987 -25.4448,10.5868 -42.7816,17.4864l0 -25.6615 10.4609 0c7.2429,0 14.8335,-1.4443 20.5808,-6.3975 6.1735,-5.3221 7.8171,-13.8845 7.8171,-21.8782 0,-7.8634 -1.8784,-15.6844 -7.7306,-21.0032 -5.4971,-4.9972 -12.4506,-6.7797 -19.5861,-6.7797l-21.7724 0 -12.902 0 -0.16 0 -24.2317 69.3968 -0.2124 0.6081 0 -146.0967z"/>
 </g>
</svg>
