<?xml version="1.0" encoding="UTF-8"?>
<!DOCTYPE svg PUBLIC "-//W3C//DTD SVG 1.1//EN" "http://www.w3.org/Graphics/SVG/1.1/DTD/svg11.dtd">
<!-- Creator: CorelDRAW -->
<svg xmlns="http://www.w3.org/2000/svg" xml:space="preserve" width="210mm" height="297mm" version="1.1" style="shape-rendering:geometricPrecision; text-rendering:geometricPrecision; image-rendering:optimizeQuality; fill-rule:evenodd; clip-rule:evenodd"
viewBox="0 0 210 297"
 xmlns:xlink="http://www.w3.org/1999/xlink"
 xmlns:xodm="http://www.corel.com/coreldraw/odm/2003">
 <defs>
  <style type="text/css">
   <![CDATA[
    .str0 {stroke:#332D2B;stroke-width:0.2;stroke-miterlimit:22.9256}
    .fil0 {fill:#5F5E5E}
    .fil2 {fill:#31386C}
    .fil1 {fill:#31386C;fill-rule:nonzero}
   ]]>
  </style>
 </defs>
 <g id="Camada_x0020_1">
  <metadata id="CorelCorpID_0Corel-Layer"/>
  <path class="fil0" d="M112.6705 105.9575l0 4.2224 3.1315 0c0.5783,0 1.3012,-0.0892 1.7555,-0.5085 0.3994,-0.3685 0.4621,-1.1546 0.4621,-1.6688 0,-0.4623 -0.0507,-1.2443 -0.4293,-1.5667 -0.467,-0.3982 -1.2121,-0.4784 -1.7883,-0.4784l-3.1315 0z"/>
  <polygon class="fil0" points="104.8265,126.2576 98.6156,126.2576 104.8265,109.9997 "/>
  <path class="fil0" d="M142.0914 149.4915l-1.7621 0 0 -3.5655 1.7621 0 0 -3.528 4.4802 0 0 3.528 2.055 0 0 3.5655 -2.055 0 0 6.0751c0,0.1035 0.0045,0.3555 0.0355,0.5087 0.2159,0.0433 0.6146,0.0467 0.7654,0.0467 0.0984,0 0.1968,-0.0001 0.2951,-0.0036 0.1038,-0.0037 0.2076,-0.0113 0.3112,-0.0187l0.6478 -0.0462 0 3.7026 -2.1499 0.0815c-1.2087,0.0457 -2.766,-0.0707 -3.6609,-0.9956 -0.5613,-0.5802 -0.7244,-1.3933 -0.7244,-2.1746l0 -7.1759zm-3.3532 -1.8529c1.187,1.4887 1.7316,3.2203 1.7316,5.1206 0,1.9027 -0.529,3.6546 -1.7343,5.1439 -1.3288,1.6419 -3.2806,2.2002 -5.3325,2.2002 -2.051,0 -4.0007,-0.5593 -5.3286,-2.2002 -1.2062,-1.4903 -1.7383,-3.2394 -1.7383,-5.1439 0,-1.902 0.5478,-3.631 1.7355,-5.1206 1.3253,-1.6621 3.2725,-2.2353 5.3314,-2.2353 2.0598,0 4.0092,0.5721 5.3352,2.2353zm-18.1554 -6.282l4.5158 0 0 18.3072 -4.5158 0 0 -18.3072zm-2.0611 -0.1069l0 4.2624 -4.5634 0 0 -4.2624 4.5634 0zm0 4.5614l0 13.8527 -4.5634 0 0 -13.8527 4.5634 0zm-15.3474 7.7034l0 6.1493 -4.7574 0 0 -18.3072 8.0488 0c1.6374,0 3.2424,0.3782 4.5055,1.4697 1.3299,1.1491 1.7378,2.8571 1.7378,4.5518 0,1.7162 -0.3509,3.6018 -1.7499,4.7482 -1.3226,1.0837 -3.094,1.3882 -4.7587,1.3882l-3.0261 0zm30.2168 -4.1061c-0.7121,0 -1.3137,0.2143 -1.7529,0.7883 -0.5338,0.6974 -0.6556,1.7118 -0.6556,2.5625 0,0.8527 0.1239,1.8677 0.6566,2.5679 0.4394,0.5775 1.0362,0.7949 1.7519,0.7949 0.713,0 1.3105,-0.2156 1.7466,-0.7931 0.5299,-0.7018 0.6539,-1.717 0.6539,-2.5697 0,-0.8506 -0.122,-1.8652 -0.6529,-2.5643 -0.4359,-0.5739 -1.0383,-0.7865 -1.7476,-0.7865zm-30.2168 -3.8725l0 3.8231 2.7252 0c0.5426,0 1.1508,-0.0933 1.5731,-0.4637 0.4072,-0.3572 0.4909,-0.9833 0.4909,-1.4934 0,-0.4864 -0.075,-1.1059 -0.4807,-1.4347 -0.4304,-0.3486 -1.0474,-0.4313 -1.5833,-0.4313l-2.7252 0z"/>
  <path class="fil1" d="M94.106 141.7351l2.3647 0 0 17.959 -2.3647 0 0 -17.959zm-7.4793 10.0268c0.5419,-0.0667 0.9091,-0.2796 1.0928,-0.6384 0.103,-0.1961 0.1567,-0.4757 0.1567,-0.8429 0,-0.751 -0.2866,-1.2935 -0.8599,-1.6315 -0.5733,-0.338 -1.3928,-0.509 -2.4632,-0.509 -1.2317,0 -2.105,0.3129 -2.62,0.9305 -0.2912,0.3421 -0.4793,0.8512 -0.5644,1.5271l-2.2079 0c0.0448,-1.6106 0.6091,-2.733 1.6884,-3.3673 1.0794,-0.63 2.3334,-0.9472 3.7576,-0.9472 1.6526,0 2.9962,0.2921 4.0308,0.8805 1.0211,0.5883 1.5317,1.4979 1.5317,2.7372l0 7.5441c0,0.2295 0.0537,0.4131 0.1522,0.5508 0.1031,0.1377 0.3135,0.2087 0.636,0.2087 0.1075,0 0.2239,-0.0084 0.3538,-0.0209 0.1344,-0.0125 0.2732,-0.0292 0.421,-0.0542l0 1.6273c-0.3672,0.0959 -0.6494,0.1585 -0.8375,0.1836 -0.1926,0.0208 -0.4568,0.0334 -0.7882,0.0334 -0.8151,0 -1.4063,-0.2671 -1.7736,-0.8054 -0.1926,-0.2837 -0.3269,-0.6884 -0.4075,-1.21 -0.4792,0.5883 -1.169,1.0974 -2.0692,1.5272 -0.9047,0.4339 -1.8944,0.6467 -2.9827,0.6467 -1.3033,0 -2.3648,-0.3672 -3.1933,-1.1057 -0.8241,-0.7344 -1.2406,-1.6607 -1.2406,-2.7665 0,-1.2142 0.4076,-2.1572 1.2227,-2.8249 0.8106,-0.6676 1.881,-1.0807 3.2022,-1.2351l3.7621 -0.4381zm-5.7193 4.448c0,0.6343 0.2508,1.135 0.748,1.5022 0.4971,0.3672 1.0883,0.5508 1.7735,0.5508 0.8286,0 1.6347,-0.1794 2.414,-0.5383 1.3122,-0.5925 1.9661,-1.5689 1.9661,-2.9208l0 -1.7734c-0.2866,0.1711 -0.6583,0.3171 -1.1152,0.4298 -0.4568,0.1126 -0.9002,0.1961 -1.3391,0.242l-1.4287 0.1711c-0.8599,0.1085 -1.5003,0.2754 -1.9302,0.5049 -0.7256,0.3797 -1.0884,0.993 -1.0884,1.8317zm-14.3943 -9.6095l0 8.6916c0,0.6676 0.112,1.2142 0.3404,1.6398 0.421,0.7803 1.2047,1.1725 2.3513,1.1725 1.6436,0 2.7633,-0.6843 3.3589,-2.0529 0.3225,-0.7344 0.4837,-1.74 0.4837,-3.021l0 -6.43 2.3603 0 0 13.0937 -2.2304 0 0.0269 -1.9319c-0.3046,0.4965 -0.6853,0.9179 -1.1421,1.2601 -0.9002,0.6843 -1.993,1.0265 -3.2783,1.0265 -2.002,0 -3.368,-0.6218 -4.0935,-1.8694 -0.3941,-0.6676 -0.5912,-1.5605 -0.5912,-2.6788l0 -8.9002 2.414 0zm-14.3944 8.9878c0.0717,0.7302 0.2688,1.2935 0.5912,1.6858 0.5957,0.7093 1.6258,1.064 3.0948,1.064 0.8778,0 1.6481,-0.1794 2.3109,-0.5341 0.6674,-0.3547 0.9988,-0.9013 0.9988,-1.644 0,-0.5592 -0.2687,-0.9889 -0.8017,-1.281 -0.3404,-0.1795 -1.0167,-0.3881 -2.0199,-0.6259l-1.8765 -0.4382c-1.2003,-0.2795 -2.0826,-0.5883 -2.6514,-0.9304 -1.0121,-0.5926 -1.5227,-1.4187 -1.5227,-2.4702 0,-1.2393 0.4792,-2.2407 1.4376,-3.0043 0.9585,-0.7678 2.2483,-1.1517 3.8651,-1.1517 2.1184,0 3.6411,0.58 4.5772,1.7358 0.5867,0.7344 0.8733,1.5272 0.8554,2.3743l-2.2304 0c-0.0448,-0.4966 -0.2329,-0.9514 -0.5643,-1.3603 -0.5419,-0.5758 -1.4824,-0.8679 -2.8215,-0.8679 -0.8913,0 -1.5676,0.1627 -2.0289,0.4798 -0.4568,0.3171 -0.6897,0.7344 -0.6897,1.256 0,0.5716 0.3046,1.0306 0.9092,1.3728 0.3493,0.2003 0.8644,0.3797 1.5451,0.5341l1.5631 0.3547c1.6974,0.3838 2.835,0.7552 3.4127,1.114 0.9181,0.5633 1.375,1.4479 1.375,2.6538 0,1.1642 -0.4748,2.1698 -1.4243,3.0169 -0.9494,0.8512 -2.3916,1.2726 -4.3353,1.2726 -2.0915,0 -3.5695,-0.4423 -4.4428,-1.3269 -0.8689,-0.8846 -1.3346,-1.9778 -1.3973,-3.2797l2.2706 0zm-7.3718 -13.8531l2.4006 0 0 2.4952 -2.4006 0 0 -2.4952zm0 4.9279l2.4006 0 0 13.0311 -2.4006 0 0 -13.0311zm-15.6754 -4.9279l5.43 15.2927 5.3685 -15.2927 2.8688 0 -6.8974 17.959 -2.715 0 -6.8885 -17.959 2.8336 0z"/>
  <path class="fil1" d="M152.5468 157.3864c-0.354,0 -0.6598,0.1127 -0.8851,0.3702 -0.2575,0.2413 -0.3701,0.5471 -0.3701,0.9011 0,0.3541 0.1126,0.6438 0.3701,0.9012 0.2253,0.2253 0.5311,0.3541 0.8851,0.3541 0.354,0 0.6437,-0.1288 0.9012,-0.3541 0.2414,-0.2574 0.3701,-0.5471 0.3701,-0.9012 0,-0.354 -0.1287,-0.6598 -0.3701,-0.9011 -0.2575,-0.2575 -0.5472,-0.3702 -0.9012,-0.3702zm8.8349 -1.9472c-0.4077,0.1717 -0.8207,0.2843 -1.2391,0.3379 -0.4184,0.0537 -0.8369,0.0966 -1.2553,0.1288 -0.7402,0.0536 -1.3169,0.2199 -1.7299,0.4989 -0.4131,0.2789 -0.6196,0.7027 -0.6196,1.2713 0,0.2575 0.051,0.4801 0.1529,0.6678 0.1019,0.1878 0.236,0.3434 0.4023,0.4667 0.1663,0.1234 0.3594,0.2146 0.5793,0.2736 0.22,0.059 0.4426,0.0885 0.6679,0.0885 0.3862,0 0.7617,-0.0483 1.1265,-0.1448 0.3647,-0.0966 0.6893,-0.2441 0.9736,-0.4426 0.2843,-0.1984 0.5123,-0.4506 0.6839,-0.7563 0.1717,-0.3058 0.2575,-0.6679 0.2575,-1.0863l0 -1.3035zm-1.6254 -0.4828c0.1824,-0.0214 0.3997,-0.0536 0.6518,-0.0965 0.2521,-0.0429 0.4586,-0.102 0.6196,-0.1771 0.1609,-0.0751 0.2601,-0.2011 0.2977,-0.3781 0.0375,-0.1771 0.0563,-0.3407 0.0563,-0.4909 0,-0.4935 -0.1582,-0.8985 -0.4747,-1.215 -0.3165,-0.3165 -0.8503,-0.4747 -1.6013,-0.4747 -0.3325,0 -0.6383,0.0295 -0.9172,0.0885 -0.279,0.059 -0.5231,0.1609 -0.7323,0.3058 -0.2092,0.1448 -0.3808,0.3379 -0.5149,0.5793 -0.1341,0.2414 -0.2226,0.5445 -0.2656,0.9093l-0.9816 0c0.0322,-0.4936 0.1448,-0.9147 0.3379,-1.2633 0.1931,-0.3487 0.4426,-0.633 0.7483,-0.8529 0.3058,-0.22 0.6598,-0.3809 1.0622,-0.4828 0.4023,-0.1019 0.8287,-0.1529 1.2793,-0.1529 0.4184,0 0.8127,0.0456 1.1829,0.1368 0.3701,0.0912 0.6919,0.236 0.9655,0.4345 0.2736,0.1985 0.4882,0.464 0.6437,0.7966 0.1556,0.3326 0.2334,0.7402 0.2334,1.223l0 4.5382c0,0.3755 0.067,0.6142 0.2011,0.7161 0.1341,0.1019 0.405,0.0778 0.8127,-0.0724l0 0.7563c-0.0751,0.0215 -0.1851,0.0537 -0.3299,0.0966 -0.1448,0.0429 -0.287,0.0644 -0.4264,0.0644 -0.1502,0 -0.2951,-0.0161 -0.4346,-0.0483 -0.1609,-0.0215 -0.2896,-0.0724 -0.3862,-0.1529 -0.0965,-0.0805 -0.1743,-0.177 -0.2333,-0.2897 -0.059,-0.1126 -0.0993,-0.236 -0.1207,-0.3701 -0.0215,-0.1341 -0.0322,-0.2763 -0.0322,-0.4265 -0.4077,0.4506 -0.8744,0.794 -1.4001,1.03 -0.5257,0.236 -1.0943,0.354 -1.7058,0.354 -0.3648,0 -0.7161,-0.0483 -1.0541,-0.1448 -0.3379,-0.0966 -0.6356,-0.2468 -0.8931,-0.4506 -0.2575,-0.2038 -0.4613,-0.4533 -0.6115,-0.7483 -0.1502,-0.2951 -0.2253,-0.6464 -0.2253,-1.0541 0,-1.4162 0.9709,-2.253 2.9127,-2.5105l1.3357 -0.177zm5.2624 4.86l0 -8.336 0.9655 0 0 8.336 -0.9655 0zm-0.0483 -10.1545l0 -1.4322 1.0621 0 0 1.4322 -1.0621 0z"/>
  <path class="fil2 str0" d="M65.6017 120.3281l0 -40.2285c0,-4.0452 3.3097,-7.3549 7.355,-7.3549l23.5267 0 0.0989 49.5245 -8.3893 -23.7223 -4.375 0 10.5724 27.7107c-8.8779,0 -28.7887,9.9265 -28.7887,-5.9295z"/>
  <path class="fil0" d="M96.4834 72.7447l23.3391 0c4.0452,0 7.3549,3.3097 7.3549,7.3549l0 40.2285c0,8.0361 -8.6281,3.5899 -14.5069,5.9295l0 -8.7016 3.5472 0c2.456,0 5.0299,-0.4898 6.9788,-2.1694 2.0934,-1.8047 2.6507,-4.7081 2.6507,-7.4188 0,-2.6664 -0.6369,-5.3184 -2.6214,-7.122 -1.864,-1.6945 -4.2219,-2.2989 -6.6415,-2.2989l-7.3828 0 -4.375 0 -0.0543 0 -8.2168 23.5319 -0.072 0.2062 0 -49.5403z"/>
 </g>
</svg>
