<?xml version="1.0" encoding="UTF-8"?>
<!DOCTYPE svg PUBLIC "-//W3C//DTD SVG 1.1//EN" "http://www.w3.org/Graphics/SVG/1.1/DTD/svg11.dtd">
<!-- Creator: CorelDRAW -->
<svg xmlns="http://www.w3.org/2000/svg" xml:space="preserve" width="67.4169mm" height="42.1734mm" version="1.1" style="shape-rendering:geometricPrecision; text-rendering:geometricPrecision; image-rendering:optimizeQuality; fill-rule:evenodd; clip-rule:evenodd"
viewBox="0 0 74.2959 46.4767"
 xmlns:xlink="http://www.w3.org/1999/xlink"
 xmlns:xodm="http://www.corel.com/coreldraw/odm/2003">
 <defs>
  <style type="text/css">
   <![CDATA[
    .fil1 {fill:white}
    .fil2 {fill:#DDDEDE}
    .fil0 {fill:white;fill-rule:nonzero}
   ]]>
  </style>
 </defs>
 <g id="Camada_x0020_1">
  <metadata id="CorelCorpID_0Corel-Layer"/>
  <path class="fil0" d="M36.0696 36.666l1.2568 0 0 9.5445 -1.2568 0 0 -9.5445zm-3.975 5.3289c0.288,-0.0355 0.4831,-0.1486 0.5808,-0.3393 0.0548,-0.1043 0.0833,-0.2528 0.0833,-0.448 0,-0.3992 -0.1523,-0.6875 -0.457,-0.8671 -0.3047,-0.1796 -0.7402,-0.2706 -1.3091,-0.2706 -0.6546,0 -1.1188,0.1664 -1.3924,0.4946 -0.1547,0.1818 -0.2547,0.4524 -0.3,0.8117l-1.1734 0c0.0238,-0.8561 0.3238,-1.4526 0.8974,-1.7896 0.5736,-0.3349 1.2401,-0.5034 1.997,-0.5034 0.8783,0 1.5923,0.1552 2.1422,0.4679 0.5426,0.3126 0.814,0.7961 0.814,1.4547l0 4.0094c0,0.122 0.0287,0.2195 0.081,0.2927 0.0548,0.0732 0.1666,0.111 0.338,0.111 0.0571,0 0.119,-0.0045 0.188,-0.0111 0.0714,-0.0066 0.1452,-0.0155 0.2237,-0.0289l0 0.8649c-0.1952,0.051 -0.3452,0.0843 -0.4451,0.0976 -0.1023,0.011 -0.2428,0.0177 -0.4189,0.0177 -0.4332,0 -0.7474,-0.1419 -0.9426,-0.428 -0.1024,-0.1508 -0.1738,-0.3659 -0.2166,-0.6431 -0.2548,0.3128 -0.6213,0.5833 -1.0997,0.8117 -0.4808,0.2307 -1.0068,0.3437 -1.5853,0.3437 -0.6926,0 -1.2568,-0.1952 -1.697,-0.5876 -0.4381,-0.3903 -0.6593,-0.8826 -0.6593,-1.4703 0,-0.6452 0.2166,-1.1464 0.6498,-1.5013 0.4309,-0.3549 0.9998,-0.5744 1.7019,-0.6564l1.9994 -0.2329zm-3.0395 2.364c0,0.337 0.1332,0.6031 0.3975,0.7983 0.2642,0.1952 0.5783,0.2927 0.9426,0.2927 0.4403,0 0.8687,-0.0953 1.2829,-0.2861 0.6975,-0.3149 1.045,-0.8338 1.045,-1.5523l0 -0.9425c-0.1523,0.0909 -0.3499,0.1686 -0.5927,0.2285 -0.2428,0.0598 -0.4784,0.1043 -0.7117,0.1286l-0.7593 0.0909c-0.457,0.0576 -0.7973,0.1464 -1.0259,0.2683 -0.3856,0.2018 -0.5783,0.5278 -0.5783,0.9735zm-7.6501 -5.1072l0 4.6193c0,0.3547 0.0595,0.6454 0.1808,0.8715 0.2238,0.4147 0.6403,0.6232 1.2497,0.6232 0.8735,0 1.4686,-0.3638 1.7851,-1.0911 0.1715,-0.3902 0.2571,-0.9247 0.2571,-1.6056l0 -3.4173 1.2544 0 0 6.9588 -1.1855 0 0.0143 -1.0267c-0.1619,0.2638 -0.3641,0.4879 -0.607,0.6697 -0.4784,0.3637 -1.0592,0.5455 -1.7423,0.5455 -1.0639,0 -1.7899,-0.3304 -2.1755,-0.9935 -0.2094,-0.3549 -0.3142,-0.8294 -0.3142,-1.4237l0 -4.7302 1.283 0zm-7.6501 4.7768c0.0381,0.388 0.1428,0.6875 0.3142,0.8958 0.3166,0.377 0.864,0.5655 1.6448,0.5655 0.4665,0 0.8759,-0.0953 1.2282,-0.2838 0.3546,-0.1886 0.5307,-0.4791 0.5307,-0.8738 0,-0.2971 -0.1428,-0.5256 -0.426,-0.6807 -0.181,-0.0954 -0.5403,-0.2063 -1.0735,-0.3327l-0.9973 -0.2329c-0.6379,-0.1486 -1.1068,-0.3126 -1.4091,-0.4945 -0.5379,-0.3149 -0.8093,-0.754 -0.8093,-1.3129 0,-0.6586 0.2547,-1.1909 0.764,-1.5966 0.5095,-0.4081 1.1949,-0.6121 2.0542,-0.6121 1.1258,0 1.9352,0.3082 2.4326,0.9225 0.3118,0.3903 0.4641,0.8117 0.4546,1.2618l-1.1854 0c-0.0238,-0.2639 -0.1238,-0.5056 -0.2999,-0.7229 -0.2881,-0.306 -0.788,-0.4613 -1.4997,-0.4613 -0.4737,0 -0.833,0.0865 -1.0782,0.255 -0.2428,0.1686 -0.3665,0.3903 -0.3665,0.6675 0,0.3038 0.1619,0.5478 0.4832,0.7297 0.1856,0.1065 0.4593,0.2018 0.8211,0.2839l0.8307 0.1884c0.9021,0.204 1.5067,0.4014 1.8137,0.5921 0.488,0.2993 0.7308,0.7694 0.7308,1.4104 0,0.6187 -0.2524,1.1532 -0.7569,1.6034 -0.5046,0.4524 -1.2711,0.6763 -2.3041,0.6763 -1.1115,0 -1.897,-0.2351 -2.3612,-0.7052 -0.4618,-0.4701 -0.7093,-1.0511 -0.7426,-1.743l1.2067 0zm-3.9179 -7.3625l1.2758 0 0 1.3261 -1.2758 0 0 -1.3261zm0 2.619l1.2758 0 0 6.9255 -1.2758 0 0 -6.9255zm-8.331 -2.619l2.8859 8.1275 2.8532 -8.1275 1.5246 0 -3.6656 9.5445 -1.443 0 -3.661 -9.5445 1.5059 0z"/>
  <path class="fil0" d="M67.1287 44.9841c-0.1881,0 -0.3507,0.06 -0.4703,0.1967 -0.1369,0.1284 -0.1967,0.2908 -0.1967,0.4791 0,0.1881 0.0598,0.3421 0.1967,0.4789 0.1197,0.1197 0.2822,0.1881 0.4703,0.1881 0.1882,0 0.3422,-0.0684 0.4789,-0.1881 0.1283,-0.1369 0.1967,-0.2908 0.1967,-0.4789 0,-0.1882 -0.0684,-0.3507 -0.1967,-0.4791 -0.1368,-0.1368 -0.2907,-0.1967 -0.4789,-0.1967zm4.6954 -1.0348c-0.2167,0.0912 -0.4362,0.1511 -0.6586,0.1796 -0.2223,0.0284 -0.4447,0.0512 -0.6671,0.0684 -0.3934,0.0284 -0.6999,0.1168 -0.9194,0.265 -0.2195,0.1483 -0.3293,0.3735 -0.3293,0.6757 0,0.1369 0.0271,0.2552 0.0812,0.355 0.0542,0.0998 0.1255,0.1825 0.2139,0.2481 0.0884,0.0656 0.191,0.1141 0.3079,0.1454 0.1168,0.0314 0.2352,0.0471 0.3549,0.0471 0.2053,0 0.4049,-0.0257 0.5987,-0.0769 0.1938,-0.0514 0.3663,-0.1298 0.5174,-0.2353 0.1511,-0.1055 0.2723,-0.2395 0.3635,-0.4019 0.0912,-0.1626 0.1369,-0.355 0.1369,-0.5774l0 -0.6927zm-0.8638 -0.2566c0.0969,-0.0115 0.2124,-0.0285 0.3464,-0.0514 0.134,-0.0228 0.2438,-0.0542 0.3293,-0.0941 0.0855,-0.0399 0.1383,-0.1069 0.1583,-0.2009 0.0199,-0.0941 0.0299,-0.1811 0.0299,-0.261 0,-0.2623 -0.0841,-0.4775 -0.2523,-0.6457 -0.1683,-0.1682 -0.4519,-0.2523 -0.851,-0.2523 -0.1768,0 -0.3393,0.0156 -0.4875,0.0469 -0.1482,0.0314 -0.2779,0.0856 -0.3891,0.1626 -0.1112,0.0769 -0.2024,0.1796 -0.2737,0.3079 -0.0712,0.1283 -0.1182,0.2894 -0.1411,0.4832l-0.5217 0c0.0171,-0.2623 0.0769,-0.4861 0.1796,-0.6714 0.1026,-0.1854 0.2352,-0.3365 0.3976,-0.4534 0.1626,-0.1168 0.3507,-0.2023 0.5646,-0.2566 0.2138,-0.0541 0.4404,-0.0812 0.6798,-0.0812 0.2224,0 0.432,0.0242 0.6287,0.0726 0.1967,0.0485 0.3677,0.1255 0.5131,0.231 0.1454,0.1055 0.2594,0.2466 0.3421,0.4233 0.0828,0.1768 0.1241,0.3934 0.1241,0.6501l0 2.4118c0,0.1996 0.0356,0.3264 0.1069,0.3806 0.0713,0.0541 0.2152,0.0413 0.4319,-0.0385l0 0.4019c-0.0399,0.0115 -0.0983,0.0285 -0.1753,0.0514 -0.0769,0.0228 -0.1525,0.0342 -0.2267,0.0342 -0.0798,0 -0.1567,-0.0085 -0.2309,-0.0257 -0.0855,-0.0114 -0.154,-0.0385 -0.2053,-0.0812 -0.0512,-0.0428 -0.0926,-0.0941 -0.124,-0.154 -0.0313,-0.0598 -0.0527,-0.1254 -0.0641,-0.1967 -0.0114,-0.0713 -0.0171,-0.1468 -0.0171,-0.2266 -0.2167,0.2395 -0.4647,0.4219 -0.7441,0.5473 -0.2794,0.1255 -0.5815,0.1882 -0.9066,0.1882 -0.1938,0 -0.3805,-0.0257 -0.5602,-0.077 -0.1796,-0.0512 -0.3378,-0.1311 -0.4746,-0.2395 -0.1369,-0.1083 -0.2452,-0.2409 -0.325,-0.3976 -0.0799,-0.1568 -0.1198,-0.3436 -0.1198,-0.5603 0,-0.7526 0.5161,-1.1974 1.548,-1.3342l0.7099 -0.094zm2.7967 2.5828l0 -4.4303 0.5131 0 0 4.4303 -0.5131 0zm-0.0257 -5.3967l0 -0.7613 0.5645 0 0 0.7613 -0.5645 0z"/>
  <path class="fil1" d="M20.9205 25.2889l0 -21.38c0,-2.15 1.759,-3.9089 3.9088,-3.9089l12.5037 0 0.0526 26.3205 -4.4586 -12.6075 -2.3252 0 5.6188 14.7273c-4.7183,0 -15.3001,5.2756 -15.3001,-3.1514z"/>
  <path class="fil2" d="M45.9359 17.6514l0 2.2441 1.6643 0c0.3074,0 0.6915,-0.0475 0.933,-0.2702 0.2123,-0.1959 0.2455,-0.6136 0.2455,-0.8869 0,-0.2458 -0.0269,-0.6613 -0.2281,-0.8327 -0.2482,-0.2116 -0.6441,-0.2542 -0.9504,-0.2542l-1.6643 0z"/>
  <polygon class="fil2" points="41.7671,28.4403 38.4663,28.4403 41.7671,19.7997 "/>
  <path class="fil2" d="M61.572 40.7883l-0.9364 0 0 -1.895 0.9364 0 0 -1.875 2.3811 0 0 1.875 1.0922 0 0 1.895 -1.0922 0 0 3.2286c0,0.055 0.0024,0.189 0.0188,0.2703 0.1148,0.0231 0.3268,0.0249 0.4069,0.0249 0.0522,0 0.1046,-0.0001 0.1568,-0.002 0.0552,-0.002 0.1103,-0.006 0.1654,-0.0099l0.3443 -0.0246 0 1.9678 -1.1426 0.0433c-0.6424,0.0244 -1.4701,-0.0376 -1.9456,-0.5291 -0.2983,-0.3083 -0.3851,-0.7405 -0.3851,-1.1557l0 -3.8137zm-1.782 -0.9848c0.6308,0.7912 0.9202,1.7115 0.9202,2.7215 0,1.0111 -0.2811,1.9422 -0.9217,2.7337 -0.7062,0.8726 -1.7435,1.1694 -2.834,1.1694 -1.09,0 -2.1262,-0.2973 -2.832,-1.1694 -0.6409,-0.792 -0.9238,-1.7216 -0.9238,-2.7337 0,-1.0109 0.2912,-1.9298 0.9224,-2.7215 0.7043,-0.8834 1.7392,-1.188 2.8334,-1.188 1.0948,0 2.1307,0.3041 2.8355,1.188zm-9.649 -3.3387l2.4 0 0 9.7297 -2.4 0 0 -9.7297zm-1.0954 -0.0568l0 2.2653 -2.4253 0 0 -2.2653 2.4253 0zm0 2.4243l0 7.3622 -2.4253 0 0 -7.3622 2.4253 0zm-8.1566 4.0941l0 3.2681 -2.5284 0 0 -9.7297 4.2777 0c0.8703,0 1.7233,0.2011 2.3945,0.7811 0.7068,0.6107 0.9236,1.5185 0.9236,2.4192 0,0.912 -0.1866,1.9142 -0.93,2.5234 -0.703,0.576 -1.6443,0.7378 -2.5291,0.7378l-1.6083 0zm16.0592 -2.1823c-0.3784,0 -0.6983,0.1138 -0.9317,0.4189 -0.2837,0.3707 -0.3485,0.9098 -0.3485,1.362 0,0.4532 0.0659,0.9926 0.349,1.3647 0.2335,0.3069 0.5507,0.4225 0.9311,0.4225 0.3789,0 0.6965,-0.1146 0.9282,-0.4215 0.2816,-0.373 0.3475,-0.9125 0.3475,-1.3656 0,-0.4522 -0.0648,-0.9914 -0.347,-1.3629 -0.2315,-0.305 -0.5518,-0.418 -0.9287,-0.418zm-16.0592 -2.0582l0 2.0318 1.4484 0c0.2883,0 0.6115,-0.0495 0.836,-0.2463 0.2164,-0.1899 0.2609,-0.5227 0.2609,-0.7938 0,-0.2584 -0.0398,-0.5877 -0.2555,-0.7624 -0.2288,-0.1854 -0.5566,-0.2293 -0.8414,-0.2293l-1.4484 0z"/>
  <path class="fil2" d="M37.3331 0l12.4039 0c2.1499,0 3.9089,1.759 3.9089,3.9089l0 21.38c0,4.2709 -4.5856,1.908 -7.71,3.1514l0 -4.6247 1.8853 0c1.3053,0 2.6732,-0.2603 3.7089,-1.1528 1.1126,-0.9592 1.4088,-2.5023 1.4088,-3.9429 0,-1.4171 -0.3385,-2.8266 -1.3932,-3.7851 -0.9906,-0.9006 -2.2439,-1.2218 -3.5297,-1.2218l-3.9238 0 -2.3251 0 -0.0289 0 -4.3669 12.5064 -0.0382 0.1097 0 -26.329z"/>
 </g>
</svg>
