<?xml version="1.0" encoding="UTF-8"?>
<!DOCTYPE svg PUBLIC "-//W3C//DTD SVG 1.1//EN" "http://www.w3.org/Graphics/SVG/1.1/DTD/svg11.dtd">
<!-- Creator: CorelDRAW -->
<svg xmlns="http://www.w3.org/2000/svg" xml:space="preserve" width="29.6953mm" height="27.2867mm" version="1.1" style="shape-rendering:geometricPrecision; text-rendering:geometricPrecision; image-rendering:optimizeQuality; fill-rule:evenodd; clip-rule:evenodd"
viewBox="0 0 37.9963 34.9144"
 xmlns:xlink="http://www.w3.org/1999/xlink"
 xmlns:xodm="http://www.corel.com/coreldraw/odm/2003">
 <defs>
  <style type="text/css">
   <![CDATA[
    .fil0 {fill:white}
    .fil1 {fill:#DDDEDE}
   ]]>
  </style>
 </defs>
 <g id="Camada_x0020_1">
  <metadata id="CorelCorpID_0Corel-Layer"/>
  <path class="fil0" d="M-0 29.3621l0 -24.8236c0,-2.4963 2.0423,-4.5385 4.5384,-4.5385l14.5177 0 0.061 30.5599 -5.1768 -14.6382 -2.6997 0 6.5239 17.0994c-5.4782,0 -17.7645,6.1253 -17.7645,-3.659z"/>
  <path class="fil1" d="M29.0445 20.4945l0 2.6055 1.9324 0c0.3569,0 0.8029,-0.0551 1.0833,-0.3137 0.2464,-0.2275 0.2851,-0.7124 0.2851,-1.0298 0,-0.2853 -0.0312,-0.7679 -0.2649,-0.9668 -0.2882,-0.2457 -0.7479,-0.2952 -1.1035,-0.2952l-1.9324 0z"/>
  <polygon class="fil1" points="24.2043,33.0211 20.3718,33.0211 24.2043,22.9888 "/>
  <path class="fil1" d="M19.0561 0l14.4017 0c2.4961,0 4.5385,2.0423 4.5385,4.5385l0 24.8236c0,4.9589 -5.3242,2.2153 -8.9518,3.659l0 -5.3696 2.1889 0c1.5155,0 3.1038,-0.3022 4.3063,-1.3385 1.2918,-1.1137 1.6358,-2.9053 1.6358,-4.5779 0,-1.6454 -0.3931,-3.2819 -1.6176,-4.3947 -1.1502,-1.0456 -2.6053,-1.4186 -4.0982,-1.4186l-4.5558 0 -2.6996 0 -0.0335 0 -5.0703 14.5207 -0.0444 0.1273 0 -30.5697z"/>
 </g>
</svg>
